<svg width="50" height="50" viewBox="0 0 50 50" fill="none" xmlns="http://www.w3.org/2000/svg">
<path d="M45.4572 5.35612H23.959C23.959 7.92995 24.9814 10.3984 26.8014 12.2183C28.6214 14.0383 31.0898 15.0608 33.6636 15.0608H37.6238V18.8844C37.6273 24.2393 41.9673 28.5794 47.3222 28.5829V7.22109C47.3222 6.19139 46.4874 5.35612 45.4572 5.35612Z" fill="#2684FF"/>
<path d="M34.8198 16.0679H13.3218C13.3251 21.4227 17.6651 25.7629 23.0201 25.7664H26.9803V29.6023C26.9871 34.9571 31.3301 39.2943 36.685 39.2943V17.9332C36.685 16.9032 35.8499 16.0679 34.8198 16.0679Z" fill="url(#paint0_linear_517_30)"/>
<path d="M24.1764 26.7736H2.67822C2.67822 32.1333 7.02329 36.4782 12.3828 36.4782H16.3555V40.3017C16.359 45.6516 20.6915 49.9899 26.0416 50V28.6387C26.0416 27.6087 25.2065 26.7736 24.1764 26.7736Z" fill="url(#paint1_linear_517_30)"/>
<defs>
<linearGradient id="paint0_linear_517_30" x1="5861.05" y1="26.7612" x2="3541.83" y2="2737.11" gradientUnits="userSpaceOnUse">
<stop offset="0.18" stop-color="#0052CC"/>
<stop offset="1" stop-color="#2684FF"/>
</linearGradient>
<linearGradient id="paint1_linear_517_30" x1="6007.57" y1="56.9936" x2="3324.83" y2="3013.13" gradientUnits="userSpaceOnUse">
<stop offset="0.18" stop-color="#0052CC"/>
<stop offset="1" stop-color="#2684FF"/>
</linearGradient>
</defs>
</svg>
