<svg width="50" height="50" viewBox="0 0 50 50" fill="none" xmlns="http://www.w3.org/2000/svg">
<g clip-path="url(#clip0_402_30)">
<path d="M24.1094 0C23.7421 0 23.4639 0.00270833 23.3627 0.0139583C23.2552 0.025 22.9129 0.0577083 22.6052 0.0822917C15.5036 0.7225 8.85173 4.55375 4.63861 10.4423C2.29256 13.7167 0.792155 17.4304 0.225488 21.3646C0.0250715 22.7375 0.000488281 23.1431 0.000488281 25.005C0.000488281 26.8669 0.0254882 27.2725 0.225488 28.6458C1.58382 38.0333 8.26527 45.9206 17.3269 48.8427C18.9496 49.3658 20.6603 49.7225 22.6054 49.9375C23.3629 50.0208 26.6375 50.0208 27.395 49.9375C30.7527 49.566 33.5975 48.7354 36.4027 47.3035C36.8329 47.0835 36.916 47.025 36.8575 46.9758C36.8183 46.9469 34.9852 44.4887 32.786 41.5175L28.7881 36.1175L23.7783 28.7044C21.0219 24.6285 18.754 21.296 18.7344 21.296C18.7149 21.2906 18.6955 24.585 18.6855 28.6065C18.6715 35.6485 18.6661 35.9319 18.578 36.0981C18.4509 36.3377 18.353 36.4352 18.148 36.5427C17.9917 36.6206 17.8546 36.6354 17.1167 36.6354H16.2709L16.0463 36.4937C15.907 36.4065 15.7939 36.2833 15.7188 36.1371L15.6161 35.9171L15.6271 26.1192L15.6411 16.3162L15.7924 16.1256C15.8707 16.0229 16.0369 15.8912 16.154 15.8277C16.3544 15.7298 16.4328 15.72 17.2782 15.72C18.2755 15.72 18.4415 15.759 18.7005 16.0423C18.774 16.1208 21.4864 20.2062 24.7316 25.1273C28.0175 30.1081 31.3054 35.0877 34.595 40.066L38.5537 46.0623L38.7537 45.9304C40.5283 44.7771 42.4048 43.135 43.8906 41.4248C47.0529 37.7937 49.0912 33.3665 49.7754 28.6456C49.9756 27.2725 50 26.8665 50 25.005C50 23.1431 49.975 22.7375 49.7754 21.3642C48.4167 11.9767 41.7354 4.08937 32.6739 1.16729C31.0756 0.649167 29.3748 0.292292 27.4687 0.0772917C27.1166 0.040625 25.211 0.000833333 24.1094 0ZM32.5854 15.0354C33.3089 15.0354 33.4358 15.0465 33.5973 15.1333C33.8321 15.2504 34.0223 15.4754 34.091 15.7098C34.1298 15.8369 34.1398 18.5542 34.1298 24.6773L34.1158 33.4637L32.5666 31.0887L31.0123 28.7137V22.3263C31.0123 18.1971 31.0316 15.8756 31.061 15.7633C31.1391 15.4898 31.3102 15.2746 31.545 15.1477C31.7452 15.0448 31.8179 15.0354 32.5854 15.0354Z" fill="black"/>
</g>
<defs>
<clipPath id="clip0_402_30">
<rect width="50" height="50" fill="white"/>
</clipPath>
</defs>
</svg>
