<svg width="50" height="50" viewBox="0 0 50 50" fill="none" xmlns="http://www.w3.org/2000/svg">
<g clip-path="url(#clip0_402_32)">
<path d="M50 0H0V50H50V0Z" fill="#F03E2F"/>
<path d="M15.3996 12.9543C15.3996 17.2505 18.1001 19.8068 23.5066 21.1548L29.2355 22.4598C34.3523 23.6145 37.4682 26.4822 37.4682 31.1545C37.508 33.1899 36.8344 35.177 35.5604 36.7826C35.5604 32.1211 33.1059 29.6024 27.1856 28.088L21.5605 26.8313C17.056 25.8217 13.5792 23.4641 13.5792 18.3891C13.5555 16.4293 14.1959 14.5173 15.3996 12.9543Z" fill="white"/>
<path d="M32.0399 30.0105C34.4835 31.5465 35.5549 33.6946 35.5549 36.7772C33.5323 39.3227 29.979 40.7512 25.8026 40.7512C18.7725 40.7512 13.8526 37.3518 12.7593 31.4445H19.5105C20.3797 34.1565 22.6811 35.4132 25.7533 35.4132C29.5034 35.4132 31.9962 33.4476 32.0454 29.9998" fill="#F9B1AB"/>
<path d="M18.909 19.3235C17.7932 18.672 16.8777 17.7359 16.2598 16.6145C15.642 15.4931 15.3446 14.2283 15.3995 12.9543C17.3511 10.4302 20.7458 8.8889 24.884 8.8889C32.0452 8.8889 36.1889 12.6052 37.2111 17.8359H30.7168C30.0007 15.7737 28.2077 14.168 24.9387 14.168C21.4455 14.168 19.0621 16.1657 18.9254 19.3235" fill="#F9B1AB"/>
</g>
<defs>
<clipPath id="clip0_402_32">
<rect width="50" height="50" rx="25" fill="white"/>
</clipPath>
</defs>
</svg>
