<svg width="50" height="31" viewBox="0 0 50 31" fill="none" xmlns="http://www.w3.org/2000/svg">
<g clip-path="url(#clip0_516_30)">
<mask id="mask0_516_30" style="mask-type:luminance" maskUnits="userSpaceOnUse" x="0" y="0" width="50" height="31">
<path d="M0 0H50V30.4364H0V0Z" fill="white"/>
</mask>
<g mask="url(#mask0_516_30)">
<path fill-rule="evenodd" clip-rule="evenodd" d="M25 0C18.3333 0 14.1667 3.38182 12.5 10.1455C15 6.76364 17.9167 5.49545 21.25 6.34091C23.1519 6.82282 24.5111 8.22345 26.0157 9.77252C28.4667 12.2967 31.3037 15.2182 37.5 15.2182C44.1667 15.2182 48.3333 11.8364 50 5.07273C47.5 8.45455 44.5833 9.72273 41.25 8.87727C39.3481 8.39536 37.9889 6.99473 36.4843 5.44567C34.0333 2.92152 31.1963 0 25 0ZM12.5 15.2182C5.83333 15.2182 1.66667 18.6 0 25.3636C2.5 21.9818 5.41667 20.7136 8.75 21.5591C10.6519 22.0419 12.0111 23.4416 13.5157 24.9907C15.9667 27.5148 18.8037 30.4364 25 30.4364C31.6667 30.4364 35.8333 27.0545 37.5 20.2909C35 23.6727 32.0833 24.9409 28.75 24.0955C26.8481 23.6135 25.4889 22.2129 23.9843 20.6638C21.5333 18.1397 18.6963 15.2182 12.5 15.2182Z" fill="#38BDF8"/>
</g>
</g>
<defs>
<clipPath id="clip0_516_30">
<rect width="50" height="31" fill="white"/>
</clipPath>
</defs>
</svg>
