<svg width="243" height="89" viewBox="0 0 243 89" fill="none" xmlns="http://www.w3.org/2000/svg">
<path d="M92.0544 21.0477L92.131 21.5418L92.131 21.5418L92.0544 21.0477ZM101.256 22.5164L100.989 22.9392L100.994 22.9421L101.256 22.5164ZM105.182 31.0842L105.682 31.1046L105.182 31.0842ZM88.3737 39.2847L87.9482 39.5472L87.9482 39.5472L88.3737 39.2847ZM92.0544 40.9983L91.9766 41.4922L92.0359 41.5015L92.0958 41.4966L92.0544 40.9983ZM63.5904 10.7664L63.9435 10.4124L63.8882 10.3572L63.8186 10.3215L63.5904 10.7664ZM56.1063 9.66482L55.9431 9.19221L55.8511 9.22396L55.7778 9.28788L56.1063 9.66482ZM50.4625 8.19606L50.7295 7.77324L50.7238 7.76975L50.4625 8.19606ZM2 8.93044L1.6808 8.54558L0.665221 9.38791L1.98398 9.43018L2 8.93044ZM31.9363 20.4357L31.4371 20.4066L31.4363 20.4212V20.4357H31.9363ZM24.4522 32.7977L24.0756 32.4688L23.2002 33.4711L24.519 33.2933L24.4522 32.7977ZM56.1063 38.428L55.7581 38.7868L55.7869 38.8147L55.8197 38.8377L56.1063 38.428ZM64.2038 57.7666L63.7312 57.6034L63.3489 58.7107L64.4129 58.2208L64.2038 57.7666ZM130.334 78.9412L130.461 78.4575L130.398 78.4412H130.334V78.9412ZM129.352 87.8761L128.888 87.6912L128.681 88.21L129.219 88.3582L129.352 87.8761ZM135.977 75.2693L136.477 75.2524L136.463 74.8261L136.039 74.7731L135.977 75.2693ZM147.878 66.9463L147.913 67.4451L147.949 67.4426L147.983 67.4351L147.878 66.9463ZM154.994 66.9463L154.573 67.2152L154.573 67.2152L154.994 66.9463ZM154.258 78.9412L153.824 78.6926L153.806 78.7249L153.792 78.7596L154.258 78.9412ZM150.577 81.2667L151.061 81.3942L151.077 81.3315V81.2667H150.577ZM138.309 74.2901L138.343 74.789L138.354 74.7881L138.309 74.2901ZM109.967 68.6667L109.703 69.0915L109.717 69.0997L109.73 69.107L109.967 68.6667ZM112.789 36.2248L112.82 36.7239L112.789 36.2248ZM129.352 34.3101L129.528 34.7783L129.574 34.7607L129.617 34.7342L129.352 34.3101ZM241 43.9358L240.983 44.4355L242.379 44.483L241.33 43.5604L241 43.9358ZM191.433 67.6807L191.288 68.1592L191.957 68.3616L191.933 67.6638L191.433 67.6807ZM151.068 65.1104L150.864 64.6538L150.784 64.6897L150.721 64.7508L151.068 65.1104ZM62.118 15.9211L62.6076 15.8197L62.5639 15.6085L62.3802 15.4954L62.118 15.9211ZM77.0862 35.2457L77.5674 35.11L77.5269 34.9663L77.4143 34.8683L77.0862 35.2457ZM92.0544 56.053L92.3719 55.6666L92.3612 55.6582L92.0544 56.053ZM94.1401 61.8057L93.826 62.1947L93.9387 62.2857L94.0827 62.3024L94.1401 61.8057ZM133.156 40.9983L132.877 40.583L132.874 40.5853L133.156 40.9983ZM164.319 28.7587L164.367 29.2563L164.45 29.2483L164.525 29.2142L164.319 28.7587ZM112.789 48.2197L112.871 48.713L112.879 48.7115L112.789 48.2197ZM110.581 48.5869L110.227 48.9408L110.232 48.9459L110.238 48.9508L110.581 48.5869ZM74.3816 32.7977L74.0384 33.1614L74.0384 33.1614L74.3816 32.7977ZM94.1401 39.9785L93.8473 39.5732L93.8473 39.5732L94.1401 39.9785ZM103.096 52.1364L102.669 52.3957L103.096 52.1364ZM93.0359 40.6667L92.8098 40.2208L92.8098 40.2208L93.0359 40.6667ZM57.8239 12.844L58.1564 12.4706L57.8239 12.844ZM97.6981 21.2009L97.802 20.7118L97.6981 21.2009ZM105.182 30.1128L105.682 30.092L105.182 30.1128ZM100.246 31.941L99.8063 32.1794L99.8063 32.1794L100.246 31.941ZM141.008 74.0453L141.053 74.5433L141.071 74.5416L141.09 74.5385L141.008 74.0453ZM90.9042 31.0093C90.6332 31.0622 90.4563 31.3248 90.5093 31.5958C90.5622 31.8668 90.8248 32.0437 91.0958 31.9907L90.9042 31.0093ZM92.4018 32.4802C92.5755 32.6949 92.8904 32.7281 93.105 32.5544C93.3197 32.3807 93.3529 32.0659 93.1792 31.8512L92.4018 32.4802ZM94.2332 32.6197C93.9997 32.767 93.9298 33.0758 94.0771 33.3093C94.2245 33.5429 94.5333 33.6127 94.7668 33.4654L94.2332 32.6197ZM95.3856 34.1581C95.4729 34.4201 95.756 34.5617 96.018 34.4743C96.28 34.387 96.4216 34.1039 96.3342 33.8419L95.3856 34.1581ZM91.0199 35.3605C90.9428 35.6257 91.0953 35.9031 91.3605 35.9801C91.6257 36.0572 91.9031 35.9047 91.9801 35.6395L91.0199 35.3605ZM90.9472 36.7764C90.8237 36.5294 90.5234 36.4293 90.2764 36.5528C90.0294 36.6763 89.9293 36.9766 90.0528 37.2236L90.9472 36.7764ZM92.212 38.4087C92.4377 38.5678 92.7496 38.5138 92.9087 38.288C93.0678 38.0623 93.0138 37.7504 92.788 37.5913L92.212 38.4087ZM89.8176 28.5683C89.3661 27.4717 88.9687 25.8123 89.1899 24.3797C89.2991 23.6723 89.5549 23.0452 90.004 22.56C90.4491 22.079 91.1197 21.6987 92.131 21.5418L91.9777 20.5536C90.7806 20.7394 89.892 21.2087 89.27 21.8808C88.652 22.5486 88.3327 23.3781 88.2016 24.2271C87.9422 25.9075 88.4037 27.7608 88.8929 28.949L89.8176 28.5683ZM87.9482 39.5472C88.4319 40.3315 89.292 40.7787 90.0518 41.0448C90.825 41.3157 91.591 41.4315 91.9766 41.4922L92.1322 40.5044C91.7407 40.4427 91.059 40.3381 90.3824 40.1011C89.6924 39.8593 89.1007 39.5109 88.7993 39.0222L87.9482 39.5472ZM88.8668 28.6514C88.7233 29.3047 88.5582 30.1139 88.3959 30.9934L89.3792 31.175C89.5396 30.3061 89.7025 29.508 89.8436 28.8659L88.8668 28.6514ZM88.3959 30.9934C88.1042 32.5733 87.819 34.3921 87.6843 35.9474C87.6171 36.7239 87.5862 37.4474 87.6137 38.0483C87.6398 38.6202 87.7207 39.1784 87.9482 39.5472L88.7993 39.0222C88.7196 38.8931 88.6385 38.5703 88.6126 38.0027C88.588 37.4641 88.6152 36.7895 88.6806 36.0336C88.8113 34.524 89.0902 32.7405 89.3792 31.175L88.3959 30.9934ZM89.1007 30.6319C86.0578 29.1975 76.6831 23.1215 63.9435 10.4124L63.2372 11.1204C76.0172 23.8697 85.4857 30.0333 88.6744 31.5365L89.1007 30.6319ZM63.8186 10.3215C63.0672 9.93603 61.7928 9.42452 60.3731 9.12081C58.962 8.81892 57.3439 8.70848 55.9431 9.19221L56.2695 10.1374C57.4206 9.73991 58.8289 9.81307 60.1639 10.0987C61.4905 10.3825 62.6821 10.8624 63.3621 11.2113L63.8186 10.3215ZM50.7238 7.76975C46.1084 4.94107 38.1415 1.59513 29.1908 0.718785C20.2317 -0.15839 10.2512 1.43722 1.6808 8.54558L2.3192 9.31529C10.6309 2.42151 20.3218 0.855213 29.0934 1.71403C37.8734 2.57367 45.6967 5.86162 50.2013 8.62236L50.7238 7.76975ZM1.98398 9.43018C7.05243 9.59263 14.615 10.3608 20.8342 12.1286C23.9476 13.0135 26.685 14.1383 28.6034 15.5355C30.5183 16.9302 31.546 18.5379 31.4371 20.4066L32.4354 20.4648C32.5719 18.1231 31.2532 16.2283 29.1922 14.7272C27.1347 13.2287 24.2667 12.0646 21.1076 11.1667C14.7818 9.36864 7.13082 8.59463 2.01602 8.43069L1.98398 9.43018ZM31.4363 20.4357C31.4363 20.6719 31.3622 21.1141 31.1358 21.7749C30.9126 22.4266 30.5506 23.2643 29.9997 24.2828C28.8981 26.3196 27.0501 29.0637 24.0756 32.4688L24.8288 33.1267C27.8416 29.6776 29.7356 26.8731 30.8793 24.7586C31.451 23.7014 31.8374 22.8128 32.0819 22.099C32.3232 21.3944 32.4363 20.8319 32.4363 20.4357H31.4363ZM24.519 33.2933C28.269 32.7877 34.3499 32.4595 40.3751 33.1203C46.4244 33.7839 52.3014 35.4329 55.7581 38.7868L56.4545 38.0691C52.7461 34.471 46.579 32.7948 40.4841 32.1263C34.3649 31.4551 28.2013 31.7878 24.3854 32.3022L24.519 33.2933ZM55.8197 38.8377C57.753 40.1898 60.4822 42.7683 62.3481 46.0785C64.2101 49.3816 65.1923 53.3717 63.7312 57.6034L64.6764 57.9298C66.2581 53.349 65.175 49.0569 63.2193 45.5874C61.2675 42.125 58.4265 39.4405 56.3928 38.0182L55.8197 38.8377ZM64.4129 58.2208C69.5682 55.8471 83.0089 54.0552 95.0097 66.3169L95.7243 65.6174C83.3834 53.0082 69.4725 54.7903 63.9947 57.3124L64.4129 58.2208ZM94.867 65.9671C94.867 67.8869 95.0433 69.739 95.8608 71.415C96.6856 73.106 98.1354 74.5631 100.578 75.7496C105.416 78.1004 114.265 79.4412 130.334 79.4412V78.4412C114.257 78.4412 105.623 77.0892 101.015 74.8501C98.7331 73.7417 97.4684 72.4296 96.7596 70.9766C96.0435 69.5085 95.867 67.8417 95.867 65.9671H94.867ZM130.207 79.4248C130.214 79.4267 130.317 79.4593 130.427 79.6971C130.537 79.9349 130.633 80.3411 130.628 80.9842C130.618 82.2707 130.203 84.387 128.888 87.6912L129.817 88.061C131.152 84.7069 131.616 82.4576 131.628 80.9923C131.634 80.2594 131.527 79.6931 131.334 79.2769C131.142 78.8606 130.842 78.5577 130.461 78.4575L130.207 79.4248ZM129.219 88.3582C130.591 88.7356 132.555 88.4378 134.093 86.4977C135.61 84.585 136.675 81.1272 136.477 75.2524L135.478 75.2861C135.672 81.0635 134.611 84.2355 133.31 85.8764C132.03 87.4898 130.485 87.6693 129.485 87.394L129.219 88.3582ZM115.555 54.7389C118.587 57.0225 123.826 60.3894 129.717 63.0894C135.596 65.7838 142.192 67.8456 147.913 67.4451L147.843 66.4475C142.375 66.8303 135.966 64.8531 130.134 62.1804C124.315 59.5134 119.137 56.1851 116.157 53.9401L115.555 54.7389ZM154.573 67.2152C154.63 67.3052 154.708 67.5059 154.781 67.8475C154.851 68.1755 154.909 68.5897 154.951 69.0706C155.035 70.0314 155.054 71.2255 155.001 72.4634C154.948 73.7011 154.823 74.9707 154.623 76.0834C154.42 77.2088 154.149 78.1265 153.824 78.6926L154.692 79.1897C155.104 78.4707 155.399 77.4148 155.607 76.2605C155.817 75.0935 155.946 73.7776 156 72.5061C156.054 71.2349 156.035 69.9964 155.947 68.9835C155.903 68.4776 155.84 68.0197 155.759 67.6382C155.68 67.2702 155.573 66.924 155.416 66.6774L154.573 67.2152ZM136.039 74.7731C128.951 73.8858 117.082 71.6304 110.189 68.2186L109.745 69.1148C116.8 72.6069 128.815 74.8766 135.915 75.7654L136.039 74.7731ZM138.274 73.7913C125.629 74.6646 114.231 70.3936 110.204 68.2264L109.73 69.107C113.882 71.3415 125.468 75.6781 138.343 74.7889L138.274 73.7913ZM104.683 31.0637C104.598 33.1362 104.009 33.7022 103.57 33.8301L103.85 34.7901C104.966 34.4646 105.594 33.2425 105.682 31.1046L104.683 31.0637ZM103.57 33.8301C103.244 33.9251 102.814 33.853 102.32 33.6171C101.836 33.3863 101.36 33.0308 100.985 32.6783L100.3 33.4067C100.729 33.8099 101.289 34.2331 101.889 34.5196C102.479 34.8011 103.182 34.985 103.85 34.7901L103.57 33.8301ZM112.82 36.7239C118.325 36.3806 122.242 35.9892 124.906 35.6384C127.548 35.2904 128.996 34.9776 129.528 34.7783L129.177 33.8419C128.768 33.9952 127.431 34.2971 124.775 34.647C122.14 34.994 118.246 35.3836 112.758 35.7258L112.82 36.7239ZM177.201 23.0164C191.653 23.0164 202.881 24.2694 212.808 27.5505C222.73 30.8293 231.383 36.144 240.67 44.3113L241.33 43.5604C231.968 35.3265 223.2 29.9315 213.122 26.601C203.052 23.2726 191.704 22.0164 177.201 22.0164V23.0164ZM241.017 43.4361C232.578 43.1493 219.95 43.9951 209.498 47.4822C199.079 50.9581 190.578 57.1562 190.934 67.6976L191.933 67.6638C191.602 57.8384 199.48 51.8785 209.814 48.4308C220.114 44.9944 232.613 44.1511 240.983 44.4355L241.017 43.4361ZM191.578 67.2022C186.974 65.8078 179.429 64.0076 171.737 63.1326C164.071 62.2606 156.15 62.2934 150.864 64.6538L151.272 65.5669C156.292 63.3252 163.974 63.2561 171.624 64.1262C179.247 64.9933 186.732 66.7793 191.288 68.1592L191.578 67.2022ZM147.983 67.4351C148.422 67.3409 148.964 67.238 149.551 67.1453L149.395 66.1575C148.79 66.2531 148.23 66.3593 147.773 66.4575L147.983 67.4351ZM149.551 67.1453C150.632 66.9747 151.846 66.8415 152.846 66.8522C153.347 66.8575 153.771 66.8991 154.089 66.9795C154.426 67.0649 154.543 67.1691 154.573 67.2152L155.416 66.6774C155.175 66.3005 154.741 66.1132 154.334 66.0101C153.907 65.902 153.394 65.858 152.856 65.8523C151.776 65.8407 150.5 65.9832 149.395 66.1575L149.551 67.1453ZM150.721 64.7508L149.126 66.2918L149.821 67.011L151.416 65.47L150.721 64.7508ZM76.605 35.3813C77.7337 39.3849 82.3266 49.127 91.7476 56.4479L92.3612 55.6582C83.1332 48.4874 78.6472 38.9398 77.5674 35.11L76.605 35.3813ZM91.737 56.4394L93.8227 58.1529L94.4575 57.3803L92.3718 55.6667L91.737 56.4394ZM93.8375 57.3685C93.3498 57.7393 92.7387 58.4273 92.5556 59.3045C92.3607 60.2384 92.675 61.2651 93.826 62.1947L94.4542 61.4167C93.544 60.6816 93.4289 60.0152 93.5346 59.5089C93.6521 58.9459 94.0716 58.4467 94.4427 58.1647L93.8375 57.3685ZM116.319 54.5298C116.829 53.2894 116.809 52.0706 116.127 51.2006C115.445 50.3305 114.232 49.9757 112.724 50.1718L112.854 51.1634C114.168 50.9923 114.959 51.3311 115.34 51.8175C115.721 52.3041 115.824 53.1048 115.394 54.1491L116.319 54.5298ZM112.432 50.3171C110.434 52.3502 103.9 56.6873 94.1105 57.2675L94.1697 58.2657C104.206 57.6709 110.973 53.2281 113.146 51.0181L112.432 50.3171ZM94.0827 62.3024C94.4582 62.3457 94.8829 62.3769 95.3504 62.3925L95.3836 61.393C94.9399 61.3783 94.5426 61.3488 94.1975 61.309L94.0827 62.3024ZM95.867 65.9671V61.8927H94.867V65.9671H95.867ZM95.3504 62.3925C97.5094 62.4642 100.625 62.2032 104.091 61.2241L103.819 60.2617C100.453 61.2124 97.4411 61.4614 95.3836 61.393L95.3504 62.3925ZM104.091 61.2241C107.957 60.1324 112.272 58.1442 116.186 54.7156L115.527 53.9634C111.744 57.2772 107.568 59.2028 103.819 60.2617L104.091 61.2241ZM110.231 68.2419C109.182 67.5906 106.438 65.0935 104.412 60.5397L103.498 60.9461C105.595 65.6586 108.463 68.3213 109.703 69.0915L110.231 68.2419ZM191.782 67.3224C185.91 61.6076 175.943 53.4145 165.108 47.394C154.304 41.3911 142.492 37.4669 133.002 40.5223L133.309 41.4742C142.37 38.5567 153.849 42.2823 164.622 48.2681C175.363 54.2364 185.26 62.3709 191.085 68.039L191.782 67.3224ZM129.617 34.7342C134.629 31.6055 147.492 25.9054 164.38 23.8135L164.257 22.8211C147.231 24.93 134.229 30.6767 129.087 33.8859L129.617 34.7342ZM164.38 23.8135C168.44 23.3106 172.732 23.0164 177.201 23.0164V22.0164C172.688 22.0164 168.355 22.3135 164.257 22.8211L164.38 23.8135ZM164.323 23.8173C165.328 23.8083 166.421 23.8656 167.341 24.0205C167.802 24.0981 168.205 24.1979 168.527 24.3196C168.858 24.4444 169.058 24.5759 169.158 24.6899C169.237 24.7787 169.253 24.8476 169.226 24.95C169.19 25.092 169.056 25.329 168.695 25.6626C167.978 26.326 166.558 27.1966 164.113 28.3031L164.525 29.2142C166.987 28.1002 168.532 27.1757 169.374 26.3967C169.793 26.0091 170.087 25.6132 170.194 25.2012C170.312 24.7497 170.187 24.3438 169.908 24.0277C169.651 23.7368 169.276 23.5333 168.881 23.3841C168.477 23.2317 168.005 23.1183 167.507 23.0344C166.511 22.8665 165.355 22.808 164.314 22.8173L164.323 23.8173ZM164.27 28.261C162.371 28.4463 159.212 28.8836 155.884 29.5946C152.563 30.304 149.037 31.2936 146.428 32.5951L146.875 33.4899C149.369 32.2456 152.796 31.2768 156.093 30.5726C159.382 29.8699 162.504 29.4382 164.367 29.2563L164.27 28.261ZM146.428 32.5951C141.297 35.1547 135.257 38.9867 132.877 40.5831L133.434 41.4135C135.798 39.8275 141.798 36.0221 146.875 33.4899L146.428 32.5951ZM132.874 40.5853C130.609 42.1314 123.339 45.7801 112.699 47.7278L112.879 48.7115C123.636 46.7425 131.04 43.0475 133.437 41.4113L132.874 40.5853ZM112.707 47.7264L110.499 48.0936L110.663 49.0801L112.871 48.7129L112.707 47.7264ZM110.934 48.2329C110.389 47.6899 109.544 46.6823 108.814 45.4549C108.081 44.2228 107.489 42.8123 107.399 41.4545L106.401 41.5212C106.507 43.101 107.183 44.6688 107.955 45.9662C108.729 47.2684 109.627 48.3415 110.227 48.9408L110.934 48.2329ZM110.238 48.9508L112.446 51.0315L113.132 50.3037L110.923 48.223L110.238 48.9508ZM61.6284 16.0226C61.889 17.28 62.8342 19.5236 64.7758 22.456C66.7247 25.3996 69.6951 29.0637 74.0384 33.1614L74.7247 32.4341C70.4315 28.3836 67.5122 24.7776 65.6096 21.904C63.6995 19.0192 62.8312 16.8986 62.6076 15.8197L61.6284 16.0226ZM74.0384 33.1614C74.8912 33.9659 75.7968 34.7872 76.7581 35.623L77.4143 34.8683C76.463 34.0413 75.5674 33.2291 74.7247 32.4341L74.0384 33.1614ZM24.5883 33.2789C31.2707 31.3882 41.778 29.1199 51.5701 28.4589C56.4671 28.1283 61.1633 28.2014 65.1039 28.9145C69.0568 29.6298 72.172 30.9753 74.001 33.122L74.7622 32.4735C72.7119 30.067 69.3227 28.6617 65.2819 27.9304C61.2288 27.197 56.442 27.1277 51.5027 27.4612C41.6224 28.1281 31.0442 30.413 24.3161 32.3166L24.5883 33.2789ZM94.4329 40.3838C95.9669 39.2754 98.155 37.164 101.042 33.344L100.244 32.7411C97.3899 36.5178 95.2707 38.5448 93.8473 39.5732L94.4329 40.3838ZM103.454 33.8803C103.228 34.0148 103.008 34.173 102.83 34.3511C102.658 34.5232 102.487 34.7521 102.428 35.0318C102.362 35.3458 102.453 35.6511 102.679 35.8966C102.884 36.1196 103.186 36.2814 103.547 36.4059L103.873 35.4608C103.583 35.3606 103.459 35.2677 103.415 35.2198C103.397 35.2 103.4 35.1963 103.404 35.2098C103.406 35.2158 103.407 35.2224 103.407 35.2287C103.407 35.2347 103.406 35.2379 103.406 35.2375C103.408 35.228 103.43 35.1656 103.537 35.0582C103.639 34.9568 103.785 34.8472 103.965 34.7399L103.454 33.8803ZM103.547 36.4059C104.207 36.6343 105.226 36.7911 106.708 36.8543C108.199 36.9179 110.192 36.8877 112.82 36.7239L112.758 35.7258C110.15 35.8884 108.195 35.9168 106.751 35.8552C105.298 35.7932 104.395 35.641 103.873 35.4608L103.547 36.4059ZM103.231 35.7908C102.651 37.7407 101.925 40.8937 101.629 44.0366C101.481 45.6085 101.439 47.1908 101.581 48.6256C101.723 50.0541 102.05 51.3752 102.669 52.3957L103.524 51.877C103.014 51.0371 102.711 49.8839 102.576 48.5272C102.443 47.1768 102.481 45.6629 102.625 44.1304C102.914 41.0648 103.624 37.9766 104.189 36.0759L103.231 35.7908ZM92.0958 41.4966C92.4127 41.4702 92.8041 41.3448 93.2619 41.1127L92.8098 40.2208C92.4137 40.4215 92.1525 40.4884 92.013 40.5L92.0958 41.4966ZM93.2619 41.1127C93.6029 40.9399 93.9929 40.7017 94.4329 40.3838L93.8473 39.5732C93.4413 39.8665 93.0959 40.0758 92.8098 40.2208L93.2619 41.1127ZM102.669 52.3957C102.841 52.6788 102.965 52.9033 103.047 53.0751C103.135 53.2574 103.161 53.3467 103.164 53.3705C103.167 53.3857 103.153 53.3267 103.184 53.2392C103.228 53.1173 103.335 53.0092 103.479 52.9733C103.535 52.9593 103.579 52.9607 103.604 52.9632C103.629 52.9657 103.644 52.9704 103.646 52.9712C103.65 52.9722 103.633 52.9669 103.592 52.9438C103.418 52.8447 103.109 52.5998 102.677 52.1962C102.255 51.8022 101.744 51.2834 101.173 50.6653C98.8825 48.1885 95.6856 44.1869 93.4669 40.4133L92.6049 40.9202C94.8689 44.7708 98.1133 48.8296 100.438 51.3442C101.021 51.974 101.549 52.5113 101.994 52.9269C102.428 53.3328 102.812 53.6508 103.098 53.8133C103.173 53.8556 103.257 53.8969 103.345 53.9248C103.424 53.9497 103.564 53.9828 103.721 53.9434C103.918 53.8941 104.063 53.7522 104.126 53.5749C104.177 53.4321 104.165 53.2964 104.152 53.2127C104.124 53.0386 104.045 52.841 103.948 52.6404C103.846 52.4295 103.705 52.1753 103.524 51.877L102.669 52.3957ZM55.7778 9.28788C55.3475 9.66283 55.3283 10.2749 55.5911 10.8942C55.8555 11.5175 56.4453 12.2857 57.4913 13.2174L58.1564 12.4706C57.1567 11.5803 56.6922 10.9292 56.5116 10.5036C56.3293 10.0739 56.4742 10.0074 56.4348 10.0418L55.7778 9.28788ZM57.4913 13.2174C58.4711 14.0899 59.8769 15.1284 61.8559 16.3469L62.3802 15.4954C60.4336 14.2968 59.0793 13.2925 58.1564 12.4706L57.4913 13.2174ZM50.1956 8.61884L57.5569 13.2668L58.0908 12.4212L50.7295 7.77328L50.1956 8.61884ZM92.131 21.5418C94.2011 21.2205 96.0764 21.3677 97.5943 21.69L97.802 20.7118C96.1826 20.368 94.184 20.2112 91.9777 20.5536L92.131 21.5418ZM97.5943 21.69C99.2181 22.0348 100.414 22.5759 100.989 22.9391L101.523 22.0937C100.832 21.6572 99.5215 21.077 97.802 20.7118L97.5943 21.69ZM92.8004 28.0285C91.7497 28.0077 90.5814 28.0788 89.2847 28.2637L89.4257 29.2537C90.6752 29.0756 91.7894 29.0087 92.7807 29.0283L92.8004 28.0285ZM97.5987 20.7109C96.4255 20.949 94.7514 21.6211 93.539 22.8928C92.2983 24.1942 91.5721 26.0964 92.3099 28.6663L93.2711 28.3904C92.6348 26.174 93.2582 24.6366 94.2628 23.5828C95.2955 22.4995 96.7623 21.901 97.7976 21.691L97.5987 20.7109ZM100.994 22.9421C101.668 23.3575 102.756 24.3588 103.579 25.9306L104.465 25.4669C103.563 23.7435 102.353 22.605 101.518 22.0908L100.994 22.9421ZM97.0851 28.7811C95.9434 28.3456 94.5304 28.0626 92.8004 28.0285L92.7807 29.0283C94.4126 29.0604 95.7095 29.3267 96.7288 29.7154L97.0851 28.7811ZM104.134 25.2114C103.173 24.9908 101.656 24.9189 100.175 25.4143C98.674 25.9165 97.2126 27.0038 96.4387 29.0731L97.3753 29.4234C98.0297 27.6739 99.2374 26.7825 100.492 26.3626C101.768 25.936 103.094 25.9987 103.91 26.1861L104.134 25.2114ZM103.579 25.9306C104.164 27.0493 104.612 28.4524 104.683 30.1337L105.682 30.092C105.605 28.2524 105.113 26.7061 104.465 25.4669L103.579 25.9306ZM104.683 30.1337C104.695 30.4346 104.696 30.7446 104.683 31.0637L105.682 31.1046C105.696 30.758 105.696 30.4204 105.682 30.092L104.683 30.1337ZM101.136 32.9584C101.069 32.5698 100.923 32.14 100.685 31.7025L99.8063 32.1794C99.9962 32.5294 100.104 32.8555 100.15 33.1266L101.136 32.9584ZM100.685 31.7025C100.104 30.6312 98.9718 29.5005 97.0851 28.7811L96.7288 29.7154C98.4068 30.3553 99.3461 31.3314 99.8063 32.1794L100.685 31.7025ZM105.284 29.6233C104.365 29.4321 102.976 29.2884 101.831 29.5166C101.258 29.6306 100.687 29.8489 100.279 30.2592C99.8476 30.6923 99.6525 31.2844 99.7503 32.0079L100.741 31.874C100.68 31.4226 100.801 31.1524 100.988 30.9647C101.197 30.754 101.547 30.5928 102.026 30.4973C102.984 30.3065 104.222 30.4238 105.08 30.6024L105.284 29.6233ZM153.792 78.7596C153.523 79.4499 152.654 81.0617 151.392 81.9611L151.972 82.7755C153.458 81.7164 154.421 79.9012 154.724 79.1228L153.792 78.7596ZM151.392 81.9611C151.069 82.1908 150.919 82.2178 150.892 82.2183C150.891 82.2183 150.899 82.218 150.914 82.2225C150.93 82.227 150.948 82.235 150.964 82.2465C150.997 82.27 151.003 82.291 150.997 82.2772C150.978 82.2351 150.958 82.1241 150.97 81.9345C150.981 81.7582 151.016 81.5642 151.061 81.3942L150.094 81.1392C150.037 81.3568 149.987 81.6167 149.971 81.8725C149.956 82.1152 149.967 82.4148 150.079 82.6735C150.138 82.8101 150.233 82.9542 150.385 83.0623C150.542 83.1735 150.724 83.2214 150.909 83.2182C151.25 83.2123 151.607 83.0353 151.972 82.7755L151.392 81.9611ZM151.077 81.2667C151.077 80.9506 151.119 80.5707 151.176 80.1256C151.231 79.691 151.299 79.1992 151.34 78.6994C151.423 77.7068 151.41 76.5845 150.936 75.6025C150.445 74.5874 149.502 73.8021 147.9 73.414C146.322 73.0315 144.082 73.0273 140.926 73.5521L141.09 74.5385C144.19 74.023 146.276 74.0494 147.665 74.3859C149.031 74.7169 149.698 75.3391 150.035 76.0376C150.389 76.7692 150.423 77.6664 150.344 78.6168C150.305 79.0886 150.241 79.5492 150.184 80C150.128 80.4404 150.077 80.879 150.077 81.2667H151.077ZM140.963 73.5473L138.263 73.7921L138.354 74.7881L141.053 74.5433L140.963 73.5473ZM91.0958 31.9907C91.3489 31.9413 91.9917 31.9734 92.4018 32.4802L93.1792 31.8512C92.4542 30.9552 91.3718 30.918 90.9042 31.0093L91.0958 31.9907ZM94.7668 33.4654C94.7954 33.4473 94.86 33.4276 94.9358 33.461C95.0121 33.4946 95.2099 33.6313 95.3856 34.1581L96.3342 33.8419C96.1099 33.1687 95.771 32.7362 95.339 32.5459C94.9066 32.3554 94.4912 32.4569 94.2332 32.6197L94.7668 33.4654ZM93.0511 33.2797C92.8795 33.6295 92.5872 33.8105 92.161 34.0753C91.7682 34.3194 91.2243 34.6568 91.0199 35.3605L91.9801 35.6395C92.0662 35.3432 92.2769 35.1806 92.6888 34.9247C93.0673 34.6895 93.6298 34.3705 93.9489 33.7203L93.0511 33.2797ZM90.0528 37.2236C90.2139 37.5459 90.4229 37.7781 90.6692 37.9398C90.9101 38.098 91.1601 38.171 91.3744 38.2149C91.4807 38.2366 91.5852 38.2524 91.6754 38.266C91.7699 38.2801 91.8478 38.2917 91.922 38.3063C92.0705 38.3354 92.1546 38.3683 92.212 38.4087L92.788 37.5913C92.5616 37.4317 92.3163 37.3646 92.1147 37.325C92.0139 37.3052 91.9115 37.2902 91.8238 37.277C91.7317 37.2632 91.6519 37.2509 91.5749 37.2351C91.4226 37.204 91.3104 37.1645 91.218 37.1039C91.1311 37.0469 91.0361 36.9541 90.9472 36.7764L90.0528 37.2236Z" fill="white"/>
</svg>
