<svg width="165" height="277" viewBox="0 0 165 277" fill="none" xmlns="http://www.w3.org/2000/svg">
<path d="M68.4747 76.5086V91.9905C71.0814 92.6424 74.0864 95.1593 75.263 96.3363C89.1111 109.917 99.7009 103.942 91.0119 93.6202C95.6279 96.3363 102.796 102.964 94.5418 107.744C86.2872 112.525 73.6338 105.028 66.574 99.8673C59.5142 97.966 59.5685 101.714 55.4412 101.497C47.6211 95.6301 38.3347 102.583 30.1887 106.386C10.3669 112.905 10.91 96.3363 18.2413 93.6202C11.453 109.645 28.288 102.312 33.9902 96.3363C36.1624 94.3807 40.7785 91.9905 42.9507 91.9905V76.5086M68.4747 76.5086C73.9054 74.6073 80.6936 67.8713 69.8324 61.5698V56.1375C68.8368 55.6849 67.0627 54.6165 67.9316 53.9646H74.9915V51.5201H65.2163L71.19 1H39.4208L45.123 51.5201H35.6194V53.9646H42.9507C43.9463 53.9646 45.3402 54.3992 42.9507 56.1375V61.5698C34.8048 63.1995 32.6325 72.706 42.9507 76.5086M68.4747 76.5086C67.3886 81.9408 66.212 80.4017 65.7594 78.9531L65.2163 65.3724C64.7638 65.8251 63.0441 66.7305 59.7857 66.7305C56.5273 66.7305 56.4368 61.1171 56.7989 58.3105C56.7989 61.8414 63.8587 61.5698 63.8587 58.3105V53.693H48.3814V58.3105C48.3814 61.5698 54.6266 61.5698 54.6266 58.3105C55.0792 61.2982 55.224 67.1651 52.1828 66.7305L46.7522 65.3724L46.2091 78.9531C45.7566 80.4017 44.4713 81.9408 42.9507 76.5086M133.897 275.507V266L120 226.5L71.1901 208.241L72.5477 214.488H37.2486L47.5668 165.869V128.93L9.55237 115.349C4.12169 116.436 -4.78451 109.7 6.29399 107.744C7.47061 105.209 10.6385 101.66 13.8968 107.744C17.1552 107.654 22.26 108.559 16.6121 112.905C15.707 113.357 14.7657 114.371 18.2413 114.806L47.5668 124.041V107.744C50.5536 112.905 58.591 114.48 63.5871 107.744V139.251L90.4688 155.548C91.1024 156.091 92.098 156.254 91.0119 152.56C89.6542 147.943 104.045 152.56 102.688 156.363C101.33 160.166 106.568 162.1 103.502 164.783C99.1578 168.586 94.8133 161.524 91.5549 163.153C86.6673 165.598 91.6092 160.491 88.5681 159.622L63.5871 144.684V165.869L69.5608 199.549L124.5 221.5L141.5 266C144.125 268.988 152.144 274.746 163.223 273.877C161.865 274.963 154.099 276.81 133.897 275.507ZM51.3682 105.3C51.5492 104.213 52.6716 102.095 55.7127 102.312C58.7539 102.529 59.3332 104.394 59.2426 105.3C59.3332 106.567 58.6996 109.102 55.4412 109.102C52.1828 109.102 51.3682 106.567 51.3682 105.3ZM60.1688 57.6612C59.8788 57.6612 59.2987 57.8355 59.2987 58.5329C59.2987 59.2303 59.8788 59.4046 60.1688 59.4046C60.4589 59.4046 61.039 59.2303 61.039 58.5329C61.039 57.8355 60.4589 57.6612 60.1688 57.6612ZM51.4675 59.4046C51.7576 59.4046 52.3377 59.2303 52.3377 58.5329C52.3377 57.8355 51.7576 57.6612 51.4675 57.6612C51.1775 57.6612 50.5974 57.8355 50.5974 58.5329C50.5974 59.2303 51.1775 59.4046 51.4675 59.4046Z" stroke="white"/>
</svg>
