<svg width="39" height="11" viewBox="0 0 39 11" fill="none" xmlns="http://www.w3.org/2000/svg">
<rect x="0.5" y="0.5" width="38" height="10" fill="#FBDA00" stroke="black"/>
<path d="M10.3438 5.42969H8.89453L8.88672 4.71484H10.1523C10.3659 4.71484 10.5469 4.68359 10.6953 4.62109C10.8464 4.55599 10.9609 4.46354 11.0391 4.34375C11.1172 4.22135 11.1562 4.07422 11.1562 3.90234C11.1562 3.71224 11.1198 3.55729 11.0469 3.4375C10.974 3.31771 10.862 3.23047 10.7109 3.17578C10.5625 3.12109 10.3724 3.09375 10.1406 3.09375H9.19141V8H8.21094V2.3125H10.1406C10.4531 2.3125 10.7318 2.34245 10.9766 2.40234C11.224 2.46224 11.4336 2.55599 11.6055 2.68359C11.7799 2.80859 11.9115 2.96745 12 3.16016C12.0911 3.35286 12.1367 3.58203 12.1367 3.84766C12.1367 4.08203 12.0807 4.29688 11.9688 4.49219C11.8568 4.6849 11.6914 4.84245 11.4727 4.96484C11.2539 5.08724 10.9818 5.16016 10.6562 5.18359L10.3438 5.42969ZM10.3008 8H8.58594L9.02734 7.22266H10.3008C10.5221 7.22266 10.707 7.1862 10.8555 7.11328C11.0039 7.03776 11.1146 6.9349 11.1875 6.80469C11.263 6.67188 11.3008 6.51693 11.3008 6.33984C11.3008 6.15495 11.2682 5.99479 11.2031 5.85938C11.138 5.72135 11.0352 5.61589 10.8945 5.54297C10.7539 5.46745 10.5703 5.42969 10.3438 5.42969H9.24219L9.25 4.71484H10.6836L10.9062 4.98438C11.2188 4.99479 11.4753 5.0638 11.6758 5.19141C11.8789 5.31901 12.0299 5.48438 12.1289 5.6875C12.2279 5.89062 12.2773 6.10938 12.2773 6.34375C12.2773 6.70573 12.1979 7.00911 12.0391 7.25391C11.8828 7.4987 11.6576 7.6849 11.3633 7.8125C11.069 7.9375 10.7148 8 10.3008 8ZM15.7148 7.00391V3.77344H16.6602V8H15.7695L15.7148 7.00391ZM15.8477 6.125L16.1641 6.11719C16.1641 6.40104 16.1328 6.66276 16.0703 6.90234C16.0078 7.13932 15.9115 7.34635 15.7812 7.52344C15.651 7.69792 15.4844 7.83464 15.2812 7.93359C15.0781 8.02995 14.8346 8.07812 14.5508 8.07812C14.3451 8.07812 14.1562 8.04818 13.9844 7.98828C13.8125 7.92839 13.6641 7.83594 13.5391 7.71094C13.4167 7.58594 13.3216 7.42318 13.2539 7.22266C13.1862 7.02214 13.1523 6.78255 13.1523 6.50391V3.77344H14.0938V6.51172C14.0938 6.66536 14.112 6.79427 14.1484 6.89844C14.1849 7 14.2344 7.08203 14.2969 7.14453C14.3594 7.20703 14.4323 7.2513 14.5156 7.27734C14.599 7.30339 14.6875 7.31641 14.7812 7.31641C15.0495 7.31641 15.2604 7.26432 15.4141 7.16016C15.5703 7.05339 15.681 6.91016 15.7461 6.73047C15.8138 6.55078 15.8477 6.34896 15.8477 6.125ZM19.5625 3.77344V4.46094H17.1797V3.77344H19.5625ZM17.8672 2.73828H18.8086V6.83203C18.8086 6.96224 18.8268 7.0625 18.8633 7.13281C18.9023 7.20052 18.9557 7.24609 19.0234 7.26953C19.0911 7.29297 19.1706 7.30469 19.2617 7.30469C19.3268 7.30469 19.3893 7.30078 19.4492 7.29297C19.5091 7.28516 19.5573 7.27734 19.5938 7.26953L19.5977 7.98828C19.5195 8.01172 19.4284 8.03255 19.3242 8.05078C19.2227 8.06901 19.1055 8.07812 18.9727 8.07812C18.7565 8.07812 18.5651 8.04036 18.3984 7.96484C18.2318 7.88672 18.1016 7.76042 18.0078 7.58594C17.9141 7.41146 17.8672 7.17969 17.8672 6.89062V2.73828ZM22.2266 3.77344V4.46094H19.8438V3.77344H22.2266ZM20.5312 2.73828H21.4727V6.83203C21.4727 6.96224 21.4909 7.0625 21.5273 7.13281C21.5664 7.20052 21.6198 7.24609 21.6875 7.26953C21.7552 7.29297 21.8346 7.30469 21.9258 7.30469C21.9909 7.30469 22.0534 7.30078 22.1133 7.29297C22.1732 7.28516 22.2214 7.27734 22.2578 7.26953L22.2617 7.98828C22.1836 8.01172 22.0924 8.03255 21.9883 8.05078C21.8867 8.06901 21.7695 8.07812 21.6367 8.07812C21.4206 8.07812 21.2292 8.04036 21.0625 7.96484C20.8958 7.88672 20.7656 7.76042 20.6719 7.58594C20.5781 7.41146 20.5312 7.17969 20.5312 6.89062V2.73828ZM22.6797 5.93359V5.84375C22.6797 5.53906 22.724 5.25651 22.8125 4.99609C22.901 4.73307 23.0286 4.50521 23.1953 4.3125C23.3646 4.11719 23.5703 3.96615 23.8125 3.85938C24.0573 3.75 24.3333 3.69531 24.6406 3.69531C24.9505 3.69531 25.2266 3.75 25.4688 3.85938C25.7135 3.96615 25.9206 4.11719 26.0898 4.3125C26.2591 4.50521 26.388 4.73307 26.4766 4.99609C26.5651 5.25651 26.6094 5.53906 26.6094 5.84375V5.93359C26.6094 6.23828 26.5651 6.52083 26.4766 6.78125C26.388 7.04167 26.2591 7.26953 26.0898 7.46484C25.9206 7.65755 25.7148 7.80859 25.4727 7.91797C25.2305 8.02474 24.9557 8.07812 24.6484 8.07812C24.3385 8.07812 24.0612 8.02474 23.8164 7.91797C23.5742 7.80859 23.3685 7.65755 23.1992 7.46484C23.0299 7.26953 22.901 7.04167 22.8125 6.78125C22.724 6.52083 22.6797 6.23828 22.6797 5.93359ZM23.6211 5.84375V5.93359C23.6211 6.1237 23.6406 6.30339 23.6797 6.47266C23.7188 6.64193 23.7799 6.79036 23.8633 6.91797C23.9466 7.04557 24.0534 7.14583 24.1836 7.21875C24.3138 7.29167 24.4688 7.32812 24.6484 7.32812C24.8229 7.32812 24.974 7.29167 25.1016 7.21875C25.2318 7.14583 25.3385 7.04557 25.4219 6.91797C25.5052 6.79036 25.5664 6.64193 25.6055 6.47266C25.6471 6.30339 25.668 6.1237 25.668 5.93359V5.84375C25.668 5.65625 25.6471 5.47917 25.6055 5.3125C25.5664 5.14323 25.5039 4.99349 25.418 4.86328C25.3346 4.73307 25.2279 4.63151 25.0977 4.55859C24.9701 4.48307 24.8177 4.44531 24.6406 4.44531C24.4635 4.44531 24.3099 4.48307 24.1797 4.55859C24.0521 4.63151 23.9466 4.73307 23.8633 4.86328C23.7799 4.99349 23.7188 5.14323 23.6797 5.3125C23.6406 5.47917 23.6211 5.65625 23.6211 5.84375ZM28.332 4.67578V8H27.3906V3.77344H28.2773L28.332 4.67578ZM28.1641 5.73047L27.8594 5.72656C27.862 5.42708 27.9036 5.15234 27.9844 4.90234C28.0677 4.65234 28.1823 4.4375 28.3281 4.25781C28.4766 4.07812 28.6536 3.9401 28.8594 3.84375C29.0651 3.74479 29.2943 3.69531 29.5469 3.69531C29.75 3.69531 29.9336 3.72396 30.0977 3.78125C30.2643 3.83594 30.4062 3.92578 30.5234 4.05078C30.6432 4.17578 30.7344 4.33854 30.7969 4.53906C30.8594 4.73698 30.8906 4.98047 30.8906 5.26953V8H29.9453V5.26562C29.9453 5.0625 29.9154 4.90234 29.8555 4.78516C29.7982 4.66536 29.7135 4.58073 29.6016 4.53125C29.4922 4.47917 29.3555 4.45312 29.1914 4.45312C29.0299 4.45312 28.8854 4.48698 28.7578 4.55469C28.6302 4.6224 28.5221 4.71484 28.4336 4.83203C28.3477 4.94922 28.2812 5.08464 28.2344 5.23828C28.1875 5.39193 28.1641 5.55599 28.1641 5.73047Z" fill="black"/>
</svg>
