<svg width="72" height="84" viewBox="0 0 72 84" fill="none" xmlns="http://www.w3.org/2000/svg">
<path d="M63.5 50.3817L24 27.3817L1 41.3817L16.5 50.2108L24 45.8817L47 60.0665L63.5 50.3817Z" fill="#494949"/>
<path d="M24 45.8817L16.5 50.2108L28.5 57.0463L40.5 63.8817L47 60.0665L24 45.8817Z" fill="black"/>
<path d="M47 60.0665L40.5 63.8817V83.3813L63.5 69.8813V50.3817L47 60.0665Z" fill="#0C133E"/>
<path d="M63.5 28.3817V50.3817L69.5 47.3815C70 46.8813 70.8142 45.8817 70.8142 44.3815V23.4594C70.7318 24.2876 70.2856 24.9889 69.5 25.3817L63.5 28.3817Z" fill="#0C133E"/>
<path d="M24 5.38173L63.5 28.3817L69.5 25.3817C70.2856 24.9889 70.7318 24.2876 70.8142 23.4594V22.8815C70.7048 21.7249 69.952 20.4189 68.5 19.3817L37.5 1.88173C34.5 0.381499 31.5 1.08173 29.5 1.88173L24 5.38173Z" fill="#0C133E"/>
<path d="M24 27.3817L63.5 50.3817V28.3817L24 5.38173V27.3817Z" fill="#626262"/>
<path fill-rule="evenodd" clip-rule="evenodd" d="M1 41.3817L16.5 50.2108L28.5 57.0463L40.5 63.8817V83.3813L1 60.8813V41.3817ZM24 58.8813L19.5 56.3813V57.3813L24 59.8813V58.8813Z" fill="#0C133E"/>
<path d="M19.5 56.3813L24 58.8813V59.8813L19.5 57.3813V56.3813Z" fill="white"/>
<path d="M1 41.3817L0.740027 40.9546L0.5 41.1007V41.3817H1ZM24 45.8817L24.2625 45.4562L24.0085 45.2995L23.75 45.4487L24 45.8817ZM47 60.0665L47.2531 60.4977L47.2531 60.4977L47 60.0665ZM24 5.38173L23.7316 4.9599C23.5873 5.05168 23.5 5.21078 23.5 5.38173H24ZM69.5 25.3817L69.2764 24.9345L69.2764 24.9345L69.5 25.3817ZM68.5 19.3817L68.7906 18.9749L68.769 18.9594L68.7458 18.9463L68.5 19.3817ZM37.5 1.88173L37.7458 1.44632L37.7349 1.44015L37.7236 1.43453L37.5 1.88173ZM29.5 1.88173L29.3143 1.41749L29.271 1.43483L29.2316 1.4599L29.5 1.88173ZM70.8142 22.8815L71.312 22.8344L70.8142 22.8815ZM69.5 47.3815L69.7236 47.8287L69.7962 47.7924L69.8536 47.735L69.5 47.3815ZM63.5 69.8813L63.7531 70.3126L64 70.1676V69.8813H63.5ZM40.5 83.3813L40.2525 83.8158L40.5038 83.9589L40.7531 83.8126L40.5 83.3813ZM1 60.8813H0.5V61.172L0.752523 61.3158L1 60.8813ZM28.5 57.0463L28.2525 57.4807L28.2525 57.4807L28.5 57.0463ZM19.5 56.3813L19.7428 55.9443L19 55.5316V56.3813H19.5ZM24 58.8813H24.5V58.5871L24.2428 58.4443L24 58.8813ZM24 59.8813L23.7572 60.3184L24.5 60.7311V59.8813H24ZM19.5 57.3813H19V57.6755L19.2572 57.8184L19.5 57.3813ZM63.7516 49.9496L24.2516 26.9496L23.7484 27.8138L63.2484 50.8138L63.7516 49.9496ZM23.74 26.9546L0.740027 40.9546L1.25997 41.8088L24.26 27.8088L23.74 26.9546ZM0.752523 41.8162L16.2525 50.6453L16.7475 49.7764L1.24748 40.9473L0.752523 41.8162ZM16.75 50.6439L24.25 46.3148L23.75 45.4487L16.25 49.7778L16.75 50.6439ZM40.7531 64.3129L47.2531 60.4977L46.7469 59.6353L40.2469 63.4505L40.7531 64.3129ZM47.2531 60.4977L63.7531 50.8129L63.2469 49.9505L46.7469 59.6353L47.2531 60.4977ZM23.7375 46.3073L46.7375 60.4921L47.2625 59.6409L24.2625 45.4562L23.7375 46.3073ZM24.5 27.3817V5.38173H23.5V27.3817H24.5ZM23.7484 5.81382L63.2484 28.8138L63.7516 27.9496L24.2516 4.94964L23.7484 5.81382ZM63 28.3817V50.3817H64V28.3817H63ZM63.7236 28.8289L69.7236 25.8289L69.2764 24.9345L63.2764 27.9345L63.7236 28.8289ZM68.7458 18.9463L37.7458 1.44632L37.2542 2.31714L68.2542 19.8171L68.7458 18.9463ZM37.7236 1.43453C34.5353 -0.159877 31.3673 0.596278 29.3143 1.41749L29.6857 2.34597C31.6327 1.56718 34.4647 0.922875 37.2764 2.32893L37.7236 1.43453ZM29.2316 1.4599L23.7316 4.9599L24.2684 5.80356L29.7684 2.30356L29.2316 1.4599ZM71.312 22.8344C71.1859 21.5019 70.332 20.0758 68.7906 18.9749L68.2094 19.7886C69.572 20.7619 70.2237 21.9479 70.3165 22.9286L71.312 22.8344ZM70.3142 44.3815C70.3142 45.6878 69.6075 46.5668 69.1464 47.028L69.8536 47.735C70.3925 47.1959 71.3142 46.0757 71.3142 44.3815H70.3142ZM69.2764 46.9343L63.2764 49.9345L63.7236 50.8289L69.7236 47.8287L69.2764 46.9343ZM63 50.3817V69.8813H64V50.3817H63ZM63.2469 69.4501L40.2469 82.9501L40.7531 83.8126L63.7531 70.3126L63.2469 69.4501ZM41 83.3813V63.8817H40V83.3813H41ZM40.7475 82.9469L1.24748 60.4469L0.752523 61.3158L40.2525 83.8158L40.7475 82.9469ZM1.5 60.8813V41.3817H0.5V60.8813H1.5ZM71.3142 44.3815V23.4594H70.3142V44.3815H71.3142ZM70.3167 23.4099C70.2503 24.0766 69.9002 24.6226 69.2764 24.9345L69.7236 25.8289C70.6709 25.3553 71.2132 24.4985 71.3118 23.509L70.3167 23.4099ZM70.3142 22.8815V23.4594H71.3142V22.8815H70.3142ZM71.3118 23.509C71.3337 23.2884 71.3336 23.0627 71.312 22.8344L70.3165 22.9286C70.3323 23.0957 70.332 23.2567 70.3167 23.4099L71.3118 23.509ZM16.2525 50.6453L28.2525 57.4807L28.7475 56.6118L16.7475 49.7764L16.2525 50.6453ZM28.2525 57.4807L40.2525 64.3162L40.7475 63.4473L28.7475 56.6118L28.2525 57.4807ZM19.2572 56.8184L23.7572 59.3184L24.2428 58.4443L19.7428 55.9443L19.2572 56.8184ZM23.5 58.8813V59.8813H24.5V58.8813H23.5ZM24.2428 59.4443L19.7428 56.9443L19.2572 57.8184L23.7572 60.3184L24.2428 59.4443ZM20 57.3813V56.3813H19V57.3813H20Z" fill="white"/>
<path d="M21.2773 39.4336L23.8594 40.4219V41.3477L20.5664 39.8945V39.2812L21.2773 39.4336ZM23.8594 38.625L21.2773 39.6289L20.5664 39.7656V39.1523L23.8594 37.7031V38.625ZM27.3516 36.3125L25.1367 42.4883H24.3984L26.6172 36.3125H27.3516ZM30.6406 39.5898L28.0117 38.6094V37.6992L31.3867 39.1484V39.7656L30.6406 39.5898ZM28.0117 40.4336L30.6484 39.4336L31.3867 39.2773V39.8906L28.0117 41.3438V40.4336Z" fill="black"/>
<path d="M23.2773 28.4336L25.8594 29.4219V30.3477L22.5664 28.8945V28.2812L23.2773 28.4336ZM25.8594 27.625L23.2773 28.6289L22.5664 28.7656V28.1523L25.8594 26.7031V27.625ZM29.3516 25.3125L27.1367 31.4883H26.3984L28.6172 25.3125H29.3516ZM32.6406 28.5898L30.0117 27.6094V26.6992L33.3867 28.1484V28.7656L32.6406 28.5898ZM30.0117 29.4336L32.6484 28.4336L33.3867 28.2773V28.8906L30.0117 30.3438V29.4336Z" fill="black"/>
<path d="M34.2773 36.4336L36.8594 37.4219V38.3477L33.5664 36.8945V36.2812L34.2773 36.4336ZM36.8594 35.625L34.2773 36.6289L33.5664 36.7656V36.1523L36.8594 34.7031V35.625ZM40.3516 33.3125L38.1367 39.4883H37.3984L39.6172 33.3125H40.3516ZM43.6406 36.5898L41.0117 35.6094V34.6992L44.3867 36.1484V36.7656L43.6406 36.5898ZM41.0117 37.4336L43.6484 36.4336L44.3867 36.2773V36.8906L41.0117 38.3438V37.4336Z" fill="black"/>
<path d="M37.2773 44.4336L39.8594 45.4219V46.3477L36.5664 44.8945V44.2812L37.2773 44.4336ZM39.8594 43.625L37.2773 44.6289L36.5664 44.7656V44.1523L39.8594 42.7031V43.625ZM43.3516 41.3125L41.1367 47.4883H40.3984L42.6172 41.3125H43.3516ZM46.6406 44.5898L44.0117 43.6094V42.6992L47.3867 44.1484V44.7656L46.6406 44.5898ZM44.0117 45.4336L46.6484 44.4336L47.3867 44.2773V44.8906L44.0117 46.3438V45.4336Z" fill="black"/>
<path d="M34.2773 55.4336L36.8594 56.4219V57.3477L33.5664 55.8945V55.2812L34.2773 55.4336ZM36.8594 54.625L34.2773 55.6289L33.5664 55.7656V55.1523L36.8594 53.7031V54.625ZM40.3516 52.3125L38.1367 58.4883H37.3984L39.6172 52.3125H40.3516ZM43.6406 55.5898L41.0117 54.6094V53.6992L44.3867 55.1484V55.7656L43.6406 55.5898ZM41.0117 56.4336L43.6484 55.4336L44.3867 55.2773V55.8906L41.0117 57.3438V56.4336Z" fill="black"/>
<path d="M19.2773 48.4336L21.8594 49.4219V50.3477L18.5664 48.8945V48.2812L19.2773 48.4336ZM21.8594 47.625L19.2773 48.6289L18.5664 48.7656V48.1523L21.8594 46.7031V47.625ZM25.3516 45.3125L23.1367 51.4883H22.3984L24.6172 45.3125H25.3516ZM28.6406 48.5898L26.0117 47.6094V46.6992L29.3867 48.1484V48.7656L28.6406 48.5898ZM26.0117 49.4336L28.6484 48.4336L29.3867 48.2773V48.8906L26.0117 50.3438V49.4336Z" fill="black"/>
<path d="M8.27734 39.4336L10.8594 40.4219V41.3477L7.56641 39.8945V39.2812L8.27734 39.4336ZM10.8594 38.625L8.27734 39.6289L7.56641 39.7656V39.1523L10.8594 37.7031V38.625ZM14.3516 36.3125L12.1367 42.4883H11.3984L13.6172 36.3125H14.3516ZM17.6406 39.5898L15.0117 38.6094V37.6992L18.3867 39.1484V39.7656L17.6406 39.5898ZM15.0117 40.4336L17.6484 39.4336L18.3867 39.2773V39.8906L15.0117 41.3438V40.4336Z" fill="black"/>
<path d="M16.2773 34.4336L18.8594 35.4219V36.3477L15.5664 34.8945V34.2812L16.2773 34.4336ZM18.8594 33.625L16.2773 34.6289L15.5664 34.7656V34.1523L18.8594 32.7031V33.625ZM22.3516 31.3125L20.1367 37.4883H19.3984L21.6172 31.3125H22.3516ZM25.6406 34.5898L23.0117 33.6094V32.6992L26.3867 34.1484V34.7656L25.6406 34.5898ZM23.0117 35.4336L25.6484 34.4336L26.3867 34.2773V34.8906L23.0117 36.3438V35.4336Z" fill="black"/>
<path d="M27.2773 43.4336L29.8594 44.4219V45.3477L26.5664 43.8945V43.2812L27.2773 43.4336ZM29.8594 42.625L27.2773 43.6289L26.5664 43.7656V43.1523L29.8594 41.7031V42.625ZM33.3516 40.3125L31.1367 46.4883H30.3984L32.6172 40.3125H33.3516ZM36.6406 43.5898L34.0117 42.6094V41.6992L37.3867 43.1484V43.7656L36.6406 43.5898ZM34.0117 44.4336L36.6484 43.4336L37.3867 43.2773V43.8906L34.0117 45.3438V44.4336Z" fill="black"/>
<path d="M45.2773 54.4336L47.8594 55.4219V56.3477L44.5664 54.8945V54.2812L45.2773 54.4336ZM47.8594 53.625L45.2773 54.6289L44.5664 54.7656V54.1523L47.8594 52.7031V53.625ZM51.3516 51.3125L49.1367 57.4883H48.3984L50.6172 51.3125H51.3516ZM54.6406 54.5898L52.0117 53.6094V52.6992L55.3867 54.1484V54.7656L54.6406 54.5898ZM52.0117 55.4336L54.6484 54.4336L55.3867 54.2773V54.8906L52.0117 56.3438V55.4336Z" fill="black"/>
<path d="M32.2773 50.4336L34.8594 51.4219V52.3477L31.5664 50.8945V50.2812L32.2773 50.4336ZM34.8594 49.625L32.2773 50.6289L31.5664 50.7656V50.1523L34.8594 48.7031V49.625ZM38.3516 47.3125L36.1367 53.4883H35.3984L37.6172 47.3125H38.3516ZM41.6406 50.5898L39.0117 49.6094V48.6992L42.3867 50.1484V50.7656L41.6406 50.5898ZM39.0117 51.4336L41.6484 50.4336L42.3867 50.2773V50.8906L39.0117 52.3438V51.4336Z" fill="black"/>
<path d="M13.2773 44.4336L15.8594 45.4219V46.3477L12.5664 44.8945V44.2812L13.2773 44.4336ZM15.8594 43.625L13.2773 44.6289L12.5664 44.7656V44.1523L15.8594 42.7031V43.625ZM19.3516 41.3125L17.1367 47.4883H16.3984L18.6172 41.3125H19.3516ZM22.6406 44.5898L20.0117 43.6094V42.6992L23.3867 44.1484V44.7656L22.6406 44.5898ZM20.0117 45.4336L22.6484 44.4336L23.3867 44.2773V44.8906L20.0117 46.3438V45.4336Z" fill="black"/>
<path d="M50.2773 44.4336L52.8594 45.4219V46.3477L49.5664 44.8945V44.2812L50.2773 44.4336ZM52.8594 43.625L50.2773 44.6289L49.5664 44.7656V44.1523L52.8594 42.7031V43.625ZM56.3516 41.3125L54.1367 47.4883H53.3984L55.6172 41.3125H56.3516ZM59.6406 44.5898L57.0117 43.6094V42.6992L60.3867 44.1484V44.7656L59.6406 44.5898ZM57.0117 45.4336L59.6484 44.4336L60.3867 44.2773V44.8906L57.0117 46.3438V45.4336Z" fill="black"/>
</svg>
