<svg width="530" height="250" viewBox="0 0 530 250" fill="none" xmlns="http://www.w3.org/2000/svg">
<path d="M378.119 65.0134C370.022 65.0134 363.459 58.4501 363.459 50.3539C363.459 42.2577 370.022 35.6943 378.119 35.6943C386.215 35.6943 392.778 42.2577 392.778 50.3539C392.778 58.4501 386.215 65.0134 378.119 65.0134Z" fill="url(#paint0_linear_476_92)" stroke="#AA882F" stroke-width="6"/>
<path d="M377.757 61.7003C382.022 61.7003 385.842 56.6224 385.842 50.357C385.842 44.0916 381.117 39.0137 377.757 39.0137C384.021 39.0137 389.1 44.0923 389.1 50.357C389.1 56.6216 384.017 61.7031 377.754 61.7031L377.757 61.7003Z" fill="#CE9132"/>
<path d="M330.46 101.228C341.071 81.354 358.623 69.9043 378.477 69.9043C398.332 69.9043 415.882 81.3533 426.493 101.228H330.46H330.46Z" fill="url(#paint1_linear_476_92)" stroke="#AA882F" stroke-width="6" stroke-linecap="round" stroke-linejoin="round"/>
<path d="M494.186 166.345C498.332 168.084 501.514 172.264 501.514 177.011C501.514 183.34 496.341 188.47 489.961 188.47C483.581 188.47 478.409 183.34 478.409 177.011C478.409 172.792 481.329 169.904 484.128 167.117C492.382 158.895 516.047 138.748 516.047 125.07C516.047 112.003 509.013 102.335 497.693 102.335C490.164 102.335 485.511 106.761 481.948 113.743C488.099 113.743 493.087 118.69 493.087 124.793C493.087 130.895 488.099 135.842 481.948 135.842C475.796 135.842 471.511 130.856 470.809 124.793C468.262 102.796 483.066 92.1689 498.904 92.1689C514.42 92.1689 526.999 106.775 526.999 124.793C526.999 144.478 501.885 156.925 494.186 166.344L494.186 166.345Z" fill="url(#paint2_linear_476_92)" stroke="#AA882F" stroke-width="6" stroke-linecap="round" stroke-linejoin="round"/>
<path d="M491.675 149.066C459.333 146.17 423.371 115.035 423.371 108.036H332.862C332.862 115.035 296.9 146.17 264.559 149.066H491.671H491.675Z" fill="url(#paint3_linear_476_92)" stroke="#AA882F" stroke-width="6" stroke-linecap="round" stroke-linejoin="round"/>
<path d="M268.248 155.801C284.825 195.564 327.76 223.892 378.119 223.892C428.474 223.892 471.408 195.564 487.989 155.801H268.248Z" fill="url(#paint4_linear_476_92)" stroke="#AA882F" stroke-width="6" stroke-linecap="round" stroke-linejoin="round"/>
<path d="M442.344 163.497C429.517 194.265 418.534 216.186 379.569 216.186C418.534 216.186 461.288 194.266 474.118 163.497H442.346H442.344Z" fill="#CE9132"/>
<path d="M342.639 246.577C338.04 246.577 334.312 242.85 334.312 238.251C334.312 233.651 338.04 229.924 342.639 229.924H413.598C418.197 229.924 421.925 233.651 421.925 238.251C421.925 242.85 418.197 246.577 413.598 246.577H342.639Z" fill="url(#paint5_linear_476_92)" stroke="#AA882F" stroke-width="6" stroke-linecap="round" stroke-linejoin="round"/>
<path d="M403.678 233.124C404.35 233.124 407.193 235.421 407.193 238.255C407.193 241.088 404.234 243.386 403.678 243.386H411.274C414.815 243.386 417.685 241.088 417.685 238.255C417.685 235.421 414.814 233.124 411.274 233.124H403.679H403.678Z" fill="#CE9132"/>
<path d="M197.282 124.755C211.3 146.116 258.757 192.094 311.323 206.575C216.412 206.575 182.828 165.303 158.297 148.288C133.766 131.272 126.173 128.374 117.996 124.755H197.282Z" fill="url(#paint6_linear_476_92)" stroke="#AB892C" stroke-width="6" stroke-linecap="round" stroke-linejoin="round"/>
<path d="M379.567 73.6338C394.931 73.6338 411.045 82.6738 419.256 98.0523H405.861C400.068 83.694 391.314 73.6367 379.57 73.6367L379.567 73.6338Z" fill="#CD912A"/>
<path d="M432.446 144.447C422.272 144.447 408.736 119.201 408.736 113.784H419.974C419.974 119.2 443.897 144.447 459.07 144.447H432.446Z" fill="#CE9132"/>
<path d="M509.329 97.2373C517.557 102.495 520.809 112.689 520.809 124.982C520.809 136.144 515.448 144.984 507.449 152.267C515.449 144.988 524.103 136.146 524.103 124.984C524.103 112.692 517.558 102.497 509.329 97.2384L509.329 97.2373Z" fill="#CE9132"/>
<path d="M490.795 185.575C494.063 185.575 496.988 181.847 496.988 177.248C496.988 172.649 493.369 168.921 490.795 168.921C495.594 168.921 499.484 172.649 499.484 177.248C499.484 181.847 495.594 185.574 490.796 185.574L490.795 185.575Z" fill="#CE9132"/>
<path d="M482.107 132.717C485.374 132.717 488.3 128.99 488.3 124.39C488.3 119.791 484.68 116.063 482.107 116.063C486.906 116.063 490.796 119.791 490.796 124.39C490.796 128.99 486.909 132.717 482.107 132.717L482.107 132.717Z" fill="#CE9132"/>
<path d="M378.119 61.7003C373.853 61.7003 370.033 56.6224 370.033 50.357C370.033 44.0916 374.758 39.0137 378.119 39.0137C371.854 39.0137 366.775 44.0923 366.775 50.357C366.775 56.6216 371.858 61.7031 378.121 61.7031L378.119 61.7003Z" fill="#F2DD9B"/>
<path d="M481.383 176.886C481.383 181.684 484.948 185.575 489.347 185.575C486.063 185.575 481.421 180.159 481.421 176.886H481.383Z" fill="#F2DD9B"/>
<path d="M316.79 163.497C329.617 194.265 340.599 216.186 379.565 216.186C340.599 216.186 297.839 194.266 285.016 163.497H316.788H316.79Z" fill="#F2DD9B"/>
<path d="M355.455 233.124C354.783 233.124 351.94 235.421 351.94 238.255C351.94 241.088 354.9 243.386 355.455 243.386H347.858C344.318 243.386 341.447 241.088 341.447 238.255C341.447 235.421 344.318 233.124 347.858 233.124H355.454H355.455Z" fill="#F2DD9B"/>
<path d="M379.567 73.6338C364.203 73.6338 348.089 82.6738 339.877 98.0523H353.272C359.072 83.694 367.826 73.6367 379.57 73.6367L379.567 73.6338Z" fill="#F2DD9B"/>
<path d="M326.688 144.447C336.862 144.447 350.398 119.201 350.398 113.784H339.161C339.161 119.2 315.237 144.447 300.064 144.447H326.688Z" fill="#F2DD9B"/>
<path d="M495.864 95.0654C485.671 95.0654 471.927 106.294 473.628 121.132C471.672 104.058 483.697 95.0665 495.864 95.0665L495.864 95.0654Z" fill="#F2DD9B"/>
<path d="M175.56 133.99C192.805 154.201 225.802 188.436 272.585 196.984C238.166 188.977 195.928 147.293 185.588 133.99H175.56Z" fill="#CE9132"/>
<path d="M164.283 130.548H144.062C162.503 139.175 171.577 150.822 171.577 150.822C169.177 141.361 159.049 138.544 164.283 130.548Z" fill="#F2DD9B"/>
<path d="M97.7541 21.6753C85.9471 85.3875 -151.436 43.3506 159.529 124C-30.4573 50.5757 277.905 111.661 295 21.6753C295 13.7934 295 7 286 0H31.3474C66.5889 5.78008 94.4667 8.53875 97.7541 21.6753Z" fill="url(#paint7_radial_476_92)"/>
<defs>
<linearGradient id="paint0_linear_476_92" x1="392.781" y1="50.3538" x2="363.456" y2="50.3538" gradientUnits="userSpaceOnUse">
<stop stop-color="#E4A039"/>
<stop offset="1" stop-color="#EDCD4D"/>
</linearGradient>
<linearGradient id="paint1_linear_476_92" x1="426.494" y1="85.566" x2="330.468" y2="85.566" gradientUnits="userSpaceOnUse">
<stop stop-color="#E4A039"/>
<stop offset="1" stop-color="#EDCD4D"/>
</linearGradient>
<linearGradient id="paint2_linear_476_92" x1="521.735" y1="147.355" x2="465.965" y2="132.291" gradientUnits="userSpaceOnUse">
<stop stop-color="#E4A039"/>
<stop offset="1" stop-color="#EDCD4D"/>
</linearGradient>
<linearGradient id="paint3_linear_476_92" x1="491.675" y1="128.553" x2="264.563" y2="128.553" gradientUnits="userSpaceOnUse">
<stop stop-color="#E4A039"/>
<stop offset="1" stop-color="#EDCD4D"/>
</linearGradient>
<linearGradient id="paint4_linear_476_92" x1="487.989" y1="189.847" x2="268.248" y2="189.847" gradientUnits="userSpaceOnUse">
<stop stop-color="#E4A039"/>
<stop offset="1" stop-color="#EDCD4D"/>
</linearGradient>
<linearGradient id="paint5_linear_476_92" x1="421.925" y1="238.251" x2="334.312" y2="238.251" gradientUnits="userSpaceOnUse">
<stop stop-color="#E4A039"/>
<stop offset="1" stop-color="#EDCD4D"/>
</linearGradient>
<linearGradient id="paint6_linear_476_92" x1="288.346" y1="153.429" x2="155.259" y2="210.952" gradientUnits="userSpaceOnUse">
<stop stop-color="#E4A039"/>
<stop offset="1" stop-color="#EDCD4D"/>
</linearGradient>
<radialGradient id="paint7_radial_476_92" cx="0" cy="0" r="1" gradientUnits="userSpaceOnUse" gradientTransform="translate(164.818 1.85556e-06) rotate(97.9505) scale(125.203 552.216)">
<stop offset="0.149718"/>
<stop offset="1" stop-color="#D9D9D9"/>
</radialGradient>
</defs>
</svg>
