<svg width="637" height="587" viewBox="0 0 637 587" fill="none" xmlns="http://www.w3.org/2000/svg">
<path d="M636 436.957C602.001 381.729 540.024 296.055 525.504 261.361C512.99 231.505 486.759 171.297 481.943 169.315C477.126 167.332 478.519 163.297 479.818 161.526C480.408 160.582 482.368 160.181 485.484 166.129C489.38 173.563 506.025 182.768 507.442 182.768C508.858 182.768 508.504 148.073 509.921 156.57C511.054 163.367 512.046 175.215 512.4 180.29C512.282 181.588 512.683 184.042 515.233 183.476C517.783 182.909 523.851 185.836 526.566 187.37C531.878 190.438 543.707 196.575 548.524 196.575C553.34 196.575 559.503 199.171 561.982 200.469C564.343 201.767 567.294 201.46 560.211 189.848C551.357 175.333 547.107 165.775 544.274 165.421C541.441 165.067 528.691 165.067 532.941 162.942C537.191 160.818 548.524 157.632 544.982 156.57C541.441 155.508 520.545 142.763 514.525 140.639C508.504 138.515 467.949 125.013 489.734 125.416C527.983 126.124 546.045 154.092 544.274 139.577C543.92 129.546 543.991 112.884 547.107 126.478C551.003 143.471 557.023 153.384 556.315 144.179C555.607 134.975 564.107 143.471 567.294 145.595C570.481 147.719 577.21 149.844 594.918 147.719C612.626 145.595 634.938 143.471 629.979 137.807C625.021 132.142 614.751 121.876 597.043 115.149C579.335 108.423 569.065 102.405 556.315 102.405C543.566 102.405 481.588 109.485 491.859 100.988C502.129 92.4919 511.692 85.4114 507.796 81.8711C503.9 78.3309 493.276 76.2067 505.671 75.8527C518.066 75.4987 522.191 77.5839 525.504 71.9585C551.357 28.0593 587.481 -0.262278 569.065 1.15381C526.92 -1.32466 490.513 26.8556 493.63 34.7857C497.643 42.3382 503.9 55.9563 496.817 50.0087C487.963 42.5742 486.216 34.7605 481.234 40.0961C451.485 71.9585 456.089 108.423 449.714 88.9513C446.763 77.0325 435.815 52.9602 422.445 42.2202C402.612 26.2892 392.695 25.9351 381.008 26.2892C370.03 26.6432 365.78 24.165 370.03 28.7673C374.279 33.3696 390.571 61.6915 401.195 64.5237C411.82 67.3559 416.778 52.8409 408.278 69.48C407.334 71.3681 408.156 73.7218 410.757 77.6225C417.132 87.1812 448.652 98.8639 425.278 94.9697C402.612 92.1375 387.737 91.4294 387.737 95.6777C387.737 102.05 389.579 109.555 385.612 104.174C383.133 99.69 378.175 92.7039 378.175 100.634C378.175 110.547 379.238 117.627 373.925 110.901C368.613 104.174 366.842 102.758 364.717 107.36C362.592 111.963 344.885 127.54 352.676 127.54M352.676 127.54C360.467 127.54 368.259 125.77 363.655 132.142C359.051 138.515 363.655 135.682 366.134 133.912C368.613 132.142 377.467 125.416 371.8 133.204C366.134 140.993 362.946 143.471 371.092 139.223C379.238 134.974 384.771 131.471 392.341 136.39M352.676 127.54C323.635 129.664 293.886 150.551 307.698 136.036C333.197 103.112 304.865 104.174 320.802 98.1559C328.121 93.6716 339.785 85.057 327.885 86.4731C313.011 88.2432 302.032 91.7835 313.011 85.411C323.989 79.0386 351.968 60.6294 337.093 62.3995C322.219 64.1697 323.989 61.3375 327.885 57.4432C331.781 53.549 364.717 14.2524 345.239 22.3949C325.76 30.5374 287.157 42.5742 288.22 50.7168C289.282 58.8593 292.47 79.0386 286.803 69.48C281.137 59.9214 272.637 56.0271 276.887 65.2317C281.137 74.4363 292.824 92.1375 282.553 79.3927C272.283 66.6478 274.462 70.4073 272.991 74.0823C266.616 90.0134 267.679 138.161 261.658 119.043C246.429 65.2317 219.868 79.3927 228.368 70.5421C233.798 67.1198 241.967 60.7002 231.201 62.3995C217.743 64.5237 214.201 67.3559 219.868 61.6915C225.534 56.0271 234.388 57.4432 228.368 50.7168C222.347 43.9903 217.349 27.9155 218.097 21.6869C219.16 12.8363 220.93 2.5696 211.722 16.7305C198.264 35.4938 190.827 57.6556 189.411 89.6593C188.348 92.8455 196.635 94.4032 198.619 96.3858C205.938 98.9819 215.76 102.971 196.494 98.1559C172.411 92.1375 222.701 114.795 203.577 109.839C184.452 104.882 186.931 107.006 193.306 114.795C199.681 122.583 282.553 150.551 237.93 143.117C225.062 141.819 195.714 142.904 181.265 157.632C176.071 162.352 167.292 167.476 179.14 164.712C200.389 159.756 207.118 162.588 187.994 167.898C168.87 171.439 154.703 185.954 165.328 181.351C171.821 177.693 179.848 180.735 170.64 184.892C159.661 189.848 138.766 217.462 152.578 207.549C157.773 203.301 166.886 197.353 161.786 207.549C155.412 220.294 150.154 254.91 158.953 237.995C163.557 229.145 194.369 221.356 194.723 209.673C194.841 196.692 199.663 174.331 198.973 190.202C198.264 206.487 198.973 211.443 202.868 200.469C205.82 185.954 211.439 162.942 210.306 187.016C210.306 193.388 208.677 199.336 216.326 193.388C265.554 153.738 253.867 164.571 246.784 176.749C234.388 193.388 233.68 205.779 225.888 209.673C220.34 214.394 212.006 222.418 223.055 216.754C236.867 209.673 264.137 183.476 238.284 210.735C228.25 220.884 211.51 238.986 224.826 230.207C241.471 219.232 244.659 216.046 236.159 227.02C227.659 237.995 219.868 240.119 229.076 241.535C236.159 240.827 233.68 244.934 233.68 250.032C233.68 257.525 234.752 266.437 236.258 274.814M392.341 136.39C399.424 140.993 451.839 117.627 430.236 134.266C410.757 152.321 410.12 155.012 413.236 157.278M392.341 136.39C395.458 142.338 407.57 152.793 413.236 157.278M413.236 157.278C417.25 159.52 422.515 163.792 411.466 162.942C408.31 162.699 405.906 162.874 404.028 163.393M597.043 445.453C589.96 416.423 511.692 322.253 495.755 250.386C486.405 214.134 469.193 180.29 457.152 162.942C453.185 153.03 452.594 160.464 451.839 165.066C448.298 186.662 445.819 189.14 441.923 195.512C438.027 201.885 438.736 201.177 438.381 207.195C438.027 213.213 441.569 211.443 427.403 205.779C416.07 201.247 421.736 207.431 425.986 211.089C429.292 213.685 435.123 220.86 432.007 228.79C428.89 236.721 413.945 256.64 406.862 265.609C402.329 275.805 401.195 274.814 395.883 263.839C391.987 258.174 381.008 246.492 382.071 220.648C382.408 212.443 390.216 210.027 398.716 204.717C407.216 199.407 400.487 201.885 383.133 208.965C369.25 214.63 389.626 203.065 401.549 196.574C414.016 190.344 396.591 194.45 384.904 195.512C377.821 196.645 380.772 193.388 386.675 188.078C398.503 177.436 394.529 166.016 404.028 163.393M567.294 228.79C561.982 252.156 546.257 242.81 548.524 252.156C548.524 257.348 544.416 264.405 527.983 251.094M494.338 254.634C478.047 252.156 485.13 268.087 470.964 265.609C456.089 265.609 478.543 288.125 462.11 294.639C439.09 302.781 478.401 321.545 449.36 332.165C440.506 333.581 427.757 332.803 433.423 346.68M558.086 450.055C560.329 441.913 561.557 418.335 548.524 389.163M538.253 453.949C538.725 447.813 537.828 432.212 530.462 418.901M522.316 458.198C522.198 444.155 518.775 409.13 506.025 381.375M525.504 512.009C514.879 445.453 465.651 394.119 427.049 352.345C389.626 312.93 313.861 224.755 310.177 187.37C310.177 176.749 301.961 161.951 314.427 170.731C333.197 178.165 344.885 178.519 344.176 172.147C342.524 160.818 340.422 141.418 345.239 154.446C351.259 170.731 352.322 180.997 354.093 168.961C355.863 156.924 354.093 160.11 357.988 166.128C361.884 172.147 360.113 171.439 366.134 171.085C372.154 170.731 385.258 171.085 396.591 165.066L404.028 163.393M473.443 518.028C468.89 460.969 443.86 413.861 410.355 368.984M384.196 336.068C305.219 336.068 321.581 334.006 330.364 330.041C337.911 327.445 354.389 319.35 359.924 307.738M384.196 336.068C376.317 326.635 368.187 317.216 359.924 307.738M384.196 336.068C393.311 346.981 402.091 357.915 410.355 368.984M359.924 307.738C355.518 302.684 351.074 297.614 346.609 292.515M346.609 292.515C344.857 290.513 343.101 288.507 341.343 286.496C325.76 267.379 305.219 238.349 291.761 197.99C287.511 178.873 284.442 201.885 282.553 209.673C280.287 219.019 278.248 216.754 274.762 206.133C267.325 183.476 272.991 213.567 274.054 221.71C275.116 229.853 273.699 236.579 265.908 216.754C259.675 200.893 264.019 221.474 266.97 233.747C267.325 238.585 266.545 252.085 260.596 267.379C254.646 282.673 254.575 269.503 255.283 261.007C256.443 248.54 250.003 252.218 247.049 277.292M346.609 292.515C340.604 292.043 328.381 292.302 327.531 297.117C326.469 303.135 324.698 308.8 321.864 298.887C319.031 288.974 317.615 293.931 317.26 298.887C316.906 303.843 318.677 314.818 314.781 302.781C314.073 297.117 311.665 300.445 307.698 305.26C297.428 314.11 293.532 317.509 294.949 322.607C297.074 337.122 291.549 327.492 289.282 321.545C285.387 309.508 282.837 305.826 279.72 310.924C277.595 315.526 273.77 321.969 275.47 310.924C277.595 297.117 275.116 300.303 272.283 305.968C269.45 311.632 267.543 322.906 268.741 310.924C270.512 293.223 270.512 290.745 266.616 288.974C261.009 286.26 249.245 280.124 247.049 277.292M247.049 277.292C246.396 282.835 245.914 289.425 245.721 297.117C246.48 313.294 240.017 295.723 236.258 274.814M236.258 274.814C229.076 273.397 229.926 273.61 229.076 277.292C228.25 285.67 225.959 298.604 223.409 283.31C220.222 264.193 226.951 269.503 218.805 269.857C194.015 270.935 181.619 267.733 190.473 274.814C202.868 286.142 209.597 298.533 212.431 303.135C213.493 308.092 214.839 307.808 217.389 308.092C240.763 307.03 241.613 308.658 235.097 310.924C225.652 313.166 210.376 317.792 224.826 318.358C242.888 319.066 256.346 319.774 242.18 322.607C236.041 323.669 227.115 323.195 237.576 326.855C272.991 339.246 274.054 343.14 263.075 342.786C223.764 338.538 201.452 351.991 208.889 354.469C213.965 356.947 221.993 361.549 213.493 360.133C202.868 358.363 193.66 356.947 203.577 361.195C213.493 365.443 217.389 366.86 206.764 364.381C198.264 362.399 189.529 368.276 186.223 371.462C161.432 394.473 156.757 398.297 167.807 398.014C192.598 397.378 209.172 398.014 225.888 389.517C227.305 388.797 227.376 363.178 229.076 373.94C229.784 385.269 230.917 392.42 234.034 384.207C236.159 376.064 238.496 364.098 239.346 377.126C239.924 385.977 238.284 386.331 244.659 385.269C249.263 381.375 268.033 382.083 261.304 378.542C258.471 377.48 254.788 375.144 262.721 374.294C272.637 373.232 290.699 359.779 280.074 372.524C269.45 385.269 234.742 430.23 251.033 422.795C264.491 416.654 271.22 418.193 264.491 422.087C246.429 431.646 249.617 435.398 249.617 440.496C250.325 445.807 247.492 452.887 252.45 448.285C255.519 445.217 260.525 441.204 255.992 449.701C254.457 451.235 251.86 455.466 252.804 460.322C255.283 473.067 251.388 494.662 258.471 486.519C268.387 473.303 289.495 443.683 294.595 430.938C295.657 428.932 296.79 424.211 292.824 421.379C287.866 417.839 277.949 409.342 288.574 413.237C299.199 417.131 299.199 419.255 297.782 414.299C296.365 409.342 290.699 405.448 298.49 406.156C306.282 406.864 306.282 408.28 305.928 401.908C305.573 395.535 304.655 373.238 310.177 385.977C320.081 408.824 334.583 425.163 349.26 438.372M404.383 498.556C402.338 475.62 375.519 462.006 349.26 438.372M433.777 494.662C393.404 430.938 354.447 439.434 321.864 376.418C316.906 368.276 320.944 364.381 328.593 364.381C339.218 364.381 348.284 365.656 351.968 367.922C360.822 375.356 358.697 372.666 358.697 366.152C357.87 357.891 357.422 344.485 362.238 356.947C368.259 372.524 367.905 382.437 368.967 369.692C370.03 356.947 368.528 349.205 372.154 359.779C376.404 372.17 373.571 375.356 378.883 373.586C384.99 371.462 399.833 367.568 410.355 368.984M376.404 428.814C388.446 419.963 394.82 413.237 394.82 407.218C397.3 399.784 404.028 408.28 400.133 398.722C399.542 394.945 400.629 386.048 409.695 380.666M452.902 477.315C451.769 466.836 448.652 460.204 447.235 458.198M441.923 483.687C441.451 477.315 437.319 458.622 424.569 434.832M381.363 490.768C383.606 489.116 385.754 483.262 376.404 473.067M368.967 500.326C369.321 495.488 367.125 482.2 355.509 467.756M353.738 497.494C353.03 482.979 341.343 468.464 339.218 475.899C339.218 481.917 328.948 484.041 325.76 477.315C322.927 468.818 329.373 465.632 328.239 461.384C327.767 456.073 328.806 445.594 336.739 446.161C338.982 446.869 343.255 447.294 342.405 443.329C341.556 439.364 346.621 438.372 349.26 438.372M197.91 577.503C214.556 577.503 231.697 579.203 239.346 577.503C251.742 577.503 252.804 569.007 266.97 570.423C276.887 564.759 282.907 569.715 294.595 565.821C293.532 564.641 296.082 562.634 314.781 564.051C333.481 565.467 330.836 559.684 327.177 556.616C324.226 554.02 321.347 546.54 333.552 547.411C343.468 548.12 344.53 541.747 356.572 545.641C365.78 550.952 360.113 542.809 372.154 543.871C381.717 543.163 395.6 545.287 390.216 536.791C388.091 535.257 386.817 531.622 398.716 529.356C413.591 526.524 415.007 530.064 409.695 520.86C405.445 513.496 393.05 512.599 387.383 513.071C336.031 515.195 327.177 514.133 332.135 505.991M332.135 505.991C352.322 496.078 344.885 497.636 337.801 496.786M332.135 505.991L325.406 510.593C324.344 513.071 320.094 526.524 382.779 519.444C392.341 518.028 393.758 527.377 350.197 529.356C331.498 530.206 308.879 533.723 299.907 535.375C285.268 535.611 259.108 537.499 271.574 543.163C287.157 550.244 233.68 552.722 221.639 558.386C212.006 562.918 197.792 561.926 191.89 560.864C185.373 564.263 173.828 565.585 168.87 565.821C153.853 564.121 136.641 570.069 129.912 573.255C121.059 582.46 103.351 574.671 92.0179 586M271.574 497.494C251.978 504.811 209.81 519.444 197.91 519.444C183.036 519.444 170.64 521.568 181.265 526.524C191.89 531.48 190.119 529.002 178.078 530.772C166.036 532.542 159.428 533.582 153.287 534.313C138.412 536.083 135.933 529.356 109.017 530.772C81.3932 530.772 75.7976 529.639 63.3313 536.437C34.6448 549.536 110.08 536.437 76.7892 549.536C69.3519 553.076 60.7106 554.209 40.3112 553.076C30.631 552.722 9.21642 552.863 1.00002 556.262" stroke="white"/>
</svg>
