<svg width="418" height="150" viewBox="0 0 418 150" fill="none" xmlns="http://www.w3.org/2000/svg">
<path d="M117.735 47.7567C113.915 55.0494 111.518 62.9129 110.794 71.1351C164.195 88.6073 243.681 89.5917 308.157 71.1351C307.304 63.7065 304.659 55.6602 300.187 47.7567M117.735 47.7567C132.092 20.3449 166.545 1 207.752 1C256.089 1 286.586 23.718 300.187 47.7567M117.735 47.7567C14.8196 63.7525 79.393 98.2048 207.752 98.2048C345.562 98.2048 402.162 64.2446 300.187 47.7567M117.735 47.7567C-37.8387 66.4629 -20.1569 98.0911 67.5422 115.185M300.187 47.7567C441.889 60.4348 449.176 97.3729 351.714 115.994M67.5422 115.185C104.445 122.378 153.746 126.997 207.752 126.997C268.307 126.997 316.751 122.674 351.714 115.994M67.5422 115.185C65.2918 124.008 99.8143 135.027 150.904 140.04M351.714 115.994C346.531 124.578 328.467 136.05 268.782 140.68M150.904 140.04C168.213 141.738 187.425 142.747 207.752 142.747C231.831 142.747 251.96 141.985 268.782 140.68M150.904 140.04C151.971 142.583 155.336 147.865 160.258 148.653C165.179 149.44 228.096 148.981 258.939 148.653C260.99 147.521 265.829 144.343 268.782 140.68M365.741 64.9829C353.437 66.9516 379.522 71.1351 376.077 64.9829M376.077 79.7482C353.683 86.3926 407.084 85.6543 384.936 79.7482M355.898 92.2987C332.273 98.2048 383.213 99.9274 363.772 92.2987M317.262 101.896C290.684 110.017 347.038 109.279 323.906 101.896M264.845 109.033C231.377 115.994 297.575 117.646 272.474 109.033M150.904 109.033C119.899 115.185 187.327 117.154 158.043 109.033M101.689 103.865C72.1581 109.033 132.45 112.97 107.841 103.865M65.0216 95.7439C33.7684 101.896 95.2904 101.404 70.9277 95.7439M36.4754 81.963C9.1596 86.8847 65.0216 90.8221 42.1354 81.963M47.5493 65.7212C23.6788 71.1351 70.9277 73.3499 53.2094 65.7212M207.752 111.247C193.972 111.247 188.853 119.122 207.752 119.122C232.361 119.122 218.777 111.247 207.752 111.247Z" stroke="white"/>
<path d="M206.238 84.6698V78.2715C194.425 73.8419 196.886 62.5219 188.765 46.5262C179.906 20.933 237.983 19.7026 229.124 46.5262C218.542 65.2289 223.464 72.1194 211.652 78.2715V84.6698M204.269 70.1507C207.714 70.1507 207.468 71.135 209.191 71.135C210.913 71.135 211.209 70.1507 213.374 70.1507M200.824 37.9132C207.222 36.4366 205.844 37.9132 209.191 37.9132C211.898 37.9132 214.605 36.1905 217.804 37.1749M197.871 33.7297C205.007 32.2531 206.139 33.7297 209.683 33.7297C213.866 33.7297 215.835 31.2688 220.757 32.9914M203.285 30.7766C207.96 30.0383 208.108 31.5149 209.683 31.5149C211.258 31.5149 212.882 30.0383 215.343 30.7766M204.269 55.8776C199.101 48.0028 187.289 51.2019 197.871 60.0611C201.07 61.5376 206.828 62.768 204.269 55.8776ZM201.316 55.8776C199.183 54.8112 195.508 53.6136 197.871 57.3541C200.824 62.0298 205.253 56.8052 201.316 55.8776ZM220.265 60.0611C229.124 53.1706 222.036 45.0497 213.374 55.8776C212.062 58.6666 211.602 63.4079 220.265 60.0611ZM216.819 55.8776C218.87 54.5651 222.283 53.023 219.526 57.3541C217.203 61.0058 213.374 58.0825 216.819 55.8776ZM207.96 62.768C206.812 63.4243 205.056 64.8844 207.222 65.475C209.388 66.0656 208.616 63.9165 207.96 62.768ZM209.683 62.768C210.667 63.2602 212.242 64.4907 210.667 65.475C209.092 66.4594 209.355 64.0805 209.683 62.768Z" stroke="white"/>
</svg>
