<svg width="132" height="202" viewBox="0 0 132 202" fill="none" xmlns="http://www.w3.org/2000/svg">
<path d="M89.3152 90.3848C88.6087 93.6384 87.1368 96.8094 86.4891 97.9883L112.542 126.899L111.659 127.783C114.556 129.481 116.693 127.518 118.371 126.192C119.784 125.573 119.607 126.381 116.958 128.402C115.474 129.534 119.607 128.667 120.137 127.783C120.608 127.312 121.444 126.669 121.02 127.872C120.49 129.375 118.371 128.933 116.693 129.817C115.351 130.524 118.548 129.935 120.314 129.551C123.317 129.198 119.961 131.143 117.399 131.32C116.075 131.32 113.337 132.027 119.166 132.911C123.497 133.568 120.991 133.81 119.166 134.237C116.781 133.383 112.277 132.045 113.337 133.53C114.662 135.387 111.836 139.719 112.012 135.829C112.154 132.717 110.658 130.347 109.893 129.551L109.01 130.524L83.663 102.409C79.2473 109.836 65.7351 117.351 51.5163 126.722L79.0707 145.731L45.8641 178.62C42.5082 183.66 42.8614 189.937 48.1603 191.352C39.6821 191.882 41.8016 190.468 37.0326 174.288C41.413 173.369 40.4769 173.05 66.7948 146.88L44.981 131.408L39.947 135.387L51.5163 149.533L9.74321 187.815C6.06929 196.939 10.1553 200.163 12.6576 200.635C5.52174 202.615 3.9144 196.48 1 183.66C2.55435 182.457 5.23913 184.19 5.23913 182.245L41.0068 148.914C36.2966 143.108 26.5761 131.125 25.375 129.64C24.1739 128.155 19.1046 128.019 16.7201 128.137C16.5082 127.5 19.9878 124.689 21.7541 123.363C16.9497 121.665 9.86096 116.82 6.91712 114.61C4.53261 112.842 8.50679 114.875 10.1848 114.079C11.1033 113.16 13.3347 112.871 14.3356 112.842C17.5856 113.549 19.4579 113.018 19.9878 112.665C23.0965 111.25 25.2278 107.301 25.9049 105.503C26.5231 103.647 23.7853 104.089 27.1413 103.647C36.856 101.083 40.6535 102.939 45.1576 102.939C49.75 101.79 43.958 98.4303 45.6875 97.9883C49.8383 96.9273 55.2255 98.5188 58.3166 95.3359C68.7024 89.041 74.8315 86.3179 80.4837 86.3179C79.9538 92.5067 87.3723 92.4183 89.3152 90.3848ZM89.3152 90.3848C93.8193 108.598 115.368 92.4183 129.234 91.9762L131 83.8423C119.872 84.4612 99.2948 107.095 89.3152 90.3848ZM73.5951 47.8585C71.8288 48.2122 69.8505 51.6779 72.5353 54.5778M86.2242 46.4439C88.0788 46.7092 89.8628 50.1042 87.8139 53.0748M61.9375 85.7874C62.5263 84.9917 64.1454 83.1173 65.2052 82.3393L40.212 53.6937L39.4171 54.1358C38.4457 52.1318 36.3438 47.3988 35.7079 44.4988C32.1164 44.0273 25.6576 43.4379 28.5543 44.8525C31.4511 46.2671 29.5258 46.0313 28.2011 45.7366C27.7006 45.9429 26.947 46.55 27.9361 47.328C29.1726 48.3006 24.5802 46.886 27.3179 49.4499C29.4375 50.9529 24.3152 49.4499 26.9647 51.7487C28.2011 52.8214 24.5802 52.0139 26.9647 54.1358C28.2011 55.236 34.8777 55.126 36.1495 54.8431L36.9443 55.6388L35.7079 56.8766L61.9375 85.7874ZM91.1698 95.5127C98.9416 108.775 106.713 98.6956 119.696 102.409L121.02 96.3969C107.773 94.4518 101.414 106.034 91.1698 95.5127ZM84.8995 83.9307C85.8415 83.9897 87.7432 84.6734 87.8139 86.9367C87.8845 89.2001 85.9004 89.5891 84.8995 89.5007C84.0163 89.5302 82.25 89.0586 82.25 86.9367C82.25 84.8148 84.0163 84.0486 84.8995 83.9307ZM84.5462 83.6655C93.3777 76.062 99.7364 86.4947 112.542 84.638C121.639 83.0466 121.285 74.2054 111.924 72.0835C121.02 79.068 114.485 84.1445 105.124 79.3333C102.827 77.6535 97.2989 74.3291 93.5543 74.4706C92.789 70.9046 91.0462 63.4721 90.1984 62.2697C97.7052 60.9435 100.355 49.892 89.4918 48.6542C89.639 47.387 89.5625 44.658 88.0788 43.88C90.5516 43.3495 94.7908 42.2178 91.9647 41.9349H87.019L85.341 1L61.1427 4.27125L70.769 44.2336C67.4719 44.9409 62.1141 46.3732 67.0598 46.4439H69.2677C67.7663 47.1512 67.0598 49.892 68.2962 52.5444C64.1454 54.2242 62.4674 63.7727 71.3872 64.6568C71.3872 64.8631 71.5285 65.3818 72.0938 65.8062L73.2418 77.7419C67.7663 79.5985 65.5584 84.9033 61.9375 87.7325C55.2255 92.9768 49.0435 90.1196 55.2255 81.3668C46.9239 84.9033 48.337 97.3694 61.9375 92.5951C72.2704 88.4397 74.8315 79.5985 84.5462 83.6655ZM74.5666 79.1565C78.1875 80.8363 86.9307 80.7479 92.9361 76.1504C91.5231 71.0225 88.6087 59.7942 86.2242 54.2242C81.6318 55.2851 80.4248 52.0728 80.3954 50.3341C80.2541 48.778 81.0136 46.9744 82.3383 46.4439L81.0136 45.0293C79.1001 45.1767 75.1848 45.5244 74.8315 45.7366C74.4783 45.9488 74.5077 46.886 74.5666 47.328C78.0992 47.1866 79.3945 49.2731 79.6005 50.3341C80.0421 55.1967 76.7745 56.5229 73.2418 55.1967C73.2418 58.521 73.6834 72.4371 74.5666 79.1565ZM83.3098 47.8585C82.8976 47.829 82.0734 48 82.0734 48.9195C82.0734 49.8389 82.8976 49.9509 83.3098 49.892C83.6336 49.8331 84.2813 49.556 84.2813 48.9195C84.2813 48.2829 83.6336 47.9469 83.3098 47.8585ZM76.4212 48.9195C76.0974 48.8605 75.4497 48.9725 75.4497 49.892C75.5086 50.2456 75.8207 50.9529 76.5978 50.9529C77.375 50.9529 77.687 50.2456 77.7459 49.892C77.7165 49.4794 77.4103 48.7073 76.4212 48.9195Z" stroke="white"/>
</svg>
