<svg width="310" height="285" viewBox="0 0 310 285" fill="none" xmlns="http://www.w3.org/2000/svg">
<path d="M98.0706 214.829C228.708 239.635 224.475 205.754 125.54 154.025M98.0706 214.829C77.2443 210.366 58.2085 205.839 40.6146 201.196M98.0706 214.829C99.6157 213.073 101.103 211.256 102.532 209.384M125.54 154.025C125.949 151.522 126.292 148.999 126.568 146.463M125.54 154.025C125.363 155.109 125.173 156.19 124.972 157.267M126.568 146.463C299.168 239.635 234.454 252.643 90.2081 221.484C60.4281 214.21 30.2659 205.323 1 195.46M126.568 146.463C126.634 145.859 126.696 145.254 126.754 144.648M127.364 134.665C285.862 203.637 388.376 337.949 79.6242 230.862C55.2966 222.424 28.3186 212.686 1 202.483M127.364 134.665C127.422 132.451 127.43 130.232 127.387 128.01M127.364 134.665C127.275 138.008 127.071 141.339 126.754 144.648M72.0642 237.215C438.878 360.762 315.498 209.687 127.387 128.01M72.0642 237.215C67.4351 240.678 62.3287 243.625 56.9443 246.125M72.0642 237.215C54.9198 231.44 29.1728 222.535 1 212.398M127.387 128.01C127.233 120.132 126.436 112.223 124.972 104.414M1 258.784C14.3186 258.045 30.3812 255.776 45.453 250.689M25.1921 252.34C16.7102 252.34 14.6532 233.609 1 220.471M45.453 250.689C35.7762 235.702 26.9461 237.88 23.0753 226.022M45.453 250.689C49.3723 249.366 53.2247 247.852 56.9443 246.125M56.9443 246.125C52.6099 245.575 44.2434 242.176 45.453 232.98M40.6146 201.196C26.5475 197.484 13.402 193.697 1 189.808M40.6146 201.196C44.0022 192.461 9.96821 191.175 1 165.861M66.3188 203.334C58.4563 167.033 11.5841 166.126 13.0961 125.892C13.0961 108.751 7.20918 91.3127 1 73.1841M79.3418 27.8802C63.5001 15.6544 43.5354 6.631 19.1436 2.46973C17.6498 2.21488 16.1373 1.99301 14.6081 1.80425M79.3418 27.8802C78.6296 31.3001 77.9915 38.6869 81.1364 40.8752M79.3418 27.8802C97.3677 41.7918 110.055 59.8498 117.852 79.6089M117.852 79.6089C92.0229 85.659 91.4181 52.0808 76.9028 43.6106M117.852 79.6089C121.025 87.6506 123.388 95.974 124.972 104.414M84.7653 77.1888C83.0517 77.2896 78.7777 76.0393 75.3908 70.2312M72.9716 58.7359C69.6452 56.6184 62.7504 46.0911 61.7827 20.9226M66.3188 68.4161C48.7795 64.786 63.8995 29.9757 50.5939 25.9521M124.972 104.414C102.607 130.127 119.417 94.5086 72.9716 91.1041C2.8144 85.9615 61.4437 65.9961 30.6353 34.5354C24.6881 28.445 13.1565 13.3722 14.6081 1.80425M14.6081 1.80425C10.1967 1.25975 5.64584 0.990759 1 1.00024M126.754 144.648C98.0706 134.665 117.852 111.666 46.9651 108.044C1.87366 90.6105 17.2642 37.9886 1 8.67453M124.972 157.267C72.0642 104.414 27.9137 119.842 46.9651 148.58C68.738 170.966 98.1179 196.736 102.532 209.384M124.972 157.267C124.139 161.706 123.097 166.08 121.85 170.361M102.532 209.384C105.789 205.118 108.742 200.563 111.382 195.771M121.85 170.361C103.817 168.848 92.9301 150.698 76.9028 146.463C70.034 144.648 64.0806 141.744 72.0642 150.698C82.0437 171.873 108.957 181.856 111.382 195.771M121.85 170.361C119.242 179.315 115.738 187.865 111.382 195.771" stroke="white"/>
</svg>
