<svg width="198" height="195" viewBox="0 0 198 195" fill="none" xmlns="http://www.w3.org/2000/svg">
<path d="M98.9399 64.5328C72.5335 64.5328 65.9319 86.5382 65.9319 97.5408C65.9319 108.543 72.5335 130.549 98.9399 130.549C125.346 130.549 131.948 108.543 131.948 97.5408C131.948 86.5382 125.346 64.5328 98.9399 64.5328Z" stroke="white"/>
<path d="M114.239 134.042C189.38 127.417 177.725 -3.53107 78.8218 1.16713C154.837 5.86534 181.219 90.3128 134.237 117.177C188.085 69.1106 109.782 -26.1789 25.5753 31.4044C73.5212 -1.38268 159.053 22.9717 138.573 93.6859C158.089 19.96 28.587 -9.19306 1 86.9397C18.6999 25.2605 114.239 6.22952 129.057 69.8334C91.2299 -4.97671 -19.4794 62.1235 13.89 147.414C-7.19176 83.4462 62.4382 15.1776 107.975 58.9913C33.0443 16.8278 -18.9494 135.488 58.8242 187.53C13.89 164.159 8.46896 55.6183 82.6767 60.6779C14.9026 60.6779 5.09588 187.53 118.576 194.276C51.4757 192.71 11.1632 109.708 64.0043 76.9409C5.93915 125.369 86.8931 222.827 171.702 163.918C111.348 198.372 36.4018 163.918 58.8242 100.673C44.4886 189.819 175.316 191.867 197 108.142C174.352 171.146 82.6767 186.987 68.9435 124.044C100.506 198.613 216.998 140.307 184.592 48.7516C204.469 124.044 131.104 175.242 90.5071 136.693C164.353 172.953 216.757 63.3282 139.899 7.31094C184.592 38.1505 188.688 136.693 114.239 134.042Z" stroke="white"/>
</svg>
