<svg width="637" height="285" viewBox="0 0 637 285" fill="none" xmlns="http://www.w3.org/2000/svg">
<path d="M211.522 214.829C80.8847 239.635 85.1182 205.754 184.053 154.025M211.522 214.829C232.348 210.366 251.384 205.839 268.978 201.196M211.522 214.829C209.977 213.073 208.49 211.256 207.061 209.384M440.138 132.548C608.878 41.493 496.082 37.5605 421.801 65.9961M440.138 132.548C439.331 110.485 434.383 91.3077 426.529 74.9335M440.138 132.548C404.787 152.528 369.643 169.335 324.922 184.485M436.207 162.496C822.978 -5.50295 555.353 -9.63056 405.249 43.6106M436.207 162.496C383.605 186.454 281.837 222.291 237.529 237.215M436.207 162.496C433.645 172.019 430.396 180.668 426.624 188.511M184.053 154.025C183.644 151.522 183.301 148.999 183.025 146.463M184.053 154.025C184.23 155.109 184.419 156.19 184.621 157.267M183.025 146.463C10.425 239.635 75.1389 252.643 219.385 221.484C297.404 202.426 378.046 172.303 438.323 142.53C559.586 82.6339 648.19 -0.857874 417.248 58.7359M183.025 146.463C182.959 145.859 182.897 145.254 182.839 144.648M417.248 58.7359C418.833 61.0824 420.352 63.5023 421.801 65.9961M417.248 58.7359C416.331 57.3788 415.393 56.0463 414.433 54.7382M421.801 65.9961C423.474 68.8765 425.053 71.8555 426.529 74.9335M182.229 134.665C23.7308 203.637 -78.7837 337.949 229.969 230.862C294.985 208.312 378.932 176.471 437.719 151.303C588.92 92.0116 727.117 -29.2935 408.742 47.5432M182.229 134.665C182.17 132.451 182.163 130.232 182.206 128.01M182.229 134.665C182.317 138.008 182.521 141.339 182.839 144.648M408.742 47.5432C407.6 46.2027 406.436 44.8918 405.249 43.6106M408.742 47.5432C410.71 49.8532 412.609 52.2514 414.433 54.7382M405.249 43.6106C404.39 42.6833 403.521 41.7715 402.64 40.8752M237.529 237.215C-129.285 360.762 -5.90502 209.687 182.206 128.01M237.529 237.215C242.158 240.678 247.264 243.625 252.648 246.125M182.206 128.01C182.359 120.132 183.157 112.223 184.621 104.414M319.782 259.072C323.458 259.051 326.726 258.91 329.459 258.693C353.292 257.203 401.544 240.657 426.624 188.511M319.782 259.072C342.462 211.502 383.891 266.255 404.454 181.856M319.782 259.072C316.369 259.091 312.606 259.007 308.593 258.784M368.166 196.679C352.441 196.303 312.524 235.702 308.593 258.784M308.593 258.784C295.274 258.045 279.212 255.776 264.14 250.689M284.401 252.34C295.287 252.34 295.59 221.484 323.41 211.199M264.14 250.689C273.817 235.702 282.647 237.88 286.517 226.022M264.14 250.689C260.22 249.366 256.368 247.852 252.648 246.125M412.921 178.831C412.984 183.772 415.813 192.625 426.624 188.511M252.648 246.125C256.983 245.575 265.349 242.176 264.14 232.98M385.1 25.9521C387.822 43.6106 376.602 67.5691 389.334 49.6607C390.342 47.6355 394.414 43.043 402.64 40.8752M385.1 25.9521C391.28 30.3355 397.168 35.3071 402.64 40.8752M385.1 25.9521C376.573 19.9029 367.491 14.9739 358.187 11.143M358.187 11.143C381.774 62.6685 342.038 101.389 364.537 79.6089C385.1 61.156 408.742 84.7515 414.433 54.7382M358.187 11.143C355.581 10.0702 352.958 9.08346 350.324 8.18241M350.324 8.18241C358.187 49.6607 332.785 79.6089 340.043 108.044C344.212 124.38 352.743 88.3815 373.912 94.1292C385.907 96.8607 413.224 96.8457 426.529 74.9335M350.324 8.18241C343.798 5.94953 337.209 4.24254 330.668 3.05409M324.922 148.58C348.51 114.095 399.918 129.825 429.856 96.8517M324.922 184.485C326.434 160.681 404.454 149.79 434.392 116.817M324.922 184.485C307.851 190.269 289.384 195.811 268.978 201.196M268.978 201.196C265.349 191.839 304.662 191.03 310.105 160.076C314.943 92.0116 351.534 47.5432 330.668 3.05409M330.668 3.05409C325.066 2.03626 319.499 1.39877 314.036 1.13699M243.274 203.334C251.136 167.033 298.009 166.126 296.497 125.892C296.497 90.4991 321.596 53.8353 322.806 12.4524M230.251 27.8802C246.093 15.6544 266.057 6.631 290.449 2.46973C291.943 2.21488 293.455 1.99301 294.985 1.80425M230.251 27.8802C230.963 31.3001 231.601 38.6869 228.456 40.8752M230.251 27.8802C212.225 41.7918 199.538 59.8498 191.741 79.6089M191.741 79.6089C217.57 85.659 218.175 52.0808 232.69 43.6106M191.741 79.6089C188.568 87.6506 186.204 95.974 184.621 104.414M224.827 77.1888C226.541 77.2896 230.815 76.0393 234.202 70.2312M236.621 58.7359C239.948 56.6184 246.842 46.0911 247.81 20.9226M243.274 68.4161C260.813 64.786 245.693 29.9757 258.999 25.9521M184.621 104.414C206.986 130.127 190.176 94.5086 236.621 91.1041C306.778 85.9615 248.149 65.9961 278.957 34.5354C284.905 28.445 296.436 13.3722 294.985 1.80425M294.985 1.80425C301.106 1.04867 307.496 0.823608 314.036 1.13699M314.036 1.13699C288.937 27.8802 311.919 88.9866 262.628 108.044C191.741 111.666 211.522 134.665 182.839 144.648M184.621 157.267C237.529 104.414 281.679 119.842 262.628 148.58C240.855 170.966 211.475 196.736 207.061 209.384M184.621 157.267C185.454 161.706 186.496 166.08 187.743 170.361M207.061 209.384C203.804 205.118 200.851 200.563 198.211 195.771M187.743 170.361C205.776 168.848 216.663 150.698 232.69 146.463C239.559 144.648 245.512 141.744 237.529 150.698C227.549 171.873 200.635 181.856 198.211 195.771M187.743 170.361C190.35 179.315 193.855 187.865 198.211 195.771" stroke="white"/>
</svg>
