<svg width="16" height="16" viewBox="0 0 16 16" fill="none" xmlns="http://www.w3.org/2000/svg">
<path d="M15 1H16C16 0.447715 15.5523 0 15 0V1ZM5.2 0C4.64772 0 4.2 0.447715 4.2 1C4.2 1.55228 4.64772 2 5.2 2V0ZM14 10.8C14 11.3523 14.4477 11.8 15 11.8C15.5523 11.8 16 11.3523 16 10.8H14ZM5.2 2H15V0H5.2V2ZM14 1V10.8H16V1H14ZM4.50711 12.9071L15.7071 1.70711L14.2929 0.292893L3.09289 11.4929L4.50711 12.9071ZM1.70711 15.7071L4.50711 12.9071L3.09289 11.4929L0.292893 14.2929L1.70711 15.7071Z" fill="white"/>
</svg>
