<svg width="72" height="72" viewBox="0 0 72 72" fill="none" xmlns="http://www.w3.org/2000/svg">
<circle cx="36" cy="36" r="36" fill="black"/>
<circle cx="35.9992" cy="35.9999" r="33.5578" fill="white"/>
<circle cx="35.9998" cy="36" r="29.2161" fill="#0C133E"/>
<mask id="mask0_436_42" style="mask-type:alpha" maskUnits="userSpaceOnUse" x="9" y="9" width="54" height="54">
<circle cx="36.0004" cy="36" r="26.0503" fill="#D9D9D9"/>
</mask>
<g mask="url(#mask0_436_42)">
<path d="M18.3848 39.7993L12.5732 52.2817H17.1411L21.1226 43.3099H33.0741L33.2515 43.7L33.6062 44.4802L34.3157 46.0405L37.1536 52.2817H41.4049L27.0456 20.4651L19.6964 36.9952H23.925L27.0456 30.0756L31.4778 39.7993H18.3848Z" fill="white"/>
<path d="M56.9853 20.4651H30.3923L32.0427 24.3545H38.968H42.4307H43.2964H43.7292H43.8374H43.8923V52.2817H47.5165V24.3545H47.6247H49.3561H52.8187H59.7441L56.9853 20.4651Z" fill="white"/>
<path d="M40.5341 27.5204V44.3671L36.2943 34.3748V27.5204H40.5341Z" fill="white"/>
<path d="M9.31694 29.5327H19.7642L18.577 32.1841H8.31894C8.61803 31.0839 8.98568 30.1704 9.31694 29.5327Z" fill="#FBDA00"/>
<path d="M15.0154 40.1382L13.6586 43.1684H9.31694C8.77618 42.1714 8.39538 41.152 8.14151 40.1382H15.0154Z" fill="#FBDA00"/>
<path d="M7.8168 34.8355H17.3898L16.2026 37.4869H7.74325C7.6913 36.5689 7.72482 35.6775 7.8168 34.8355Z" fill="#FBDA00"/>
<path d="M62.2541 43.1684H50.6762V40.1382H63.1953C62.9662 41.2571 62.6482 42.2939 62.2541 43.1684Z" fill="#FBDA00"/>
<path d="M50.6762 32.1841V29.5327H62.2541C62.6851 30.2907 63.0065 31.1952 63.2283 32.1841H50.6762Z" fill="#FBDA00"/>
<path d="M50.6762 37.4869V34.8355H63.5831C63.6316 35.7093 63.6213 36.6039 63.5573 37.4869H50.6762Z" fill="#FBDA00"/>
</g>
</svg>
