<svg width="337" height="337" viewBox="0 0 337 337" fill="none" xmlns="http://www.w3.org/2000/svg">
<circle cx="168.5" cy="168.5" r="168.5" fill="white"/>
<path fill-rule="evenodd" clip-rule="evenodd" d="M259.208 139.41H259.146C259.085 139.41 259.024 139.41 258.962 139.471C258.901 139.531 258.84 139.592 258.84 139.653C258.84 139.714 258.84 139.714 258.84 139.775C258.84 139.836 258.84 139.897 258.901 139.897C258.962 139.957 259.024 140.018 259.085 140.018C259.146 140.018 259.269 140.018 259.331 139.957C259.392 139.957 259.392 139.897 259.453 139.836C259.453 139.836 259.453 139.775 259.515 139.775C259.515 139.714 259.515 139.592 259.453 139.531C259.392 139.471 259.392 139.471 259.331 139.41C259.269 139.41 259.208 139.41 259.208 139.41ZM269.273 132.108L269.396 132.29C269.457 132.351 269.519 132.351 269.519 132.351C269.58 132.351 269.703 132.351 269.764 132.29L269.825 132.229C269.825 132.168 269.887 132.168 269.887 132.108C269.887 132.047 269.887 131.925 269.825 131.864C269.764 131.803 269.703 131.742 269.641 131.742C269.58 131.742 269.457 131.742 269.396 131.803C269.334 131.864 269.273 131.925 269.273 131.986C269.273 131.986 269.273 132.047 269.273 132.108ZM250.186 152.858C250.124 152.797 250.063 152.736 250.002 152.736C249.94 152.736 249.818 152.736 249.756 152.797C249.695 152.858 249.633 152.919 249.633 152.98C249.633 153.041 249.633 153.162 249.695 153.223C249.756 153.284 249.818 153.345 249.879 153.345C249.94 153.345 250.063 153.345 250.124 153.284C250.186 153.223 250.247 153.162 250.247 153.101C250.247 153.041 250.247 152.919 250.186 152.858ZM257.06 150.789C257.06 150.728 257.06 150.606 256.998 150.546C256.937 150.485 256.876 150.424 256.814 150.424C256.753 150.424 256.63 150.424 256.569 150.485C256.507 150.546 256.446 150.606 256.446 150.667V150.728C256.446 150.789 256.446 150.85 256.507 150.911C256.507 150.911 256.507 150.911 256.507 150.972C256.569 151.032 256.63 151.032 256.691 151.093C256.753 151.093 256.814 151.093 256.876 151.093C256.876 151.093 256.876 151.093 256.937 151.093C256.998 150.972 257.06 150.911 257.06 150.789ZM255.341 153.223L255.28 153.345L255.157 153.406V153.345C255.157 153.406 255.096 153.406 255.096 153.467C255.096 153.527 255.096 153.649 255.157 153.71C255.218 153.771 255.28 153.832 255.341 153.832C255.403 153.832 255.525 153.832 255.587 153.771C255.648 153.71 255.709 153.649 255.709 153.588C255.709 153.527 255.709 153.406 255.648 153.345C255.587 153.284 255.525 153.223 255.464 153.223C255.403 153.223 255.403 153.223 255.341 153.223ZM221.156 153.467H221.095C221.033 153.467 220.972 153.467 220.91 153.527C220.849 153.588 220.788 153.649 220.788 153.71C220.788 153.771 220.788 153.771 220.788 153.832C220.788 153.892 220.788 153.953 220.849 153.953C220.91 154.014 220.972 154.075 221.033 154.075C221.095 154.075 221.217 154.075 221.279 154.014C221.34 154.014 221.34 153.953 221.401 153.892C221.401 153.892 221.401 153.832 221.463 153.832C221.463 153.771 221.463 153.649 221.401 153.588C221.34 153.527 221.34 153.527 221.279 153.467C221.217 153.527 221.156 153.527 221.156 153.467ZM263.934 136.915L261.479 136.428L261.294 136.124L261.233 136.002L260.803 135.394L260.313 135.272C260.19 135.454 260.006 135.576 259.822 135.515C259.576 135.454 259.392 135.211 259.453 134.968C259.515 134.724 259.76 134.542 260.006 134.602C260.19 134.663 260.374 134.846 260.374 135.028L260.926 135.15V135.211L261.417 136.002L261.479 136.124L261.54 136.185L263.995 136.671L264.547 137.462L264.609 137.584L267.555 138.193L267.984 137.888C267.923 137.828 267.923 137.706 267.984 137.645C267.984 137.584 268.046 137.523 268.046 137.462L268.107 137.402C268.23 137.28 268.352 137.219 268.537 137.28C268.721 137.341 268.843 137.402 268.905 137.584C268.905 137.584 268.905 137.645 268.905 137.706C268.905 137.767 268.905 137.828 268.905 137.888C268.843 138.132 268.598 138.314 268.352 138.254C268.291 138.254 268.23 138.193 268.168 138.132L267.677 138.497H267.616H267.555L264.425 137.888V137.828L263.934 136.915ZM261.233 143.913L260.803 143.243L261.172 141.479L260.19 140.079L259.76 140.018C259.699 140.14 259.637 140.201 259.576 140.262C259.453 140.323 259.331 140.383 259.146 140.323C259.024 140.323 258.901 140.201 258.778 140.079C258.717 140.018 258.655 139.897 258.655 139.775C258.655 139.714 258.655 139.714 258.655 139.653C258.655 139.531 258.778 139.41 258.84 139.349C258.962 139.288 259.085 139.227 259.269 139.288C259.392 139.288 259.515 139.41 259.637 139.531C259.699 139.592 259.699 139.714 259.699 139.775L260.251 139.897L261.356 141.479L260.988 143.243L261.417 143.791C261.479 143.73 261.601 143.73 261.663 143.791C261.908 143.852 262.092 144.095 262.031 144.339C262.031 144.4 262.031 144.4 261.97 144.46C261.847 144.643 261.663 144.765 261.479 144.704C261.294 144.643 261.11 144.46 261.11 144.278C261.11 144.217 261.11 144.217 261.11 144.156C261.11 144.034 261.172 143.974 261.233 143.913ZM266.88 134.116C266.88 134.055 266.818 133.933 266.88 133.872C266.941 133.629 267.186 133.446 267.432 133.507C267.677 133.568 267.861 133.811 267.8 134.055C267.739 134.298 267.493 134.481 267.248 134.42C267.186 134.42 267.064 134.359 267.002 134.298L266.634 134.542H266.573H266.511L263.811 133.994L262.154 131.56L260.865 131.316L258.533 132.899H258.471L257.673 132.716L256.876 133.264C256.876 133.325 256.937 133.446 256.876 133.507C256.814 133.751 256.569 133.933 256.323 133.872C256.078 133.811 255.894 133.568 255.955 133.325C256.016 133.081 256.262 132.899 256.507 132.959C256.569 132.959 256.691 133.02 256.753 133.081L257.612 132.533H257.673L258.471 132.716L260.865 131.134L262.399 131.438V131.499L262.461 131.621L263.995 133.872L266.573 134.359L266.88 134.116ZM266.511 135.089L266.757 135.15L268.168 134.176L268.475 132.533H268.537L269.028 132.168C269.028 132.107 269.028 132.108 269.028 132.047C269.028 131.986 269.028 131.925 269.028 131.864C269.028 131.742 269.15 131.621 269.273 131.499C269.396 131.438 269.457 131.377 269.58 131.377C269.641 131.377 269.641 131.377 269.703 131.377C269.764 131.377 269.764 131.377 269.825 131.377C269.948 131.438 270.01 131.499 270.071 131.56C270.132 131.682 270.194 131.803 270.132 131.986C270.132 132.047 270.132 132.107 270.071 132.168C270.01 132.229 269.948 132.29 269.887 132.351C269.825 132.351 269.825 132.412 269.764 132.412C269.641 132.473 269.58 132.473 269.457 132.412C269.334 132.412 269.273 132.351 269.212 132.29C269.212 132.29 269.212 132.29 269.15 132.229L268.843 132.412L268.721 132.533L268.414 134.116V134.176H268.352L266.818 135.15H266.757L266.389 135.089C266.266 135.272 266.082 135.394 265.898 135.333C265.652 135.272 265.468 135.028 265.529 134.785C265.591 134.542 265.836 134.359 266.082 134.42C266.389 134.724 266.511 134.907 266.511 135.089ZM249.511 152.675L249.327 152.371V152.31V152.249L249.633 150.789L249.02 149.876V149.815L249.449 147.686L249.511 147.503L249.572 147.199L250.37 148.355V148.416L250.186 149.207L250.8 150.12L252.764 150.485H252.825V150.546L253.132 150.972L254.359 151.215L255.648 150.363H255.709H255.771L256.385 150.485C256.446 150.363 256.507 150.302 256.569 150.241C256.691 150.181 256.814 150.12 256.998 150.181C257.121 150.181 257.244 150.302 257.367 150.424C257.428 150.546 257.489 150.667 257.428 150.85C257.428 150.972 257.367 151.032 257.305 151.154L257.244 151.215C257.121 151.276 256.998 151.337 256.814 151.276C256.691 151.276 256.569 151.154 256.446 151.032C256.446 151.032 256.385 150.972 256.385 150.911C256.385 150.85 256.323 150.789 256.323 150.728L255.771 150.606L254.421 151.519H254.359L252.948 151.215V151.154L252.641 150.728L250.677 150.363H250.615V150.302L250.186 149.694L249.94 149.329V149.268L250.124 148.416L249.818 147.99L249.695 147.807L249.388 149.45L249.327 149.755L249.94 150.667V150.728L249.633 152.128L249.818 152.432C249.94 152.371 250.002 152.371 250.124 152.371C250.247 152.371 250.37 152.493 250.493 152.615C250.554 152.736 250.615 152.858 250.554 153.041C250.554 153.162 250.431 153.284 250.309 153.406C250.186 153.467 250.063 153.527 249.879 153.467C249.756 153.467 249.633 153.345 249.511 153.223C249.449 153.101 249.388 152.98 249.449 152.797C249.388 152.797 249.449 152.736 249.511 152.675ZM254.85 153.467C254.85 153.345 254.912 153.223 255.034 153.162L254.236 152.006L253.255 151.824L252.825 152.067L252.641 152.189C252.641 152.249 252.702 152.371 252.641 152.432C252.579 152.675 252.334 152.858 252.088 152.797C251.843 152.736 251.659 152.493 251.72 152.249C251.782 152.006 252.027 151.824 252.273 151.884C252.334 151.884 252.457 151.945 252.518 152.006L253.193 151.519H253.255L254.359 151.702H254.421V151.763L255.218 152.98C255.341 152.919 255.403 152.919 255.525 152.98C255.648 152.98 255.771 153.101 255.894 153.223C255.955 153.345 256.016 153.467 255.955 153.649C255.955 153.771 255.832 153.892 255.709 154.014C255.587 154.075 255.464 154.136 255.28 154.075C255.157 154.075 255.034 153.953 254.912 153.832C254.85 153.71 254.85 153.588 254.85 153.467ZM223.181 157.97L222.752 157.3L222.874 156.753L223.12 155.535L222.138 154.136L221.708 154.075C221.647 154.197 221.586 154.258 221.524 154.318C221.401 154.379 221.279 154.44 221.095 154.379C220.972 154.379 220.849 154.258 220.726 154.136C220.665 154.075 220.604 153.953 220.604 153.832C220.604 153.771 220.604 153.771 220.604 153.71C220.604 153.588 220.726 153.467 220.788 153.406C220.91 153.345 221.033 153.284 221.217 153.345C221.34 153.345 221.463 153.467 221.586 153.588C221.647 153.649 221.647 153.771 221.647 153.832L222.199 153.953L223.304 155.535L223.243 155.718L222.936 157.3L223.365 157.848C223.427 157.787 223.55 157.787 223.611 157.848C223.856 157.909 224.041 158.152 223.979 158.396C223.979 158.456 223.979 158.456 223.918 158.517C223.795 158.7 223.611 158.822 223.427 158.761C223.243 158.7 223.059 158.517 223.059 158.335C223.059 158.274 223.059 158.274 223.059 158.213C223.12 158.091 223.12 158.03 223.181 157.97ZM205.567 165.698C205.444 165.819 205.26 166.002 205.137 166.124C205.199 166.124 205.199 166.185 205.26 166.185C205.321 166.185 205.383 166.185 205.444 166.185L205.567 166.124C205.628 166.063 205.628 166.002 205.628 166.002C205.628 165.819 205.628 165.759 205.567 165.698ZM207.163 164.116C207.163 164.176 207.163 164.176 207.163 164.116ZM231.712 145.434C231.651 145.495 231.59 145.495 231.59 145.556C231.59 145.556 231.59 145.556 231.651 145.556C231.712 145.556 231.712 145.556 231.774 145.556H231.835L231.712 145.434ZM251.352 133.994L251.229 134.055L251.291 134.116V134.176L251.229 134.481C251.352 134.542 251.413 134.602 251.475 134.663C251.536 134.785 251.597 134.907 251.597 135.028V135.089C251.597 135.211 251.536 135.272 251.413 135.394L251.352 135.454C251.291 135.454 251.291 135.515 251.229 135.515C251.168 135.515 251.168 135.515 251.106 135.515C251.045 135.515 250.984 135.515 250.922 135.515C250.861 135.515 250.8 135.454 250.738 135.454L250.677 135.394C250.615 135.333 250.615 135.333 250.554 135.272L250.493 135.211C250.431 135.089 250.431 134.968 250.431 134.907V134.846C250.493 134.724 250.554 134.602 250.677 134.542C250.738 134.481 250.861 134.481 250.984 134.42L251.045 134.237L250.984 134.176C250.309 134.542 249.695 134.846 249.02 135.211L254.605 136.306L254.543 136.245L254.482 136.185C254.482 136.185 254.482 136.185 254.482 136.124C254.482 136.063 254.421 136.002 254.421 135.941C254.421 135.88 254.421 135.819 254.421 135.759C254.421 135.698 254.482 135.637 254.482 135.576L254.543 135.515L254.298 135.15L251.72 134.663L251.475 134.298L251.413 134.176L251.352 133.994ZM251.72 133.751L251.597 133.811L251.782 134.116L251.843 134.237L251.904 134.359L253.561 134.663L253.5 134.602C253.5 134.602 253.5 134.602 253.439 134.542C253.439 134.542 253.439 134.481 253.377 134.481C253.316 134.42 253.316 134.298 253.316 134.237L251.782 133.933L251.72 133.751ZM257.367 130.89C256.2 131.499 255.034 132.047 253.868 132.655L255.525 132.959L257.305 131.803H257.367L258.164 131.925L258.655 131.621L258.287 131.073L257.367 130.89ZM259.637 129.734C259.392 129.856 259.146 129.978 258.84 130.099L259.822 130.282C259.822 130.282 259.76 130.282 259.76 130.221L259.699 130.16C259.699 130.099 259.637 130.099 259.637 130.039C259.637 129.978 259.637 129.917 259.637 129.734C259.637 129.795 259.637 129.795 259.637 129.734ZM268.843 125.535C266.634 126.509 264.486 127.483 262.276 128.517L263.136 128.7V128.761L264.24 130.404L265.713 130.708L268.414 128.943H268.475L269.273 129.065L269.519 128.882C269.457 128.761 269.457 128.7 269.457 128.578C269.457 128.517 269.519 128.456 269.58 128.396C269.703 128.274 269.887 128.213 270.071 128.213C270.071 128.213 270.071 128.213 270.132 128.213C270.194 128.152 270.316 128.091 270.439 128.091L270.501 127.787L270.071 127.178C270.01 127.178 269.887 127.239 269.825 127.178C269.58 127.118 269.396 126.874 269.457 126.631C269.457 126.57 269.519 126.448 269.58 126.387L268.843 125.535ZM281.425 120.424C281.118 120.546 280.811 120.667 280.505 120.789L280.566 120.85L280.689 120.972L283.45 121.519L284.187 121.032L281.609 120.546H281.548L281.425 120.424ZM290.263 117.381C290.079 117.442 289.895 117.503 289.711 117.564C289.772 117.625 289.833 117.625 289.895 117.686C289.956 117.686 290.017 117.686 290.017 117.686L290.079 117.625C290.202 117.564 290.202 117.503 290.263 117.381ZM294.621 116.043C294.007 116.225 293.393 116.408 292.779 116.59L293.577 116.773L293.7 116.712L294.621 116.043ZM304.133 113.73C303.52 113.852 302.906 113.974 302.292 114.095L303.765 114.4L304.072 114.217C304.072 114.156 304.011 114.034 304.072 113.974C304.011 113.913 304.072 113.791 304.133 113.73ZM305.606 114.095C306.404 113.73 307.202 113.365 308 113C307.264 113.122 306.466 113.243 305.729 113.426L305.606 114.095ZM301.556 116.043C301.985 115.86 302.415 115.617 302.783 115.434C302.722 115.312 302.722 115.252 302.722 115.13C302.783 114.886 303.029 114.704 303.274 114.765C303.458 114.826 303.581 114.886 303.642 115.069C304.195 114.826 304.809 114.521 305.361 114.278L305.484 113.548C305.177 113.609 304.931 113.669 304.624 113.73C304.809 113.791 304.931 114.034 304.931 114.278C304.87 114.521 304.624 114.704 304.379 114.643C304.318 114.643 304.195 114.582 304.133 114.521L303.765 114.765H303.704H303.642L301.617 114.339C300.635 114.582 299.653 114.765 298.671 115.008L299.101 115.617L301.556 116.043ZM300.328 116.651C300.635 116.529 300.881 116.347 301.188 116.225L299.039 115.799L298.548 115.069C298.242 115.13 297.996 115.191 297.689 115.312L298.119 115.373V115.434L298.61 116.225L298.671 116.347L298.733 116.408L300.328 116.651ZM296.891 118.355C297.014 118.294 297.198 118.233 297.321 118.112L294.805 117.625L294.559 117.807L293.945 118.233L292.963 118.903H292.902L291.613 118.659H291.552V118.598L291.306 118.233C291.245 118.233 291.122 118.294 291.061 118.233C290.815 118.172 290.631 117.929 290.693 117.686C290.693 117.625 290.754 117.564 290.754 117.503C290.877 117.381 291.061 117.32 291.245 117.32C291.429 117.381 291.552 117.503 291.613 117.686C291.613 117.746 291.613 117.807 291.613 117.868C291.613 117.929 291.552 118.051 291.49 118.112L291.675 118.416L292.841 118.659L294.682 117.442H294.743H294.805L297.689 117.99C298.426 117.625 299.224 117.199 299.96 116.834L298.61 116.59L298.426 116.286L298.364 116.164L297.935 115.556L297.444 115.434C297.321 115.617 297.137 115.738 296.953 115.677C296.83 115.677 296.707 115.617 296.646 115.495C296.278 115.617 295.971 115.677 295.602 115.799C295.602 115.86 295.602 115.921 295.602 115.982C295.541 116.225 295.296 116.408 295.05 116.347C294.989 116.347 294.866 116.286 294.805 116.225L293.7 116.955H293.639H293.577L292.288 116.712C291.675 116.895 291.061 117.077 290.447 117.26C290.447 117.32 290.447 117.32 290.447 117.381C290.447 117.503 290.324 117.625 290.202 117.746L290.57 118.294L290.938 118.842L291.368 119.45L292.718 119.694L295.296 117.99L296.891 118.355ZM296.032 118.842C296.216 118.72 296.4 118.659 296.584 118.538L295.357 118.294L294.375 118.963L294.191 119.085L292.779 119.998L291.245 119.694V119.633L290.324 118.294L290.017 117.868C289.956 117.868 289.895 117.868 289.833 117.868C289.833 117.868 289.833 117.868 289.772 117.868L291.245 120.059L292.595 120.302L293.945 119.389L294.498 119.024L295.111 118.598H295.173H295.234L296.032 118.842ZM291.552 121.337C292.902 120.546 294.314 119.755 295.725 118.963L295.234 118.903L292.718 120.546H292.657H292.595L291.122 120.241H291.061L289.465 117.868L288.913 117.746C287.685 118.172 286.458 118.538 285.23 118.963L290.57 119.998H290.631V120.059L291.552 121.337ZM290.508 121.945C290.754 121.763 291.061 121.641 291.306 121.458L290.508 120.302L284.801 119.207C284.739 119.268 284.617 119.268 284.555 119.329L289.342 120.241L290.508 121.945ZM290.202 122.128L290.263 122.067L289.158 120.424L284.064 119.45C283.88 119.511 283.757 119.572 283.573 119.633L289.22 120.728L290.202 122.128ZM288.667 123.101C289.097 122.797 289.588 122.554 290.017 122.249L289.158 120.911L283.389 119.755H283.328L283.266 119.694C282.775 119.876 282.223 120.059 281.732 120.241L284.739 120.85L283.819 121.458L283.45 121.702L280.505 121.154V121.093L280.32 120.789C279.891 120.972 279.461 121.093 279.032 121.276L284.187 122.31L285.66 121.337H285.721L288.299 121.824H288.36V121.884L288.667 122.371L288.79 122.615V122.675L288.667 123.101ZM288.238 123.345L288.36 123.223L288.483 122.615L288.115 122.067L285.599 121.58L284.126 122.554H284.064L278.541 121.458C278.479 121.519 278.356 121.519 278.295 121.58L284.187 122.736L285.599 121.824L287.747 122.249H287.808L288.238 122.858V122.919V123.345ZM286.335 124.562C286.887 124.197 287.44 123.892 287.992 123.527L288.115 122.98L287.747 122.493L285.721 122.128L284.31 123.041H284.248L277.927 121.824C277.804 121.884 277.681 121.945 277.559 121.945L285.599 123.527L286.335 124.562ZM285.66 124.988C285.844 124.866 285.967 124.744 286.151 124.684L285.476 123.649L277.19 122.006C277.068 122.067 276.945 122.128 276.822 122.128L285.169 123.771L285.721 124.562V124.623L285.66 124.988ZM281.793 127.665C282.837 126.935 283.88 126.205 284.923 125.475V125.414C284.985 125.231 285.169 125.049 285.353 125.049L285.414 124.744L284.985 124.075L276.331 122.371C276.208 122.432 276.024 122.493 275.901 122.554L276.454 123.345L279.277 123.892L279.829 124.684L281.609 125.049H281.671V125.11L282.1 125.718V125.779L281.977 126.327C282.1 126.387 282.162 126.448 282.223 126.509C282.284 126.57 282.284 126.631 282.284 126.692C282.284 126.753 282.284 126.874 282.284 126.935C282.284 126.935 282.284 126.935 282.284 126.996C282.284 127.057 282.223 127.118 282.223 127.178C282.162 127.239 282.162 127.3 282.1 127.3C282.039 127.3 282.039 127.361 281.977 127.361C281.916 127.361 281.855 127.422 281.793 127.422L281.732 127.665H281.793ZM277.252 131.134C278.663 129.978 280.136 128.882 281.609 127.787L281.486 127.544L281.548 127.178C281.486 127.178 281.425 127.118 281.425 127.118C281.364 127.118 281.364 127.057 281.364 126.996C281.302 126.935 281.302 126.874 281.302 126.813C281.302 126.753 281.302 126.692 281.302 126.631V126.57C281.302 126.509 281.364 126.387 281.425 126.327C281.486 126.266 281.486 126.266 281.548 126.205C281.609 126.144 281.732 126.144 281.855 126.083L281.977 125.596L281.671 125.11L279.891 124.744H279.829V124.684L279.338 123.953L276.515 123.406V123.345L275.901 122.493C275.104 122.797 274.306 123.162 273.508 123.467L274.674 125.17L274.981 125.657L276.086 127.239V127.3V127.361L275.84 128.578L277.068 130.404L277.252 131.134ZM276.638 131.621C276.761 131.499 276.945 131.377 277.068 131.256L275.349 128.7V128.639L275.595 127.483V127.422L273.078 123.649C272.956 123.71 272.833 123.771 272.71 123.771L272.649 123.953L273.14 124.684L273.508 125.17L275.165 127.665V127.726L274.919 129.065L276.638 131.621ZM267.677 140.018C267.739 139.957 267.739 139.957 267.8 139.897L267.064 138.74L263.627 138.071L262.89 138.558H262.829L257.735 137.584L257.489 137.767L256.937 138.132L256.876 138.193L255.894 138.862L254.605 138.619H254.543V138.558L254.298 138.193C254.236 138.193 254.114 138.254 254.052 138.193C253.807 138.132 253.623 137.888 253.684 137.645C253.684 137.584 253.745 137.523 253.745 137.462C253.868 137.341 254.052 137.28 254.236 137.28C254.421 137.341 254.543 137.462 254.605 137.645C254.605 137.706 254.605 137.767 254.605 137.828C254.605 137.888 254.543 138.01 254.482 138.071L254.666 138.375L255.832 138.619L257.673 137.402H257.735H257.796L262.89 138.375L263.504 137.949L263.565 137.888H263.627L267.186 138.619L267.923 139.714H267.984C270.01 137.584 272.096 135.576 274.306 133.629L274.122 133.325L274.551 131.134L274.244 130.647L273.815 129.978L273.14 128.943V128.882V128.821V128.761L273.385 127.604C273.262 127.544 273.201 127.483 273.14 127.422C273.078 127.3 273.017 127.178 273.078 126.996C273.078 126.874 273.201 126.753 273.324 126.631C273.447 126.57 273.569 126.509 273.753 126.57C273.876 126.57 273.999 126.692 274.122 126.813C274.183 126.935 274.244 127.057 274.183 127.239C274.183 127.361 274.06 127.483 273.937 127.604C273.815 127.665 273.753 127.726 273.631 127.726L273.385 128.943L274.551 130.708L274.797 131.073V131.134V131.195L274.367 133.325L274.49 133.507C275.104 132.959 275.779 132.412 276.454 131.864L274.674 129.247L274.919 127.909L274.613 127.483L272.403 124.258V124.197V124.075C272.28 124.136 272.096 124.197 271.974 124.258V124.318L272.833 125.596L272.219 128.578L273.078 129.856L273.508 130.525L273.692 130.83L273.324 132.594V132.716H273.201L272.219 132.533L271.36 133.142L271.114 134.237V134.298L270.746 134.542C270.746 134.602 270.807 134.724 270.746 134.785C270.685 135.028 270.439 135.211 270.194 135.15C269.948 135.089 269.764 134.846 269.825 134.602C269.887 134.359 270.132 134.176 270.378 134.237C270.439 134.237 270.562 134.298 270.623 134.359L270.869 134.176L270.93 133.751L271.053 133.02L272.096 132.351L273.017 132.533L273.324 130.951L272.649 129.978L271.851 128.821L271.789 128.761V128.7L272.403 125.718L271.789 124.744L271.605 124.44V124.379C270.685 124.744 269.764 125.17 268.905 125.535L269.457 126.327C269.519 126.327 269.641 126.266 269.703 126.327C269.825 126.327 269.948 126.448 270.01 126.57C270.071 126.692 270.071 126.813 270.071 126.874C270.071 126.935 270.01 127.057 269.948 127.118L270.439 127.848L270.378 128.213C270.501 128.274 270.562 128.335 270.623 128.456C270.685 128.517 270.685 128.639 270.623 128.761C270.562 129.004 270.316 129.187 270.071 129.126C270.071 129.126 270.071 129.126 270.01 129.126C269.887 129.247 269.764 129.247 269.58 129.247C269.519 129.247 269.457 129.187 269.396 129.187L269.089 129.43H269.028L268.23 129.247L265.652 130.951L265.591 131.012H265.529H265.468L263.872 130.708H263.811L262.706 129.065L261.663 128.882L261.601 128.943L262.583 129.126L263.934 131.134L264.056 131.316L264.302 131.682L264.609 132.108C264.67 132.108 264.793 132.047 264.854 132.108C264.977 132.108 265.1 132.229 265.161 132.351C265.222 132.412 265.222 132.533 265.222 132.655C265.161 132.899 264.916 133.081 264.67 133.02C264.425 132.959 264.24 132.716 264.302 132.473C264.302 132.412 264.363 132.29 264.425 132.229L262.522 129.43L262.461 129.369L261.233 129.126L261.172 129.187L261.908 129.308L262.399 130.039C262.461 130.039 262.461 130.039 262.522 130.039C262.583 130.039 262.645 130.039 262.706 130.039C262.767 130.039 262.829 130.039 262.829 130.099C262.89 130.16 262.952 130.221 263.013 130.282C263.074 130.343 263.074 130.464 263.136 130.525C263.136 130.586 263.136 130.647 263.136 130.708C263.136 130.83 263.013 130.951 262.89 131.073C262.767 131.134 262.645 131.195 262.461 131.134C262.338 131.134 262.215 131.012 262.092 130.89C262.031 130.769 261.97 130.647 262.031 130.465C262.031 130.404 262.031 130.343 262.092 130.343C262.092 130.282 262.154 130.221 262.215 130.221L261.785 129.613L260.865 129.43C260.681 129.552 260.497 129.613 260.251 129.734C260.374 129.795 260.435 129.856 260.497 129.917C260.558 129.978 260.558 130.039 260.558 130.099C260.558 130.16 260.558 130.282 260.558 130.343C260.558 130.464 260.497 130.525 260.435 130.586C260.435 130.647 260.374 130.647 260.313 130.647L260.251 130.708H260.19L263.074 131.256L263.258 131.499L263.381 131.742C263.443 131.742 263.565 131.742 263.627 131.742C263.749 131.742 263.872 131.864 263.995 131.986C264.056 132.047 264.056 132.168 264.056 132.229C264.056 132.29 264.056 132.351 264.056 132.412C264.056 132.533 263.934 132.655 263.811 132.777C263.688 132.838 263.565 132.899 263.381 132.838C263.258 132.838 263.136 132.716 263.013 132.594C262.952 132.473 262.89 132.351 262.952 132.168C262.952 132.107 262.952 132.047 263.013 132.047C263.074 131.986 263.074 131.925 263.136 131.864L262.89 131.499L258.349 130.586C258.042 130.708 257.796 130.83 257.489 131.012L258.103 131.134H258.164V131.195L258.655 131.864L258.717 131.986L257.919 132.473L257.121 132.351L255.28 133.568H255.218L253.255 133.203L252.518 133.568L254.727 133.994L255.403 134.968L256.323 135.15L257.551 134.298H257.612L261.11 134.968H261.172L261.785 135.819L264.977 136.428H265.038L265.468 137.037L266.757 137.28C266.818 137.158 266.88 137.097 266.941 137.037C267.064 136.976 267.186 136.915 267.371 136.976C267.493 136.976 267.616 137.097 267.739 137.219C267.8 137.341 267.861 137.462 267.8 137.645V137.706C267.8 137.706 267.8 137.767 267.739 137.767C267.677 137.828 267.616 137.949 267.555 137.949C267.432 138.01 267.309 138.071 267.125 138.01C267.002 138.01 266.88 137.888 266.757 137.767C266.695 137.706 266.695 137.584 266.634 137.523L265.284 137.28H265.222V137.219L264.854 136.671L261.601 136.063L260.988 135.211L257.612 134.542L256.385 135.394H256.323H256.262L255.28 135.211H255.218L254.543 134.237L252.15 133.751C251.966 133.872 251.782 133.933 251.597 134.055L251.659 134.176L253.07 134.481C253.132 134.359 253.193 134.298 253.255 134.237C253.377 134.176 253.5 134.116 253.684 134.176C253.807 134.176 253.93 134.298 254.052 134.42C254.114 134.542 254.175 134.663 254.114 134.846C254.114 134.968 254.052 135.089 253.93 135.15C253.93 135.15 253.868 135.15 253.868 135.211H253.807C253.807 135.211 253.745 135.211 253.745 135.272L254.175 135.333V135.394L254.421 135.819C254.543 135.759 254.605 135.759 254.727 135.819C254.85 135.819 254.973 135.941 255.096 136.063C255.157 136.124 255.157 136.185 255.157 136.245C255.157 136.306 255.157 136.367 255.157 136.489C255.157 136.55 255.157 136.611 255.096 136.611C255.096 136.671 255.034 136.732 254.973 136.732C254.973 136.732 254.973 136.732 254.912 136.793L254.85 136.854H254.789L256.139 137.097L256.262 137.037L257.182 136.428C257.182 136.367 257.121 136.245 257.182 136.185C257.182 136.063 257.305 135.941 257.367 135.88C257.428 135.88 257.489 135.819 257.489 135.819C257.551 135.819 257.612 135.819 257.673 135.819C257.735 135.819 257.796 135.88 257.858 135.88C257.919 135.941 257.919 135.941 257.98 136.002C258.042 136.124 258.103 136.245 258.042 136.367C257.98 136.611 257.735 136.793 257.489 136.732C257.428 136.732 257.305 136.671 257.244 136.611L256.139 137.341H256.078H256.016L248.222 135.819C248.16 135.88 248.038 135.88 247.976 135.941L250.37 136.428L251.352 137.888L251.843 137.949C251.782 137.828 251.72 137.706 251.782 137.523C251.843 137.402 251.904 137.28 252.027 137.158C252.088 137.158 252.088 137.097 252.15 137.097C252.211 137.097 252.334 137.037 252.395 137.097C252.457 137.097 252.579 137.158 252.641 137.219C252.702 137.28 252.702 137.28 252.764 137.341C252.825 137.462 252.886 137.584 252.825 137.767C252.825 137.888 252.702 138.01 252.579 138.132L252.948 138.68L253.316 139.227L253.745 139.836L255.096 140.079L257.673 138.375H257.735L262.154 139.227L262.952 138.68L266.511 139.349V139.41L267.677 140.018ZM265.345 142.635C266.02 141.844 266.757 140.992 267.493 140.201L266.818 139.227L263.443 138.558L262.706 139.045H262.645L258.164 138.193L257.182 138.862L256.998 138.984L255.587 139.897L254.052 139.592V139.531L253.5 138.74L252.825 137.767C252.764 137.767 252.702 137.767 252.641 137.767C252.641 137.767 252.641 137.767 252.579 137.767L254.052 139.957L255.403 140.201L256.753 139.288L257.305 138.923L257.919 138.497L260.619 139.045H260.681L261.11 139.714L261.233 139.836L263.013 140.201V140.262L263.565 141.053L264.363 141.174V141.235L265.345 142.635ZM243.373 154.805C243.557 154.805 243.803 154.805 243.987 154.805L244.171 153.953L244.294 153.284L243.619 152.31C243.496 152.371 243.373 152.371 243.251 152.371C243.128 152.371 243.005 152.249 242.882 152.128C242.821 152.006 242.76 151.884 242.821 151.702C242.821 151.702 242.821 151.702 242.821 151.641C242.882 151.519 242.944 151.398 243.066 151.337C243.189 151.276 243.312 151.215 243.496 151.276C243.619 151.276 243.742 151.398 243.864 151.519C243.926 151.641 243.987 151.763 243.926 151.884V151.945C243.926 152.006 243.864 152.128 243.803 152.189L244.539 153.284L244.233 154.805C245.89 154.744 247.608 154.805 249.327 154.866L248.283 154.684H248.222L247.669 153.832V153.771V153.71L247.854 152.675L246.933 151.337C246.81 151.398 246.688 151.398 246.565 151.398C246.442 151.398 246.319 151.276 246.197 151.154C246.135 151.032 246.074 150.911 246.135 150.728C246.135 150.606 246.258 150.485 246.381 150.363C246.503 150.302 246.626 150.241 246.81 150.302C246.933 150.302 247.056 150.424 247.178 150.546C247.24 150.667 247.301 150.789 247.24 150.972C247.24 151.032 247.178 151.154 247.117 151.215L248.099 152.675V152.736V152.797L247.915 153.771L248.406 154.501L249.818 154.805L249.879 154.988C250.186 154.988 250.493 155.049 250.8 155.049C250.8 154.988 250.8 154.988 250.8 154.927C250.8 154.866 250.861 154.805 250.922 154.744L250.738 154.44L249.081 154.136L248.283 152.98V152.919L248.406 152.371L247.301 150.728V150.667V150.606L247.547 149.511L248.283 149.024L248.467 148.172C248.406 148.112 248.345 148.051 248.283 147.99C248.222 147.929 248.222 147.807 248.16 147.686C248.16 147.625 248.16 147.625 248.16 147.564C248.16 147.564 248.16 147.564 248.16 147.503C248.16 147.381 248.222 147.32 248.345 147.26L248.406 147.199C248.529 147.138 248.651 147.077 248.836 147.138C248.958 147.138 249.081 147.26 249.204 147.381C249.204 147.381 249.204 147.442 249.265 147.442C249.327 147.564 249.327 147.625 249.327 147.746C249.327 147.807 249.327 147.807 249.265 147.868C249.204 147.929 249.142 148.051 249.081 148.112C248.958 148.172 248.836 148.233 248.713 148.233L248.529 149.146V149.207L247.792 149.694L247.608 150.667L248.774 152.371L248.651 152.98L249.327 154.014L250.984 154.318L251.229 154.684C251.291 154.623 251.413 154.623 251.475 154.684C251.72 154.744 251.904 154.988 251.843 155.231C253.377 155.353 254.973 155.596 256.569 155.84C259.085 151.215 261.97 147.016 265.345 143.061L264.425 141.722L263.688 141.6H263.627V141.54L263.074 140.748L261.294 140.383V140.323L260.803 139.592L258.226 139.105L255.709 140.748H255.648H255.587L254.114 140.444H254.052L252.457 138.071L251.782 137.949L250.8 136.489L248.222 136.002C247.363 136.489 246.503 136.915 245.644 137.402L246.687 138.923L253.561 140.262H253.623V140.323L254.789 142.087L255.403 142.209C255.525 142.026 255.709 141.905 255.894 141.966C256.139 142.026 256.323 142.27 256.262 142.513V142.574C256.2 142.817 255.955 142.939 255.709 142.878C255.525 142.817 255.341 142.635 255.341 142.452L254.666 142.331L253.439 140.505L246.503 139.166L246.381 138.984L245.399 137.523L245.276 137.584L246.442 139.288L252.211 140.444L253.255 141.966L255.218 144.886L255.28 145.008L255.587 145.069C255.587 145.008 255.648 145.008 255.648 144.947C255.771 144.826 255.955 144.765 256.078 144.765C256.262 144.826 256.385 144.947 256.446 145.069C256.446 145.13 256.446 145.252 256.446 145.312C256.385 145.556 256.139 145.738 255.894 145.677C255.709 145.617 255.525 145.434 255.525 145.252L255.157 145.191V145.13L254.85 144.643L252.088 140.566L246.319 139.41L245.092 137.584L244.969 137.645L246.381 139.714L252.15 140.87V140.931L253.5 142.939L254.359 144.217V144.278L254.298 144.765C254.482 144.886 254.605 145.069 254.543 145.252C254.482 145.495 254.236 145.677 253.991 145.617C253.745 145.556 253.561 145.312 253.623 145.069C253.684 144.886 253.868 144.704 254.052 144.704L254.114 144.278L251.966 141.114L246.197 139.957H246.135V139.897L244.785 137.888L244.601 137.828C243.619 138.375 242.698 138.923 241.778 139.471L242.453 139.592H242.514L243.496 141.053L246.258 141.6L246.381 141.479L246.994 141.114L244.355 140.627V140.566L244.171 140.323C244.11 140.323 243.987 140.383 243.926 140.323C243.742 140.262 243.619 140.14 243.557 140.018C243.557 139.957 243.557 139.897 243.557 139.775C243.619 139.531 243.864 139.349 244.11 139.41C244.355 139.471 244.539 139.714 244.478 139.957C244.478 140.018 244.417 140.079 244.355 140.14L244.478 140.323L247.547 140.931L246.626 141.54L246.258 141.783L243.312 141.235V141.174L242.33 139.775L241.778 139.653L241.225 140.018L240.857 139.957C240.673 140.079 240.489 140.201 240.305 140.262L241.532 140.505C241.593 140.444 241.655 140.383 241.716 140.323C241.839 140.262 241.962 140.201 242.146 140.262C242.269 140.262 242.391 140.383 242.514 140.505C242.575 140.566 242.575 140.627 242.575 140.748C242.575 140.809 242.575 140.87 242.575 140.931C242.575 141.053 242.453 141.174 242.33 141.296C242.207 141.357 242.084 141.418 241.9 141.357C241.778 141.357 241.655 141.235 241.532 141.114C241.471 140.992 241.409 140.87 241.409 140.748L239.998 140.444L239.629 140.688L239.814 140.931L247.056 142.331L248.529 141.357L251.168 141.844H251.229V141.905L251.536 142.391L251.659 142.635L251.413 143.974L250.984 145.982L252.273 147.929L252.641 147.99C252.764 147.807 252.948 147.686 253.132 147.746C253.377 147.807 253.561 147.99 253.5 148.294C253.5 148.294 253.5 148.294 253.5 148.355C253.5 148.416 253.439 148.538 253.377 148.598C253.316 148.659 253.255 148.72 253.132 148.72C253.07 148.72 253.009 148.72 252.948 148.72C252.886 148.72 252.825 148.659 252.764 148.659C252.702 148.598 252.641 148.538 252.579 148.477C252.579 148.416 252.518 148.355 252.518 148.355L252.088 148.294V148.233L250.738 146.164V146.103L251.413 142.757L251.045 142.209L248.529 141.722L247.056 142.696H246.994L239.629 141.235V141.174L239.384 140.87L239.261 140.931L239.568 141.357L247.117 142.817L248.529 141.905L250.677 142.331H250.738V142.391L251.106 143V143.061L250.922 144.034L250.431 146.469L251.413 147.99L251.597 148.294C251.659 148.294 251.72 148.294 251.843 148.294C251.904 148.294 251.966 148.355 252.027 148.355C252.088 148.416 252.15 148.416 252.15 148.477C252.15 148.477 252.15 148.538 252.211 148.538C252.273 148.598 252.273 148.72 252.273 148.781V148.842C252.273 148.963 252.15 149.085 252.027 149.207C251.904 149.268 251.782 149.329 251.597 149.268C251.475 149.268 251.352 149.146 251.229 149.024C251.168 148.903 251.106 148.781 251.168 148.598V148.538C251.229 148.477 251.229 148.355 251.352 148.294L251.291 148.233L251.106 147.929L250.186 146.529V146.469V146.408L250.861 143L250.493 142.513L248.467 142.148L247.056 143.061H246.994L239.323 141.54H239.261V141.479L238.954 140.992C238.832 141.053 238.77 141.114 238.648 141.174L238.954 141.661L248.283 143.487L249.633 145.495L249.388 146.834L250.431 148.416L250.247 149.389L250.677 149.998L252.457 150.363L253.07 149.937L253.439 149.998C253.561 149.815 253.746 149.694 253.93 149.755C254.175 149.815 254.359 150.059 254.298 150.302C254.236 150.485 254.114 150.606 253.991 150.667C253.93 150.667 253.868 150.667 253.745 150.667C253.684 150.667 253.623 150.606 253.561 150.546C253.439 150.485 253.377 150.363 253.377 150.181L253.132 150.12L252.518 150.546L250.554 150.181L250.063 149.389L250.247 148.416L249.204 146.834L249.449 145.495L248.222 143.669L238.893 141.844L238.525 141.235L238.463 141.296L238.954 142.026L247.976 143.791L248.529 144.582V144.643V144.704L248.467 145.069C248.651 145.191 248.774 145.373 248.713 145.556C248.651 145.799 248.406 145.982 248.16 145.921C247.915 145.86 247.731 145.617 247.792 145.373C247.854 145.191 248.038 145.008 248.222 145.008L248.283 144.704L247.854 144.034L238.832 142.27V142.209L238.279 141.418L238.095 141.54L239.323 143.304L242.146 143.852L242.698 144.643L244.478 145.008H244.539V145.069L244.908 145.617L244.969 145.677V145.738L244.846 146.286C244.969 146.347 245.03 146.408 245.092 146.469C245.153 146.529 245.153 146.59 245.153 146.651C245.153 146.712 245.153 146.834 245.153 146.895C245.153 146.895 245.153 146.895 245.153 146.955C245.153 147.016 245.092 147.077 245.092 147.138C245.03 147.199 245.03 147.26 244.969 147.26C244.908 147.26 244.908 147.32 244.846 147.32C244.785 147.32 244.724 147.381 244.662 147.381L244.601 147.625L245.706 149.207L245.46 150.363C245.644 150.424 245.767 150.667 245.706 150.85C245.706 150.85 245.706 150.85 245.706 150.911C245.644 151.154 245.399 151.337 245.153 151.276C244.908 151.215 244.724 150.972 244.785 150.728C244.785 150.728 244.785 150.728 244.785 150.667C244.846 150.485 245.03 150.363 245.215 150.302L245.399 149.268L244.294 147.686V147.625L244.355 147.32C244.294 147.32 244.233 147.26 244.233 147.26C244.171 147.26 244.171 147.199 244.171 147.138C244.11 147.077 244.11 147.016 244.11 146.955C244.11 146.895 244.11 146.834 244.11 146.773V146.712C244.11 146.651 244.171 146.529 244.233 146.469C244.294 146.408 244.294 146.408 244.355 146.347C244.417 146.286 244.539 146.286 244.662 146.225L244.785 145.738L244.478 145.252L242.698 144.886H242.637V144.826L242.146 144.095L239.323 143.548V143.487L238.034 141.661C237.481 141.966 236.99 142.331 236.438 142.635L236.254 143.548L237.543 145.495L237.727 145.799L238.832 147.381V147.442V147.503L238.586 148.72L239.077 149.389L240.611 151.702L242.637 152.128H242.698V152.189L243.68 153.649V153.71L243.373 154.805ZM231.59 156.387C233.922 155.84 236.377 155.414 238.832 155.11C238.832 155.049 238.893 154.927 238.954 154.866L238.648 154.379L237.666 154.197V154.136L236.99 153.162L237.42 150.972L237.113 150.485L236.684 149.815L236.008 148.781V148.72V148.659V148.598L236.254 147.442C236.131 147.381 236.07 147.32 236.008 147.26C235.947 147.138 235.886 147.016 235.947 146.834C235.947 146.712 236.07 146.59 236.193 146.469C236.315 146.408 236.438 146.347 236.622 146.408C236.745 146.408 236.868 146.529 236.99 146.651C237.052 146.773 237.113 146.895 237.052 147.077C237.052 147.199 236.929 147.32 236.806 147.442C236.684 147.503 236.622 147.564 236.499 147.564L236.254 148.781L237.42 150.546L237.666 150.911V150.972L237.236 153.162L237.788 154.014L238.77 154.197V154.258L239.077 154.744C239.139 154.744 239.261 154.684 239.323 154.744C239.445 154.744 239.63 154.866 239.691 154.988C240.796 154.866 241.9 154.805 243.066 154.744L243.312 153.527L242.391 152.189L240.366 151.763H240.305V151.702L238.218 148.598L238.463 147.32L235.824 143.426L236.008 142.635L235.763 142.817L235.517 143.913L236.008 144.643L238.034 147.625L237.788 148.963L239.875 152.067L242.146 152.493L242.269 152.675C242.33 152.675 242.453 152.615 242.514 152.675C242.76 152.736 242.944 152.98 242.882 153.223C242.821 153.467 242.575 153.649 242.33 153.588C242.084 153.527 241.9 153.284 241.962 153.041C241.962 152.98 242.023 152.858 242.084 152.797L242.023 152.736L239.752 152.31V152.249L237.543 149.024L237.788 147.686L237.481 147.26L235.272 144.034V143.974L235.456 143C235.333 143.122 235.149 143.183 235.026 143.304L234.842 144.095L235.702 145.373V145.434L235.088 148.416L235.947 149.694L236.377 150.363L236.561 150.667V150.728L236.193 152.432V152.554H236.07L235.088 152.371L234.229 152.98L233.983 154.136L233.615 154.379C233.615 154.44 233.676 154.562 233.615 154.623C233.553 154.866 233.308 155.049 233.063 154.988C232.817 154.927 232.633 154.684 232.694 154.44C232.756 154.197 233.001 154.014 233.247 154.075C233.308 154.075 233.431 154.136 233.492 154.197L233.738 154.014L233.983 152.858L235.026 152.189L235.947 152.371L236.254 150.789L234.781 148.659L234.72 148.538L235.333 145.556L234.72 144.582L234.535 144.278V144.217V144.156L234.658 143.487C233.676 144.095 232.756 144.704 231.774 145.312L232.326 146.164C232.387 146.164 232.51 146.103 232.572 146.164C232.694 146.164 232.817 146.286 232.878 146.408C232.94 146.529 232.94 146.651 232.94 146.712C232.94 146.773 232.878 146.895 232.817 146.955L233.308 147.686V147.746L233.247 148.112C233.369 148.172 233.431 148.233 233.492 148.355C233.553 148.416 233.553 148.538 233.492 148.659C233.431 148.903 233.185 149.085 232.94 149.024C232.694 148.963 232.51 148.72 232.572 148.477C232.572 148.355 232.633 148.294 232.694 148.233C232.756 148.172 232.878 148.112 233.001 148.112L233.063 147.807L232.633 147.199C232.572 147.199 232.449 147.26 232.387 147.199C232.142 147.138 231.958 146.895 232.019 146.651C232.019 146.59 232.081 146.469 232.142 146.408L232.019 146.225V146.286C232.019 146.347 232.019 146.408 231.958 146.408C231.896 146.469 231.835 146.529 231.774 146.59C231.712 146.59 231.712 146.651 231.651 146.651C231.528 146.712 231.467 146.712 231.344 146.651C231.221 146.651 231.16 146.59 231.099 146.529C231.099 146.529 231.099 146.529 231.037 146.469L230.73 146.651L230.608 146.773L230.301 148.355V148.416H230.239L228.705 149.45L228.337 149.389C228.214 149.572 228.03 149.694 227.846 149.633C227.6 149.572 227.416 149.329 227.477 149.085C227.539 148.842 227.784 148.659 228.03 148.72C228.214 148.781 228.398 148.963 228.398 149.146L228.644 149.207L230.055 148.233L230.362 146.59L230.914 146.225C230.914 146.164 230.914 146.164 230.914 146.103C230.914 146.043 230.914 145.982 230.914 145.921C230.914 145.86 230.914 145.799 230.976 145.799C229.748 146.59 228.582 147.381 227.416 148.172L228.459 148.355L228.766 148.172C228.766 148.112 228.705 147.99 228.766 147.929C228.828 147.686 229.073 147.503 229.319 147.564C229.564 147.625 229.748 147.868 229.687 148.112C229.626 148.355 229.38 148.538 229.135 148.477C229.073 148.477 228.95 148.416 228.889 148.355L228.521 148.598L227.171 148.355C226.495 148.842 225.82 149.268 225.145 149.755L227.109 150.12H227.171L227.6 150.728L228.889 150.972C228.95 150.85 229.012 150.789 229.073 150.728C229.196 150.667 229.319 150.606 229.503 150.667C229.626 150.667 229.748 150.789 229.871 150.911C229.932 151.032 229.994 151.154 229.932 151.337V151.398C229.932 151.398 229.932 151.458 229.871 151.458C229.81 151.519 229.748 151.641 229.687 151.641C229.564 151.702 229.441 151.763 229.257 151.702C229.135 151.702 229.012 151.58 228.889 151.458C228.828 151.398 228.828 151.276 228.766 151.215L227.416 150.972H227.355V150.911L226.986 150.363L224.838 149.937C224.593 150.12 224.409 150.241 224.163 150.424L225.943 150.789L226.495 151.58L226.557 151.702L229.503 152.31L229.932 152.006C229.871 151.945 229.871 151.824 229.932 151.763C229.932 151.702 229.994 151.641 229.994 151.58L230.055 151.519C230.178 151.398 230.301 151.337 230.485 151.398C230.669 151.458 230.792 151.519 230.853 151.702C230.853 151.702 230.853 151.763 230.853 151.824C230.853 151.884 230.853 151.945 230.853 152.006C230.792 152.249 230.546 152.432 230.301 152.371C230.239 152.371 230.178 152.31 230.117 152.249L229.626 152.615H229.564L226.373 152.006V151.945L225.82 151.093L223.918 150.728C223.304 151.154 222.752 151.58 222.138 152.006L224.654 152.493L225.391 152.006H225.452L229.012 152.736L229.748 153.832L230.117 153.892C230.178 153.771 230.239 153.649 230.362 153.588C230.362 153.588 230.423 153.588 230.423 153.527C230.546 153.467 230.669 153.467 230.792 153.467C230.914 153.467 231.037 153.527 231.099 153.649L231.16 153.71C231.221 153.832 231.283 153.953 231.221 154.136C231.221 154.258 231.099 154.379 230.976 154.501C230.914 154.501 230.853 154.562 230.853 154.562C230.792 154.562 230.669 154.623 230.546 154.562C230.485 154.562 230.362 154.501 230.301 154.44C230.239 154.379 230.239 154.379 230.178 154.318C230.117 154.258 230.117 154.136 230.117 154.075L229.687 154.014H229.626L228.889 152.858L225.452 152.189L224.716 152.675H224.654L221.892 152.128C221.77 152.189 221.647 152.31 221.586 152.371L224.593 152.98L224.777 152.858L225.391 152.432H225.452L228.95 153.101V153.162L230.853 155.961C230.976 155.901 231.099 155.901 231.16 155.901C231.405 155.961 231.59 156.144 231.59 156.387ZM228.644 157.118C229.319 156.935 229.994 156.753 230.669 156.57C230.608 156.448 230.608 156.387 230.608 156.266C230.608 156.205 230.608 156.144 230.669 156.144L230.055 155.292L228.766 153.345L225.391 152.675L224.654 153.162H224.593L221.279 152.493C221.156 152.615 220.972 152.736 220.849 152.797L222.69 153.162L223.12 153.832L223.243 153.953L224.961 154.318H225.023V154.379L225.575 155.17L226.373 155.292V155.353L227.539 157.057L227.784 157.118C227.846 156.996 227.907 156.935 228.03 156.874C228.153 156.813 228.214 156.813 228.337 156.813C228.459 156.813 228.521 156.874 228.582 156.935C228.644 157.057 228.644 157.057 228.644 157.118ZM215.325 162.533C219.315 160.465 223.427 158.7 227.784 157.422C227.784 157.422 227.784 157.422 227.784 157.361L227.477 157.3H227.416V157.239L226.25 155.535L225.452 155.414V155.353L224.9 154.562L223.12 154.197V154.136L222.874 153.832L222.568 153.406L220.604 153.041C219.315 154.014 218.026 154.927 216.798 155.901L217.228 155.961C217.351 155.779 217.535 155.657 217.719 155.718C217.965 155.779 218.149 156.022 218.087 156.266V156.327C218.026 156.57 217.78 156.692 217.535 156.631C217.351 156.57 217.167 156.387 217.167 156.205L216.553 156.083C216.307 156.266 216.062 156.509 215.816 156.692L217.167 158.7L217.228 158.821L217.535 158.882C217.535 158.822 217.596 158.822 217.596 158.761C217.719 158.639 217.903 158.578 218.026 158.578C218.21 158.639 218.333 158.761 218.394 158.882C218.394 158.943 218.394 159.065 218.394 159.126C218.333 159.369 218.087 159.552 217.842 159.491C217.658 159.43 217.474 159.247 217.474 159.065L217.105 159.004V158.943L215.632 156.813L215.571 156.874L216.307 158.03V158.091L216.185 158.578C216.369 158.7 216.492 158.882 216.43 159.065C216.369 159.308 216.123 159.491 215.878 159.43C215.632 159.369 215.448 159.126 215.51 158.882C215.571 158.7 215.755 158.517 215.939 158.517L216.001 158.091L215.325 157.057C214.528 157.665 213.791 158.274 213.055 158.882L212.87 159.917L214.159 161.864L214.528 161.925C214.65 161.742 214.834 161.621 215.019 161.682C215.264 161.742 215.448 161.925 215.387 162.168C215.387 162.168 215.387 162.168 215.387 162.229C215.448 162.351 215.387 162.412 215.325 162.533C215.325 162.473 215.325 162.473 215.325 162.533ZM212.748 163.872C213.546 163.446 214.343 163.02 215.141 162.594C215.08 162.594 215.019 162.594 214.957 162.594C214.896 162.594 214.834 162.533 214.773 162.533C214.712 162.473 214.65 162.412 214.589 162.351C214.589 162.29 214.528 162.229 214.528 162.229L214.098 162.168L213.73 161.621L212.686 160.039V159.978L212.87 159.126C212.809 159.187 212.748 159.187 212.686 159.247L212.502 160.282L213.546 161.803L213.73 162.108C213.791 162.108 213.852 162.108 213.975 162.108C214.037 162.108 214.098 162.168 214.159 162.168C214.221 162.229 214.282 162.229 214.282 162.29C214.282 162.29 214.282 162.351 214.343 162.351C214.405 162.412 214.405 162.533 214.405 162.594V162.655C214.405 162.777 214.282 162.899 214.159 163.02C214.037 163.081 213.914 163.142 213.73 163.081C213.607 163.081 213.484 162.959 213.361 162.838C213.3 162.716 213.239 162.594 213.3 162.412V162.351C213.361 162.29 213.361 162.168 213.484 162.108L213.423 162.047L213.239 161.742L212.318 160.343V160.282V160.221L212.502 159.43C212.257 159.673 212.011 159.856 211.704 160.099L211.582 160.708L212.625 162.229V162.29V162.351L212.441 163.264L212.748 163.872ZM211.582 164.602C211.827 164.481 212.073 164.359 212.318 164.176L212.073 163.811L211.827 163.446V163.385L212.011 162.533L211.643 161.925L211.275 163.872L211.582 164.602ZM206.365 167.767C207.347 167.158 208.267 166.55 209.249 165.941L208.881 165.394C208.758 165.454 208.636 165.454 208.513 165.454C208.39 165.454 208.267 165.333 208.145 165.211C208.083 165.089 208.022 164.968 208.083 164.785C208.083 164.663 208.206 164.542 208.329 164.42C208.452 164.359 208.574 164.298 208.758 164.359C208.881 164.359 209.004 164.481 209.127 164.602C209.188 164.724 209.249 164.846 209.188 165.028C209.188 165.089 209.127 165.211 209.065 165.272L209.434 165.819C210.047 165.454 210.661 165.089 211.336 164.724L210.845 164.055L211.336 161.438L212.134 162.594V162.655L211.95 163.446L212.379 164.116L212.441 164.055L212.011 163.446V163.385L212.195 162.473L211.152 160.951V160.89L211.213 160.464C209.863 161.621 208.574 162.777 207.347 163.933L207.285 164.298C207.47 164.359 207.592 164.602 207.531 164.785C207.531 164.785 207.531 164.785 207.531 164.846C207.47 165.089 207.224 165.272 206.979 165.211C206.733 165.15 206.549 164.907 206.61 164.663C206.303 164.968 205.935 165.272 205.628 165.637C205.628 165.637 205.628 165.637 205.69 165.698C205.751 165.819 205.813 165.941 205.751 166.063V166.124C205.751 166.185 205.69 166.306 205.628 166.367L206.365 167.462V167.523V167.767ZM205.383 168.436C205.628 168.254 205.874 168.132 206.058 167.949L206.181 167.28L205.506 166.306C205.383 166.367 205.26 166.367 205.137 166.367C205.076 166.367 204.953 166.306 204.892 166.245C204.831 166.306 204.769 166.367 204.708 166.428L205.444 167.523V167.584L205.383 168.436ZM199 173C201.025 171.479 203.051 170.018 205.076 168.619L205.26 167.645L204.585 166.611C204.524 166.671 204.462 166.732 204.401 166.793C204.646 166.854 204.831 167.097 204.769 167.341C204.708 167.584 204.462 167.767 204.217 167.706C204.033 167.645 203.849 167.523 203.849 167.341C202.069 169.288 200.412 171.174 199 173Z" fill="#0D3274"/>
<path fill-rule="evenodd" clip-rule="evenodd" d="M199 181C213.46 195.582 229.872 206.902 253.606 206.287C261.355 227.083 277.768 242.895 299 256C263.979 245.171 213.338 206.656 199 181Z" fill="#C90632"/>
<path fill-rule="evenodd" clip-rule="evenodd" d="M245.545 171.474C243.944 170.46 242.158 169.509 240.187 168.622C240.433 171.03 240.618 173.628 240.618 176.352C240.618 176.669 240.618 176.986 240.618 177.302C242.527 175.338 244.19 173.374 245.545 171.474ZM230.21 184.335C227.685 183.575 225.283 182.751 223.066 181.864C223.374 184.335 223.866 186.553 224.482 188.58C226.699 187.693 229.163 186.362 231.565 184.715C231.134 184.588 230.641 184.462 230.21 184.335ZM234.336 172.994C235.506 174.578 235.198 176.859 233.659 178.063C232.119 179.266 229.902 178.95 228.732 177.366C227.562 175.782 227.87 173.501 229.409 172.297C230.949 171.093 233.166 171.41 234.336 172.994ZM228.916 196.626C229.717 197.006 230.518 197.387 231.38 197.703C231.503 197.703 231.626 197.703 231.749 197.703C234.89 197.577 237.477 192.888 238.647 186.046C236.923 185.856 235.137 185.539 233.351 185.095C230.456 186.996 227.562 188.517 224.913 189.594C225.899 192.825 227.315 195.296 228.916 196.626ZM218.632 191.304C221.218 192.825 223.928 194.219 226.576 195.486L226.515 195.423C225.652 193.902 224.913 192.001 224.297 189.784C222.204 190.607 220.294 191.114 218.632 191.304ZM213.397 188.136C214.382 188.77 215.429 189.404 216.476 190.037C218.447 190.354 221.033 189.847 223.99 188.707C223.497 186.553 223.066 184.208 222.819 181.737C220.233 180.66 217.892 179.457 215.922 178.253C213.212 182.308 212.165 185.982 213.397 188.136ZM208.223 169.509C203.912 171.347 200.279 173.248 198 174.958C200.956 178.95 205.76 183.068 211.364 186.806C211.426 184.398 212.904 181.231 215.429 177.936C210.995 175.148 208.285 172.107 208.223 169.509ZM210.379 168.622C210.071 168.749 209.763 168.876 209.455 169.003C209.825 168.876 210.071 168.749 210.379 168.622ZM236.738 160.703C228.177 162.477 218.385 165.455 210.441 168.622C210.564 170.967 212.904 173.691 216.722 176.352C218.878 173.818 221.588 171.283 224.729 168.939C221.711 171.41 219.124 174.071 217.153 176.669C218.755 177.746 220.664 178.823 222.758 179.837C222.696 178.95 222.696 177.999 222.635 177.049C222.696 177.999 222.758 178.95 222.819 179.9C225.037 180.977 227.562 181.991 230.148 182.878C231.134 183.195 232.057 183.511 232.981 183.765C233.782 183.195 234.521 182.624 235.321 181.991C236.676 180.914 237.97 179.773 239.201 178.633C239.201 177.746 239.201 176.859 239.14 175.972C239.017 173.121 238.77 170.46 238.339 167.926C237.477 167.609 236.615 167.229 235.691 166.975C236.553 167.229 237.477 167.545 238.278 167.862C237.847 165.264 237.231 162.857 236.553 160.829L236.738 160.703ZM245.914 159.246C243.697 159.436 241.234 159.816 238.647 160.323C239.325 162.73 239.817 165.455 240.187 168.432C242.219 169.256 244.128 170.143 245.853 171.093C248.994 166.595 250.164 162.667 248.563 160.576C247.947 159.879 247.023 159.436 245.914 159.246ZM249.24 173.311C250.78 169.319 253.366 165.581 257 162.033C256.877 159.436 252.935 158.675 247.146 159.119C248.871 159.246 250.225 159.752 250.964 160.829C252.627 163.174 251.149 167.355 247.577 172.107C248.132 172.487 248.747 172.931 249.24 173.311ZM247.639 184.905C247.269 181.104 247.7 177.492 248.932 174.071C248.378 173.564 247.762 173.121 247.146 172.614C245.36 174.895 243.081 177.239 240.433 179.583C240.31 181.484 240.125 183.321 239.879 185.032C242.897 185.412 245.545 185.349 247.639 184.905ZM247.7 185.475C247.7 185.349 247.639 185.159 247.639 185.032C247.7 185.159 247.7 185.285 247.7 185.475ZM253.49 200.998C250.287 195.739 248.439 190.734 247.762 185.982C245.483 186.362 242.712 186.426 239.694 186.109C238.586 192.255 236.43 196.88 233.905 198.717C244.498 203.025 253.182 204.609 253.49 200.998ZM235.814 183.321C236.984 182.434 238.093 181.611 239.14 180.724C239.078 182.181 238.955 183.575 238.77 184.905C237.477 184.715 236.122 184.462 234.706 184.145C235.075 183.892 235.445 183.638 235.814 183.321Z" fill="#F29000"/>
<path fill-rule="evenodd" clip-rule="evenodd" d="M203.787 153C202.812 155.227 201.959 157.392 201.168 159.495L201.228 159.433C201.35 159.495 201.472 159.557 201.594 159.68L201.655 159.742L203.299 158.567C202.508 157.082 202.629 155.165 203.787 153.804C203.909 153.68 204.03 153.495 204.213 153.371L203.787 153ZM208.051 144.093C206.589 146.876 205.31 149.66 204.091 152.381L204.701 153C205.797 152.32 207.198 152.196 208.416 152.691L210.365 148.237C210.061 148.113 209.817 147.928 209.574 147.68C208.538 146.753 208.051 145.392 208.051 144.093ZM217.005 128.443C215.787 130.423 214.569 132.402 213.411 134.381L215.117 133.825C214.69 132.959 214.812 131.907 215.421 131.165C215.848 130.67 216.396 130.423 216.944 130.361L217.005 128.443ZM219.442 124.732C219.198 125.103 218.954 125.412 218.772 125.783L219.442 124.732ZM220.416 123.247C220.173 123.619 219.929 123.99 219.685 124.361L220.416 123.247ZM225.898 115.33C224.802 116.876 223.706 118.361 222.67 119.907C223.218 119.722 223.888 119.784 224.376 120.155L226.995 116.258C226.812 116.134 226.569 116.01 226.386 115.825C226.203 115.639 226.02 115.515 225.898 115.33ZM229.492 110.567C229.188 110.938 228.944 111.309 228.64 111.68C228.944 111.247 229.188 110.938 229.492 110.567ZM241.188 96.5258C239.787 98.0722 238.386 99.6804 236.985 101.289L237.716 100.485L241.553 98.0722C241.249 97.6392 241.127 97.0825 241.188 96.5258ZM243.442 94.1753L243.137 94.4845L243.198 94.4227C243.259 94.4227 243.381 94.4227 243.442 94.4227V94.1753ZM242.893 104.32C244.538 100.918 246.426 97.5155 248.558 94.1753C248.071 93.1237 248.193 91.8866 248.985 90.8969C249.594 90.1546 250.508 89.8454 251.36 89.9072C253.431 86.9381 255.624 83.9691 258 81C253.431 84.3402 248.741 88.6082 244.051 93.433L244.112 94.4227C244.477 94.4845 244.782 94.6701 245.086 94.9175C246.061 95.7835 246.183 97.3299 245.33 98.3196C244.477 99.3093 242.954 99.433 241.98 98.567L241.919 98.5052L237.228 101.474C237.594 101.969 237.716 102.649 237.594 103.206L240.822 104.753C241.371 104.258 242.162 104.072 242.893 104.32ZM239.665 111.866C240.152 110.505 240.701 109.144 241.31 107.784C241.188 107.722 241.127 107.66 241.005 107.598C240.396 107.103 240.213 106.237 240.457 105.557L237.35 104.072C237.289 104.258 237.168 104.443 236.985 104.567C236.741 104.814 236.497 105 236.193 105.186L237.168 109.639C237.594 109.701 237.959 109.825 238.264 110.134C238.751 110.567 238.995 111.124 238.934 111.742L239.665 111.866ZM236.863 121.144C237.533 118.237 238.386 115.33 239.421 112.485L238.934 112.361C238.873 112.546 238.751 112.794 238.569 112.979C237.838 113.845 236.558 113.907 235.706 113.165C234.853 112.423 234.792 111.124 235.523 110.258C235.827 109.948 236.193 109.701 236.558 109.639L235.584 105.309C235.036 105.371 234.426 105.247 233.878 104.938C232.843 106.237 231.807 107.536 230.772 108.835C231.137 109.021 231.442 109.206 231.746 109.454C233.452 110.938 233.695 113.598 232.173 115.33C232.051 115.454 231.929 115.577 231.807 115.701L234.061 117.742C234.731 117.433 235.462 117.557 236.071 118.052C236.802 118.732 236.924 119.845 236.315 120.649L236.863 121.144ZM236.802 121.639L236.863 121.268C236.802 121.392 236.802 121.515 236.802 121.639ZM226.325 138.402C229.066 136.979 231.99 135.742 235.218 134.691C235.218 133.577 235.279 132.526 235.34 131.412C234.853 131.969 233.939 132.031 233.391 131.536C232.782 131.041 232.721 130.113 233.269 129.557C233.756 128.938 234.67 128.876 235.279 129.433L235.34 129.495L235.584 129.309C235.827 126.835 236.254 124.423 236.741 122.01L235.888 121.206C235.218 121.639 234.305 121.577 233.695 121.021C232.904 120.34 232.843 119.165 233.513 118.361L233.574 118.299L231.32 116.258C230.223 116.938 228.822 117.124 227.604 116.629L224.863 120.773C225.168 121.268 225.228 121.825 225.107 122.32L228.274 124.361C229.188 123.371 230.711 123.247 231.746 124.113C232.782 125.041 232.904 126.588 231.99 127.639C231.076 128.691 229.492 128.814 228.457 127.887C227.604 127.144 227.36 125.907 227.848 124.918L224.741 122.876L224.68 122.938C224.01 123.742 222.792 123.804 222.061 123.124C221.635 122.753 221.391 122.258 221.391 121.701C221.086 122.196 220.721 122.691 220.416 123.124C220.416 123.804 220.234 124.423 219.807 124.979L222.548 127.268C223.096 126.835 223.827 126.835 224.376 127.268C224.985 127.763 225.046 128.691 224.497 129.247C224.01 129.866 223.096 129.928 222.487 129.371C222 128.938 221.878 128.32 222.122 127.763L219.259 125.412C219.015 125.598 218.772 125.722 218.528 125.845C218.223 126.278 217.98 126.711 217.675 127.206L217.614 130.237C218.041 130.299 218.406 130.485 218.772 130.794C219.442 131.412 219.746 132.278 219.563 133.082L222.731 134.196C222.792 134.01 222.914 133.887 223.036 133.701C223.888 132.711 225.411 132.588 226.386 133.454C227.36 134.32 227.482 135.866 226.629 136.856C226.447 137.041 226.264 137.227 226.081 137.351L226.325 138.402ZM225.777 138.711L226.264 138.464C226.081 138.526 225.898 138.649 225.777 138.711ZM217.127 144.526C218.284 143.536 219.503 142.608 220.782 141.742L220.477 140.753C220.051 140.876 219.563 140.753 219.198 140.443C218.589 139.948 218.528 139.021 219.076 138.464C219.563 137.845 220.477 137.784 221.086 138.34C221.695 138.835 221.756 139.763 221.208 140.32C221.147 140.381 221.147 140.381 221.086 140.443L221.391 141.309C222.731 140.381 224.193 139.515 225.655 138.711L225.533 137.722C224.802 137.907 223.949 137.783 223.34 137.227C222.67 136.67 222.426 135.804 222.548 134.938L219.381 133.825C219.32 133.948 219.198 134.134 219.076 134.258C218.223 135.247 216.701 135.371 215.726 134.505C215.665 134.443 215.604 134.381 215.604 134.381L212.924 135.309L213.35 134.505C212.193 136.485 211.036 138.526 210 140.505C211.645 139.33 213.959 139.33 215.604 140.753C216.701 141.742 217.188 143.165 217.127 144.526ZM209.33 152.381C210.365 151.144 211.401 149.969 212.497 148.794C212.01 148.794 211.462 148.67 210.975 148.546L209.33 152.381ZM198 171C198.426 170.072 198.914 169.144 199.401 168.155C199.401 167.66 199.523 167.227 199.827 166.794C199.949 166.67 200.071 166.546 200.254 166.423C201.472 164.072 202.812 161.784 204.152 159.557C203.97 159.371 203.787 159.247 203.665 159.062L202.02 160.299C202.142 160.732 202.081 161.289 201.716 161.66C201.35 162.093 200.802 162.216 200.315 162.093L200.376 161.969C199.279 165.247 198.487 168.216 198 171Z" fill="#0D3274"/>
<path fill-rule="evenodd" clip-rule="evenodd" d="M240 255C231.138 244.659 224.615 233.217 226.4 217.675C212.985 211.372 203.446 199.685 196 185C201.108 208.558 223.815 244.047 240 255Z" fill="#C90632"/>
<path fill-rule="evenodd" clip-rule="evenodd" d="M208 229C197.33 211.557 193.93 192.768 195.513 173C195.513 173 192.64 175.876 191.292 175.999C189.299 190.749 197.799 219.82 208 229Z" fill="#C90632"/>
<path fill-rule="evenodd" clip-rule="evenodd" d="M186 155C189.159 159.996 190.094 165.349 189.685 171C189.685 171 190.562 170.167 190.913 170.167C191.498 165.944 189.042 157.617 186 155Z" fill="#C90632"/>
<path fill-rule="evenodd" clip-rule="evenodd" d="M199 154C195.29 158.955 194.076 164.328 194.48 170C194.48 170 193.536 169.164 193.064 169.104C192.524 164.925 195.492 156.627 199 154Z" fill="#C90632"/>
<path d="M186 225.854C186 225.421 185.754 225.173 185.323 225.173H173.757C167.421 225.173 166.375 223.564 166.375 219.17V209.454H184.77C185.446 209.454 186 208.959 186 208.278V206.051C186 205.432 185.446 204.875 184.77 204.875H166.375V196.83C166.375 192.436 167.421 190.827 173.757 190.827H185.323C185.754 190.827 186 190.579 186 190.146V187.238C186 186.805 185.815 186.495 185.385 186.433C182.862 186.124 177.203 186.062 173.696 186.062C165.268 186.062 160.9 189.156 160.9 196.83V219.108C160.9 226.844 165.206 229.876 173.696 229.876C177.203 229.876 183.17 229.876 185.385 229.567C185.815 229.505 186 229.134 186 228.762V225.854ZM156.04 225.73C156.04 225.111 155.486 224.74 154.871 224.74H133.339C132.908 224.74 132.723 224.616 132.723 224.368C132.723 224.183 132.785 223.997 132.908 223.873L154.317 193.674C154.994 192.807 155.301 191.384 155.301 190.27C155.301 187.114 153.579 186.433 150.195 186.433H128.848C128.171 186.433 127.617 186.805 127.617 187.423V190.146C127.617 190.765 128.171 191.136 128.848 191.136H148.78C149.211 191.136 149.395 191.26 149.395 191.57C149.395 191.693 149.334 191.879 149.211 192.003L127.74 222.203C127.063 223.069 126.817 224.554 126.817 225.544C126.817 228.639 127.986 229.505 131.801 229.505H154.871C155.547 229.505 156.04 229.072 156.04 228.453V225.73ZM117.897 217.623C117.897 223.873 113.283 225.421 105.839 225.421C103.747 225.421 101.594 225.235 99.6254 225.173V209.269H108.853C115.928 209.269 117.897 212.734 117.897 216.633V217.623ZM117.712 198.129C117.712 201.842 115.867 204.999 108.915 204.999H99.6869V190.641C101.348 190.579 103.501 190.456 105.654 190.456C112.975 190.456 117.774 191.632 117.774 197.201V198.129H117.712ZM123.372 216.633C123.372 212.177 120.85 208.65 116.728 207.226C120.788 205.679 123.126 202.461 123.126 198.129V197.201C123.126 188.475 115.067 186 105.531 186C101.656 186 97.9644 186.248 95.9957 186.433C94.7653 186.557 94.0886 187.238 94.0886 188.599V227.153C94.0886 228.577 94.7038 229.134 96.0572 229.319C98.395 229.752 101.84 229.814 105.839 229.814C115.19 229.814 123.372 227.277 123.372 217.561V216.633ZM89.1054 225.854C89.1054 225.421 88.8593 225.173 88.4287 225.173H76.8629C70.5263 225.173 69.4804 223.564 69.4804 219.17V209.454H87.875C88.5517 209.454 89.1054 208.959 89.1054 208.278V206.051C89.1054 205.432 88.5517 204.875 87.875 204.875H69.4804V196.83C69.4804 192.436 70.5263 190.827 76.8629 190.827H88.4287C88.8593 190.827 89.1054 190.579 89.1054 190.146V187.238C89.1054 186.805 88.9208 186.495 88.4902 186.433C85.9679 186.124 80.308 186.062 76.8013 186.062C68.373 186.062 64.0051 189.156 64.0051 196.83V219.108C64.0051 226.844 68.3115 229.876 76.8013 229.876C80.308 229.876 86.2755 229.876 88.4902 229.567C88.9208 229.505 89.1054 229.134 89.1054 228.762V225.854ZM57.607 208.278C57.607 207.66 57.1148 207.103 56.4381 207.103H53.1775C52.5008 207.103 52.0701 207.598 52.0701 208.278V224.864C50.6552 225.049 48.1944 225.235 44.5031 225.235C38.9048 225.235 34.4138 221.46 34.4138 211.93V204.194C34.4138 193.736 39.4585 190.889 45.0568 190.889C50.2245 190.889 52.9314 191.013 56.4381 191.322H56.6842C57.2379 191.322 57.4839 191.136 57.4839 190.765V187.857C57.4839 187.238 56.9918 187.052 56.4381 186.99C54.1003 186.557 50.5937 186.186 45.0568 186.186C37.3668 186.186 29 190.208 29 204.256V211.992C29 225.235 37.0592 230 44.5647 230C50.2861 230 53.5466 229.567 56.4996 229.134C57.2379 229.01 57.607 228.639 57.607 227.834V208.278Z" fill="#0D3274"/>
<path d="M185.938 239.36C185.938 239.18 185.815 239 185.569 239H184.031C183.846 239 183.661 239.12 183.661 239.36V241.042C183.661 241.222 183.784 241.403 184.031 241.403H185.569C185.754 241.403 185.938 241.222 185.938 241.042V239.36ZM186 243.084C186 242.904 185.877 242.724 185.631 242.724H183.969C183.784 242.724 183.6 242.844 183.6 243.084V255.518C183.6 255.698 183.723 255.879 183.969 255.879H185.631C185.815 255.879 186 255.698 186 255.518V243.084ZM182.492 252.335C182.492 250.893 182 249.812 180.153 248.731L178.122 247.529C177.015 246.869 176.707 246.568 176.707 245.968C176.707 245.187 177.199 244.706 178.492 244.706C179.599 244.706 180.707 244.766 181.815 244.886H181.877C182.061 244.886 182.184 244.766 182.184 244.586V243.265C182.184 243.084 182.061 242.964 181.877 242.904C181.323 242.784 179.722 242.604 178.615 242.604C175.476 242.604 174.368 244.046 174.368 245.968C174.368 247.229 174.799 248.25 176.399 249.211L178.615 250.593C179.722 251.313 180.03 251.614 180.03 252.335C180.03 253.356 179.599 253.896 178.061 253.896C177.445 253.896 175.722 253.836 175.045 253.716H174.984C174.799 253.716 174.676 253.836 174.676 254.077V255.338C174.676 255.518 174.799 255.638 174.984 255.698C175.784 255.878 176.707 255.999 177.999 255.999C181.384 256.059 182.492 254.137 182.492 252.335ZM173.383 254.317C173.383 254.137 173.26 253.956 173.014 253.956H169.568C168.583 253.956 168.214 253.596 168.214 252.455V250.112H172.829C173.014 250.112 173.199 249.932 173.199 249.752V248.49C173.199 248.31 173.076 248.13 172.829 248.13H168.214V246.208C168.214 245.007 168.583 244.706 169.568 244.706H173.014C173.199 244.706 173.383 244.526 173.383 244.346V243.205C173.383 242.964 173.322 242.904 173.014 242.844C172.46 242.784 171.783 242.604 169.814 242.604C167.598 242.604 165.875 243.205 165.875 246.208V252.395C165.875 255.398 167.598 255.999 169.814 255.999C171.845 255.999 172.522 255.818 173.014 255.758C173.26 255.698 173.383 255.638 173.383 255.398V254.317ZM165.013 243.084C165.013 242.904 164.89 242.724 164.644 242.724H156.336C156.151 242.724 155.966 242.844 155.966 243.084V244.466C155.966 244.646 156.089 244.766 156.336 244.766H159.29V255.518C159.29 255.698 159.413 255.879 159.659 255.879H161.321C161.505 255.879 161.69 255.698 161.69 255.518V244.826H164.644C164.829 244.826 165.013 244.706 165.013 244.526V243.084ZM155.105 239.36C155.105 239.18 154.982 239 154.735 239H153.197C153.012 239 152.828 239.12 152.828 239.36V241.042C152.828 241.222 152.951 241.403 153.197 241.403H154.735C154.92 241.403 155.105 241.222 155.105 241.042V239.36ZM155.228 243.084C155.228 242.904 155.105 242.724 154.858 242.724H153.197C153.012 242.724 152.828 242.844 152.828 243.084V255.518C152.828 255.698 152.951 255.879 153.197 255.879H154.858C155.043 255.879 155.228 255.698 155.228 255.518V243.084ZM151.658 252.335C151.658 250.893 151.166 249.812 149.319 248.731L147.289 247.529C146.181 246.869 145.873 246.568 145.873 245.968C145.873 245.187 146.365 244.706 147.658 244.706C148.766 244.706 149.873 244.766 150.981 244.886H151.043C151.227 244.886 151.35 244.766 151.35 244.586V243.265C151.35 243.084 151.227 242.964 151.043 242.904C150.489 242.784 148.889 242.604 147.781 242.604C144.642 242.604 143.534 244.046 143.534 245.968C143.534 247.229 143.965 248.25 145.565 249.211L147.781 250.593C148.889 251.313 149.196 251.614 149.196 252.335C149.196 253.356 148.766 253.896 147.227 253.896C146.612 253.896 144.888 253.836 144.211 253.716H144.15C143.965 253.716 143.842 253.836 143.842 254.077V255.338C143.842 255.518 143.965 255.638 144.15 255.698C144.95 255.878 145.873 255.999 147.165 255.999C150.55 256.059 151.658 254.137 151.658 252.335ZM140.211 246.809C140.211 248.37 139.411 248.851 137.688 248.851C137.441 248.851 136.457 248.791 136.149 248.791V244.826C136.457 244.766 137.257 244.766 137.688 244.766C139.411 244.766 140.211 245.307 140.211 246.628V246.809ZM142.919 255.698C142.919 255.638 142.919 255.578 142.857 255.578L140.211 250.413C141.626 249.872 142.488 248.671 142.488 246.809V246.628C142.488 243.625 140.211 242.664 137.564 242.664C136.334 242.664 135.103 242.724 134.241 242.904C133.872 242.964 133.687 243.084 133.687 243.445V255.518C133.687 255.698 133.81 255.879 134.056 255.879H135.78C135.964 255.879 136.087 255.698 136.087 255.518V250.713C136.457 250.713 137.134 250.773 137.626 250.773H137.872L140.334 255.518C140.396 255.698 140.457 255.879 140.703 255.879H142.796C142.857 255.879 142.919 255.818 142.919 255.698ZM132.333 254.317C132.333 254.137 132.21 253.956 131.964 253.956H128.517C127.533 253.956 127.163 253.596 127.163 252.455V250.112H131.779C131.964 250.112 132.149 249.932 132.149 249.752V248.49C132.149 248.31 132.025 248.13 131.779 248.13H127.163V246.208C127.163 245.007 127.533 244.706 128.517 244.706H131.964C132.149 244.706 132.333 244.526 132.333 244.346V243.205C132.333 242.964 132.272 242.904 131.964 242.844C131.41 242.784 130.733 242.604 128.764 242.604C126.548 242.604 124.825 243.205 124.825 246.208V252.395C124.825 255.398 126.548 255.999 128.764 255.999C130.795 255.999 131.472 255.818 131.964 255.758C132.21 255.698 132.333 255.638 132.333 255.398V254.317ZM123.963 243.084C123.963 242.904 123.84 242.784 123.655 242.784H121.871C121.748 242.784 121.624 242.904 121.563 243.084L119.101 253.716C119.04 253.956 119.04 254.016 118.855 254.016C118.67 254.016 118.609 253.956 118.609 253.716L116.147 243.084C116.085 242.904 115.962 242.784 115.839 242.784H114.054C113.87 242.784 113.747 242.904 113.747 243.084C113.747 243.145 113.747 243.145 113.747 243.145L116.516 254.197C116.947 255.818 118.178 255.999 118.855 255.999C119.593 255.999 120.824 255.818 121.194 254.197L123.963 243.145C123.963 243.084 123.963 243.145 123.963 243.084ZM112.762 239.36C112.762 239.18 112.639 239 112.393 239H110.854C110.67 239 110.485 239.12 110.485 239.36V241.042C110.485 241.222 110.608 241.403 110.854 241.403H112.393C112.577 241.403 112.762 241.222 112.762 241.042V239.36ZM112.824 243.084C112.824 242.904 112.701 242.724 112.454 242.724H110.793C110.608 242.724 110.423 242.844 110.423 243.084V255.518C110.423 255.698 110.546 255.879 110.793 255.879H112.454C112.639 255.879 112.824 255.698 112.824 255.518V243.084ZM108.762 243.084C108.762 242.844 108.639 242.724 108.454 242.724H106.977C106.731 242.724 106.669 242.844 106.669 243.084V252.395C106.669 252.515 106.608 252.575 106.608 252.575C106.546 252.575 106.485 252.515 106.485 252.455L102.546 243.385C102.361 242.904 102.176 242.844 101.807 242.844H99.9608C99.5915 242.844 99.2838 243.145 99.2838 243.565V255.518C99.2838 255.698 99.4069 255.879 99.6531 255.879H101.069C101.253 255.879 101.376 255.698 101.376 255.518V246.628C101.376 246.568 101.438 246.508 101.438 246.508C101.499 246.508 101.561 246.568 101.561 246.628L105.315 255.218C105.561 255.879 105.931 255.879 106.361 255.879H108.085C108.454 255.879 108.762 255.578 108.762 255.158V243.084ZM92.2062 239.781C92.2062 239.601 92.0216 239.42 91.8369 239.42H90.606C90.4214 239.42 90.2368 239.601 90.2368 239.781V241.343C90.2368 241.523 90.4214 241.703 90.606 241.703H91.8369C92.0216 241.703 92.2062 241.523 92.2062 241.343V239.781ZM95.5911 239.781C95.5911 239.601 95.4065 239.42 95.2219 239.42H93.991C93.8063 239.42 93.6217 239.601 93.6217 239.781V241.343C93.6217 241.523 93.8063 241.703 93.991 241.703H95.2219C95.4065 241.703 95.5911 241.523 95.5911 241.343V239.781ZM97.6221 243.084C97.6221 242.904 97.499 242.724 97.2528 242.724H95.5911C95.4065 242.724 95.2219 242.844 95.2219 243.084V251.013C95.2219 253.055 94.7295 253.956 92.8832 253.956C91.0369 253.956 90.5445 252.995 90.5445 251.013V243.084C90.5445 242.904 90.4214 242.724 90.1752 242.724H88.5135C88.3289 242.724 88.1443 242.844 88.1443 243.084V251.013C88.1443 254.737 90.1137 255.999 92.8216 255.999C95.5296 255.999 97.499 254.737 97.499 251.013V243.084H97.6221ZM82.3591 255.758C82.3591 255.698 82.2975 255.638 82.2975 255.518L77.9279 249.151L82.2975 243.325C82.3591 243.205 82.4206 243.145 82.4206 243.024C82.4206 242.904 82.2975 242.784 82.1129 242.784H80.205C80.0204 242.784 79.8973 242.784 79.8357 242.904L75.6507 248.731V243.084C75.6507 242.904 75.5276 242.724 75.2815 242.724H73.6198C73.4351 242.724 73.2505 242.844 73.2505 243.084V255.518C73.2505 255.698 73.3736 255.879 73.6198 255.879H75.2815C75.4661 255.879 75.6507 255.698 75.6507 255.518V249.632L79.528 255.638C79.5896 255.758 79.7127 255.818 79.8973 255.818H82.1744C82.236 255.879 82.3591 255.818 82.3591 255.758ZM71.4042 239.36C71.4042 239.18 71.2811 239 71.0349 239H69.4963C69.3116 239 69.127 239.12 69.127 239.36V241.042C69.127 241.222 69.2501 241.403 69.4963 241.403H71.0349C71.2195 241.403 71.4042 241.222 71.4042 241.042V239.36ZM71.4657 243.084C71.4657 242.904 71.3426 242.724 71.0964 242.724H69.4347C69.2501 242.724 69.0655 242.844 69.0655 243.084V255.518C69.0655 255.698 69.1886 255.879 69.4347 255.879H71.0964C71.2811 255.879 71.4657 255.698 71.4657 255.518V243.084ZM67.4038 243.084C67.4038 242.844 67.2807 242.724 67.096 242.724H65.619C65.3728 242.724 65.3113 242.844 65.3113 243.084V252.395C65.3113 252.515 65.2497 252.575 65.2497 252.575C65.1882 252.575 65.1266 252.515 65.1266 252.455L61.1878 243.385C61.0031 242.904 60.8185 242.844 60.4492 242.844H58.6029C58.2336 242.844 57.9259 243.145 57.9259 243.565V255.518C57.9259 255.698 58.049 255.879 58.2952 255.879H59.7107C59.8953 255.879 60.0184 255.698 60.0184 255.518V246.628C60.0184 246.568 60.08 246.508 60.08 246.508C60.1415 246.508 60.2031 246.568 60.2031 246.628L63.9573 255.218C64.2035 255.879 64.5727 255.879 65.0035 255.879H66.7268C67.096 255.879 67.4038 255.578 67.4038 255.158V243.084ZM56.9412 255.758C56.9412 255.698 56.8797 255.638 56.8797 255.518L52.51 249.151L56.8797 243.325C56.9412 243.205 57.0027 243.145 57.0027 243.024C57.0027 242.904 56.8797 242.784 56.695 242.784H54.7871C54.6025 242.784 54.4794 242.784 54.4179 242.904L50.2329 248.731V243.084C50.2329 242.904 50.1098 242.724 49.8636 242.724H48.2019C48.0172 242.724 47.8326 242.844 47.8326 243.084V255.518C47.8326 255.698 47.9557 255.879 48.2019 255.879H49.8636C50.0482 255.879 50.2329 255.698 50.2329 255.518V249.632L54.1102 255.638C54.1717 255.758 54.2948 255.818 54.4794 255.818H56.7566C56.8797 255.879 56.9412 255.818 56.9412 255.758ZM46.3555 254.317C46.3555 254.137 46.2325 253.956 45.9863 253.956H42.5398C41.5551 253.956 41.1858 253.596 41.1858 252.455V250.112H45.8016C45.9863 250.112 46.1709 249.932 46.1709 249.752V248.49C46.1709 248.31 46.0478 248.13 45.8016 248.13H41.1858V246.208C41.1858 245.007 41.5551 244.706 42.5398 244.706H45.9863C46.1709 244.706 46.3555 244.526 46.3555 244.346V243.205C46.3555 242.964 46.294 242.904 45.9863 242.844C45.4324 242.784 44.7554 242.604 42.786 242.604C40.5704 242.604 38.8471 243.205 38.8471 246.208V252.395C38.8471 255.398 40.5704 255.999 42.786 255.999C44.8169 255.999 45.4939 255.818 45.9863 255.758C46.2325 255.698 46.3555 255.638 46.3555 255.398V254.317ZM37.9855 243.084C37.9855 242.904 37.8624 242.724 37.6162 242.724H29.3693C29.1846 242.724 29 242.844 29 243.084V244.466C29 244.646 29.1231 244.766 29.3693 244.766H32.3234V255.518C32.3234 255.698 32.4465 255.879 32.6927 255.879H34.3544C34.539 255.879 34.7236 255.698 34.7236 255.518V244.826H37.6778C37.8624 244.826 38.047 244.706 38.047 244.526V243.084H37.9855Z" fill="#0D3274"/>
</svg>
