<svg width="20" height="33" viewBox="0 0 20 33" fill="none" xmlns="http://www.w3.org/2000/svg">
<path d="M7.96774 7.88889C10.7548 7.88889 11.4516 5.59259 11.4516 4.44444C11.4516 3.2963 10.7548 1 7.96774 1C5.18064 1 4.48387 3.2963 4.48387 4.44444C4.48387 5.59259 5.18064 7.88889 7.96774 7.88889ZM7.96774 7.88889L8.0023 9.32407M8.25806 19.9444C6.51613 25.3981 5.93548 26.8333 1 30.8519M8.25806 19.9444C13.7742 23.963 14.3548 24.537 13.7742 32M8.25806 19.9444L8.0023 9.32407M8.0023 9.32407L3.90323 13.6296L10.871 16.5M8.0023 9.32407L14.9355 12.4815L19 7.88889" stroke="#FBDA00"/>
</svg>
