<svg width="13" height="30" viewBox="0 0 13 30" fill="none" xmlns="http://www.w3.org/2000/svg">
<path d="M6.5 8.10204C9.14 8.10204 9.8 5.73469 9.8 4.55102C9.8 3.36735 9.14 1 6.5 1C3.86 1 3.2 3.36735 3.2 4.55102C3.2 5.73469 3.86 8.10204 6.5 8.10204ZM6.5 8.10204V9.28571M6.5 18.7551C7.6 19.6429 9.8 21.951 9.8 24.0816C9.8 26.2122 9.8 28.915 9.8 30M6.5 18.7551C5.58333 19.7415 3.75 22.1878 3.75 24.0816C3.75 25.9755 3.75 28.8163 3.75 30M6.5 18.7551V9.28571M6.5 9.28571C10.9 11.3571 7.875 20.5306 12 12.5408M6.5 9.28571C1.55 11.6531 4.85 20.2347 1 12.5408" stroke="#FBDA00"/>
</svg>
