<svg width="29" height="31" viewBox="0 0 29 31" fill="none" xmlns="http://www.w3.org/2000/svg">
<path d="M10.6531 7.89917C12.5153 7.3505 13.0204 5.52158 13.0204 4.52941C13.0204 3.35294 12.3102 1 9.46939 1C6.62857 1 5.91837 3.35294 5.91837 4.52941C5.91837 5.70588 6.62857 8.05882 9.46939 8.05882C9.91441 8.05882 10.3071 8.00108 10.6531 7.89917ZM10.6531 7.89917C10.7818 8.24382 10.919 8.59148 11.0638 8.94118M29 23.9412H21.3061C19.8361 22.8173 17.88 20.5526 15.9796 17.8029M15.9796 17.8029L9.46939 23.9412V31M15.9796 17.8029C14.1177 15.1091 12.3093 11.9496 11.0638 8.94118M11.0638 8.94118L6.5102 13.3529H0M11.0638 8.94118L15.3878 13.3529L10.6531 18.0588" stroke="#FBDA00"/>
</svg>
