<svg width="16" height="29" viewBox="0 0 16 29" fill="none" xmlns="http://www.w3.org/2000/svg">
<path d="M4.57447 8.04348C7.43404 8.04348 8.14894 5.69565 8.14894 4.52174C8.14894 3.34783 7.43404 1 4.57447 1C1.71489 1 1 3.34783 1 4.52174C1 5.69565 1.71489 8.04348 4.57447 8.04348ZM4.57447 8.04348V10.3913M15 28V19.7826H12.3191M4.57447 10.3913V15.6739C4.57447 17.4348 5.88511 19.7826 7.55319 19.7826H12.3191M4.57447 10.3913L12.3191 19.7826M4.57447 10.3913C6.65957 17.7283 6.65957 18.0217 10.5319 12.1522M3.38298 21.5435H12.9149V28H3.38298V21.5435Z" stroke="#FBDA00"/>
</svg>
