<svg width="19" height="32" viewBox="0 0 19 32" fill="none" xmlns="http://www.w3.org/2000/svg">
<path d="M6.1 7.6613C7.42155 6.9395 7.8 5.40708 7.8 4.52941C7.8 3.35294 7.12 1 4.4 1C1.68 1 1 3.35294 1 4.52941C1 5.70588 1.68 8.05882 4.4 8.05882C5.09083 8.05882 5.65007 7.90704 6.1 7.6613ZM6.1 7.6613C6.49654 7.99798 6.86855 8.32637 7.2175 8.64706M15.7333 31C11.3231 25.1139 12.5167 21.6819 12.4023 18.0588M7.2175 8.64706C10.0561 8.54902 16.1867 7.47059 18 3.94118M7.2175 8.64706L1.28333 14.5294V8.64706M7.2175 8.64706C11.519 12.6001 12.3177 15.3816 12.4023 18.0588M12.4023 18.0588L5.81667 21.5882L9.5 28.6471" stroke="#FBDA00"/>
</svg>
