<svg width="9" height="34" viewBox="0 0 9 34" fill="none" xmlns="http://www.w3.org/2000/svg">
<path d="M4.4922 7.98182C7.28597 7.98182 7.98441 5.65455 7.98441 4.49091C7.98441 3.32727 7.28597 1 4.4922 1C1.69844 1 1 3.32727 1 4.49091C1 5.65455 1.69844 7.98182 4.4922 7.98182ZM4.4922 7.98182C5.04182 8.53123 5.52685 9.11754 5.94729 9.73667M5.07424 33H7.98441C5.42346 27.88 5.17124 26.2121 5.36526 26.0182C8.67214 19.9154 8.86616 14.0349 5.94729 9.73667M5.94729 9.73667C5.94729 12.0608 5.36526 17.8727 3.03712 22.5273M5.94729 9.73667C1.87305 18.1636 2.97892 15.8364 2.7461 8.85455" stroke="#FBDA00"/>
</svg>
