<svg width="30" height="17" viewBox="0 0 30 17" fill="none" xmlns="http://www.w3.org/2000/svg">
<path d="M23.3776 10.6252C23.8912 10.9736 24.5675 11.2006 25.449 11.2006C27.1449 11.2006 28.0814 10.3603 28.5609 9.43207M23.3776 10.6252C22.2358 9.85078 21.898 8.47674 21.898 7.66356C21.898 7.11287 22.0529 6.30498 22.5075 5.60029M23.3776 10.6252C23.1803 11.21 22.6082 12.3796 21.898 12.3796M21.898 12.3796C21.1878 12.3796 14.5 12.3796 11.2449 12.3796M21.898 12.3796C14.7959 7.07405 13.6122 5.60029 22.5075 5.60029M21.898 12.3796C28.5609 16.8009 29.5918 18.5694 28.5609 9.43207M11.2449 12.3796V4.71603L7.10204 2.99665M11.2449 12.3796L7.10204 2.99665M4.14286 0V1.76851L7.10204 2.99665M7.10204 2.99665L2.07143 12.3796H0M22.5075 5.60029C23.0262 4.79624 23.935 4.12653 25.449 4.12653C28.2898 4.12653 29 6.48455 29 7.66356C29 8.13873 28.8846 8.80542 28.5609 9.43207" stroke="#FBDA00"/>
</svg>
