<svg width="12" height="32" viewBox="0 0 12 32" fill="none" xmlns="http://www.w3.org/2000/svg">
<path d="M6.27778 7.32855C7.34953 6.57442 7.66667 5.23634 7.66667 4.44444C7.66667 3.2963 7 1 4.33333 1C1.66667 1 1 3.2963 1 4.44444C1 5.59259 1.66667 7.88889 4.33333 7.88889C5.16076 7.88889 5.79563 7.66781 6.27778 7.32855ZM6.27778 7.32855C6.69208 7.73028 7.21544 8.28547 7.76173 8.93575M11 32V15.3519C11 13.3216 9.29098 10.7561 7.76173 8.93575M7.76173 8.93575C7.26708 12.1269 5.77778 18.5667 3.77778 18.7963M4.33333 19.3704L1 16.5" stroke="#FBDA00"/>
</svg>
