<svg width="152" height="192" viewBox="0 0 152 192" fill="none" xmlns="http://www.w3.org/2000/svg">
<path d="M51.289 179C51.1445 183.129 53.4133 191.388 63.6445 191.388C73.8757 191.388 76.1445 183.129 76 179V74.892M76 74.892C71.8092 73.8054 61 74.4574 51.289 85.7585M76 74.892C85.1908 72.2841 96.5925 81.0497 101.145 85.7585M51.289 85.7585C47.8931 82.1364 37.763 74.892 24.4104 74.892C11.0578 74.892 3.23988 82.1364 1 85.7585C2.51734 60.6932 19.6416 10.5625 76 10.5625M51.289 85.7585C52.5029 25.4278 68.2688 10.4901 76 10.5625M76 10.5625C132.358 10.5625 149.483 60.6932 151 85.7585C147.965 82.1364 139.078 74.892 127.806 74.892C116.535 74.892 105.335 82.1364 101.145 85.7585M76 10.5625V1M76 10.5625C84.3815 9.83807 101.145 23.8631 101.145 85.7585" stroke="white" stroke-linecap="round" stroke-linejoin="round"/>
</svg>
